<?xml version="1.0" encoding="UTF-8" standalone="no"?>
<!-- Uploaded to: SVG Repo, www.svgrepo.com, Generator: SVG Repo Mixer Tools -->

<svg
   height="800px"
   width="800px"
   version="1.1"
   id="_x34_"
   viewBox="0 0 512 512"
   xml:space="preserve"
   sodipodi:docname="coin-svgrepo-com.svg"
   inkscape:version="1.4 (1:1.4+202410161351+e7c3feb100)"
   xmlns:inkscape="http://www.inkscape.org/namespaces/inkscape"
   xmlns:sodipodi="http://sodipodi.sourceforge.net/DTD/sodipodi-0.dtd"
   xmlns="http://www.w3.org/2000/svg"
   xmlns:svg="http://www.w3.org/2000/svg"><defs
   id="defs30">
	
	
	

		
		
		
		
		
		
		
	
			
			
			
			
		
			
		
			
			
		
			
			
			
			
			
			
			
			
		
			
			
			
			
			
			
			
			
		
			
			
			
			
		
				
			
				
			</defs><sodipodi:namedview
   id="namedview30"
   pagecolor="#ffffff"
   bordercolor="#000000"
   borderopacity="0.25"
   inkscape:showpageshadow="2"
   inkscape:pageopacity="0.0"
   inkscape:pagecheckerboard="0"
   inkscape:deskcolor="#d1d1d1"
   inkscape:zoom="1.10125"
   inkscape:cx="400"
   inkscape:cy="400"
   inkscape:window-width="1920"
   inkscape:window-height="1131"
   inkscape:window-x="0"
   inkscape:window-y="32"
   inkscape:window-maximized="1"
   inkscape:current-layer="_x34_" />
<path
   style="opacity:0.06;fill:#040000"
   d="m 256.12,511.759 c 65.556,0 131.113,-24.952 181.02,-74.859 99.814,-99.814 99.814,-262.225 0,-362.038 C 387.232,24.953 321.676,0 256.12,0 Z"
   id="path1" /><path
   style="fill:#f8d176"
   d="M 256,512 C 114.841,512 0,397.159 0,256 0,114.841 114.841,0 256,0 397.159,0 512,114.841 512,256 512,397.159 397.159,512 256,512 Z"
   id="path2" /><path
   style="opacity:0.2;fill:#ffffff"
   d="m 331.858,278.511 c -2.639,-7.713 -6.907,-14.208 -12.786,-19.487 -4.679,-4.679 -10.266,-8.329 -16.762,-10.969 -6.496,-2.639 -14.723,-4.679 -24.68,-6.102 l -1.92,-0.291 -23.978,-3.668 c -4.662,-0.6 -8.57,-1.628 -11.723,-3.051 -1.32,-0.583 -2.554,-1.234 -3.719,-1.936 -1.611,-0.977 -3.051,-2.057 -4.353,-3.24 -2.245,-2.228 -3.805,-4.662 -4.73,-7.301 -0.908,-2.639 -1.371,-5.382 -1.371,-8.227 0,-7.524 2.691,-13.968 8.073,-19.35 0.737,-0.737 1.525,-1.423 2.382,-2.04 5.348,-4.028 12.94,-6.033 22.761,-6.033 5.33,0 10.883,0.48 16.659,1.457 1.936,0.326 3.891,0.703 5.879,1.131 7.918,1.731 15.237,5.844 21.938,12.34 l 26.806,-26.514 c -9.341,-9.135 -19.59,-15.631 -30.765,-19.487 -7.164,-2.468 -15.133,-4.165 -23.875,-5.039 -4.884,-0.514 -10.026,-0.754 -15.425,-0.754 -8.638,0 -16.642,0.874 -23.978,2.639 -2.657,0.634 -5.227,1.371 -7.713,2.245 -9.341,3.24 -17.259,7.764 -23.755,13.54 -6.496,5.793 -11.484,12.7 -14.928,20.721 -3.462,8.021 -5.176,16.917 -5.176,26.669 0,18.476 5.176,32.702 15.528,42.642 4.885,4.679 10.66,8.484 17.362,11.432 5.296,2.314 11.5,4.165 18.681,5.519 1.937,0.377 3.925,0.72 5.999,1.028 l 25.897,3.959 c 2.913,0.428 5.416,0.891 7.524,1.371 1.868,0.446 3.428,0.891 4.662,1.371 2.639,1.011 5.073,2.537 7.318,4.559 4.456,4.474 6.701,10.472 6.701,17.979 0,8.741 -3.256,15.442 -9.752,20.104 -2.502,1.817 -5.484,3.274 -8.929,4.37 -5.484,1.765 -12.151,2.639 -20.018,2.639 -6.684,0 -13.163,-0.6 -19.402,-1.8 -3.034,-0.583 -5.999,-1.303 -8.929,-2.159 -8.929,-2.639 -16.848,-7.404 -23.755,-14.311 l -27.423,27.405 c 10.558,10.78 22.281,18.236 35.187,22.401 7.678,2.485 15.991,4.216 24.938,5.21 6.067,0.686 12.443,1.029 19.093,1.029 7.061,0 13.831,-0.566 20.31,-1.714 3.942,-0.686 7.781,-1.594 11.517,-2.708 9.855,-2.931 18.373,-7.198 25.589,-12.786 7.216,-5.587 12.854,-12.443 16.917,-20.567 4.062,-8.124 6.085,-17.465 6.085,-28.022 -0.002,-9.751 -1.322,-18.475 -3.961,-26.204 z"
   id="path3" /><path
   style="opacity:0.2;fill:#ffffff"
   d="m 275.71,151.407 v 36.866 c -5.776,-0.977 -11.329,-1.457 -16.659,-1.457 -9.821,0 -17.413,2.005 -22.761,6.033 v -41.442 c 0,-10.849 8.878,-19.71 19.71,-19.71 5.416,0 10.352,2.211 13.917,5.793 3.428,3.411 5.605,8.073 5.776,13.214 0.017,0.24 0.017,0.463 0.017,0.703 z"
   id="path4" /><path
   style="opacity:0.2;fill:#ffffff"
   d="m 275.71,241.662 v 40.054 c -2.108,-0.48 -4.61,-0.943 -7.524,-1.371 l -25.897,-3.959 c -2.074,-0.309 -4.062,-0.651 -5.999,-1.028 v -42.351 c 1.165,0.703 2.399,1.354 3.719,1.936 3.154,1.423 7.061,2.451 11.723,3.051 z"
   id="path5" /><path
   style="opacity:0.2;fill:#ffffff"
   d="m 255.692,332.739 c 7.867,0 14.534,-0.874 20.018,-2.639 v 38.974 c 0,10.832 -8.861,19.71 -19.71,19.71 -10.695,0 -19.487,-8.655 -19.693,-19.299 -0.017,-0.137 -0.017,-0.274 -0.017,-0.411 v -38.135 c 6.239,1.2 12.717,1.8 19.402,1.8 z"
   id="path6" /><path
   style="opacity:0.5;fill:#c69949"
   d="M 256.001,472.633 C 136.549,472.633 39.368,375.452 39.368,256 c 0,-119.452 97.18,-216.633 216.633,-216.633 119.452,0 216.633,97.18 216.633,216.633 0,119.453 -97.181,216.633 -216.633,216.633 z m 0,-378.029 c -88.994,0 -161.396,72.402 -161.396,161.396 0,88.994 72.402,161.396 161.396,161.396 88.994,0 161.396,-72.402 161.396,-161.396 0,-88.994 -72.403,-161.396 -161.396,-161.396 z"
   id="path7" /><path
   style="fill:#d9ae56"
   d="m 331.858,274.27 c -2.639,-7.713 -6.907,-14.208 -12.786,-19.487 -4.679,-4.679 -10.266,-8.329 -16.762,-10.969 -6.496,-2.639 -14.723,-4.679 -24.68,-6.102 l -1.92,-0.292 -23.978,-3.668 c -4.662,-0.6 -8.57,-1.628 -11.723,-3.051 -1.32,-0.583 -2.554,-1.234 -3.719,-1.936 -1.611,-0.977 -3.051,-2.057 -4.353,-3.24 -2.245,-2.228 -3.805,-4.662 -4.73,-7.301 -0.908,-2.639 -1.371,-5.382 -1.371,-8.227 0,-7.524 2.691,-13.968 8.073,-19.35 0.737,-0.737 1.525,-1.423 2.382,-2.04 5.348,-4.028 12.94,-6.033 22.761,-6.033 5.33,0 10.883,0.48 16.659,1.457 1.936,0.326 3.891,0.703 5.879,1.131 7.918,1.731 15.237,5.844 21.938,12.34 l 26.806,-26.514 c -9.341,-9.135 -19.59,-15.631 -30.765,-19.487 -7.164,-2.468 -15.133,-4.165 -23.875,-5.039 -4.884,-0.514 -10.026,-0.754 -15.425,-0.754 -8.638,0 -16.642,0.874 -23.978,2.64 -2.657,0.634 -5.227,1.371 -7.713,2.245 -9.341,3.239 -17.259,7.764 -23.755,13.54 -6.496,5.793 -11.484,12.7 -14.928,20.721 -3.462,8.021 -5.176,16.917 -5.176,26.669 0,18.476 5.176,32.701 15.528,42.642 4.885,4.679 10.66,8.484 17.362,11.432 5.296,2.314 11.5,4.165 18.681,5.519 1.937,0.377 3.925,0.72 5.999,1.028 l 25.897,3.959 c 2.913,0.428 5.416,0.891 7.524,1.371 1.868,0.446 3.428,0.891 4.662,1.371 2.639,1.011 5.073,2.537 7.318,4.559 4.456,4.473 6.701,10.472 6.701,17.979 0,8.741 -3.256,15.442 -9.752,20.104 -2.502,1.817 -5.484,3.274 -8.929,4.37 -5.484,1.765 -12.151,2.639 -20.018,2.639 -6.684,0 -13.163,-0.6 -19.402,-1.8 -3.034,-0.583 -5.999,-1.303 -8.929,-2.16 -8.929,-2.639 -16.848,-7.404 -23.755,-14.311 l -27.423,27.405 c 10.558,10.78 22.281,18.236 35.187,22.401 7.678,2.485 15.991,4.216 24.938,5.21 6.067,0.686 12.443,1.029 19.093,1.029 7.061,0 13.831,-0.566 20.31,-1.714 3.942,-0.686 7.781,-1.594 11.517,-2.708 9.855,-2.931 18.373,-7.198 25.589,-12.786 7.216,-5.587 12.854,-12.443 16.917,-20.567 4.062,-8.124 6.085,-17.465 6.085,-28.022 -0.002,-9.749 -1.322,-18.473 -3.961,-26.203 z"
   id="path24" /><path
   style="fill:#d9ae56"
   d="m 275.71,147.167 v 36.866 c -5.776,-0.977 -11.329,-1.457 -16.659,-1.457 -9.821,0 -17.413,2.005 -22.761,6.033 v -41.442 c 0,-10.849 8.878,-19.71 19.71,-19.71 5.416,0 10.352,2.211 13.917,5.793 3.428,3.411 5.605,8.072 5.776,13.214 0.017,0.24 0.017,0.463 0.017,0.703 z"
   id="path25" /><path
   style="fill:#d9ae56"
   d="m 275.71,237.421 v 40.054 c -2.108,-0.48 -4.61,-0.943 -7.524,-1.371 l -25.897,-3.959 c -2.074,-0.309 -4.062,-0.651 -5.999,-1.028 v -42.351 c 1.165,0.703 2.399,1.354 3.719,1.936 3.154,1.423 7.061,2.451 11.723,3.051 z"
   id="path26" /><path
   style="fill:#d9ae56"
   d="m 255.692,328.498 c 7.867,0 14.534,-0.874 20.018,-2.639 v 38.974 c 0,10.832 -8.861,19.71 -19.71,19.71 -10.695,0 -19.487,-8.655 -19.693,-19.299 -0.017,-0.137 -0.017,-0.274 -0.017,-0.411 v -38.134 c 6.239,1.199 12.717,1.799 19.402,1.799 z"
   id="path27" /><circle
   style="fill:#f8d176"
   cx="65.962997"
   cy="256"
   r="9.5600004"
   id="circle27" /><circle
   style="fill:#f8d176"
   cx="444.121"
   cy="256"
   r="9.5600004"
   id="circle28" /><path
   style="opacity:0.06;fill:#040000"
   d="m 256.12,511.759 c 65.556,0 131.113,-24.952 181.02,-74.859 99.814,-99.814 99.814,-262.225 0,-362.038 C 387.232,24.953 321.676,0 256.12,0 Z"
   id="path29" />
</svg>
