<?xml version="1.0" encoding="UTF-8" standalone="no"?>
<!-- Created with Inkscape (http://www.inkscape.org/) -->

<svg
   width="960"
   height="320"
   viewBox="0 0 254 84.666669"
   version="1.1"
   id="svg1"
   xml:space="preserve"
   inkscape:version="1.4 (1:1.4+202410161351+e7c3feb100)"
   sodipodi:docname="godot_game_banner.svg"
   xmlns:inkscape="http://www.inkscape.org/namespaces/inkscape"
   xmlns:sodipodi="http://sodipodi.sourceforge.net/DTD/sodipodi-0.dtd"
   xmlns:xlink="http://www.w3.org/1999/xlink"
   xmlns="http://www.w3.org/2000/svg"
   xmlns:svg="http://www.w3.org/2000/svg"><sodipodi:namedview
     id="namedview1"
     pagecolor="#ffffff"
     bordercolor="#000000"
     borderopacity="0.25"
     inkscape:showpageshadow="2"
     inkscape:pageopacity="0.0"
     inkscape:pagecheckerboard="0"
     inkscape:deskcolor="#d1d1d1"
     inkscape:document-units="px"
     inkscape:zoom="0.93697917"
     inkscape:cx="485.06948"
     inkscape:cy="218.25459"
     inkscape:window-width="1920"
     inkscape:window-height="1131"
     inkscape:window-x="0"
     inkscape:window-y="0"
     inkscape:window-maximized="1"
     inkscape:current-layer="layer1"
     showguides="true" /><defs
     id="defs1"><linearGradient
       id="linearGradient957"
       inkscape:collect="always"><stop
         style="stop-color:#ffffff;stop-opacity:1;"
         offset="0.02648662"
         id="stop957" /><stop
         style="stop-color:#1498dc;stop-opacity:1;"
         offset="0.3085188"
         id="stop959" /><stop
         style="stop-color:#1950c0;stop-opacity:1;"
         offset="0.69070369"
         id="stop958" /></linearGradient><linearGradient
       inkscape:collect="always"
       xlink:href="#linearGradient957"
       id="linearGradient959"
       gradientUnits="userSpaceOnUse"
       x1="381"
       y1="-2.4707032e-07"
       x2="381"
       y2="105.56792"
       gradientTransform="translate(-254)" /></defs><g
     inkscape:label="Layer 1"
     inkscape:groupmode="layer"
     id="layer1"><rect
       style="fill:#ffffff;stroke-width:2.64583;stroke-linecap:round;stroke-linejoin:round"
       id="rect1"
       width="254"
       height="84.666672"
       x="0"
       y="0" /><path
       id="rect959"
       style="fill:url(#linearGradient959);stroke-width:4.73286;stroke-linecap:round;stroke-linejoin:round"
       d="M 1.75e-6,-1.9597983e-6 H 254 V 84.66667 H 1.75e-6 Z" /><g
       id="g997"
       transform="matrix(0.17048002,0,0,0.17048002,230.6451,-3.039444)"><path
         id="rect847"
         style="fill:#000000;fill-opacity:1;stroke-width:1.14569;stroke-linecap:round;stroke-linejoin:round"
         d="m -41.76386,308.64421 v 4.23334 h 4.233334 4.233333 4.233334 4.233333 4.233333 4.233334 v -4.23334 h -4.233334 -4.233333 -4.233333 -4.233334 -4.233333 z m 25.400001,4.23334 v 4.23333 h 4.233333 v -4.23333 z m 4.233333,0 h 4.2333335 v -4.23334 h -4.2333335 z m 4.2333335,0 v 4.23333 h 4.2333334 v -4.23333 z m 4.2333334,4.23333 v 4.23333 h 4.23333339 v -4.23333 z m 0,4.23333 h -4.2333334 v 4.23334 h 4.2333334 z m 0,4.23334 v 4.23333 4.23333 4.23334 h 4.23333339 v -4.23334 -4.23333 -4.23333 z m 0,12.7 h -4.2333334 v 4.23333 h 4.2333334 z m -4.2333334,4.23333 h -4.2333335 -4.233333 -4.233334 -4.233333 -4.233333 -4.233334 -4.233333 -4.233334 -4.233333 -4.233333 v 4.23333 h 4.233333 4.233333 4.233334 4.233333 4.233334 4.233333 4.233333 4.233334 4.233333 4.2333335 z m -42.3333335,0 v -4.23333 h -4.233334 v 4.23333 z m -4.233334,-4.23333 v -4.23334 -4.23333 -4.23333 h -4.233333 v 4.23333 4.23333 4.23334 z m 0,-12.7 h 4.233334 v -4.23334 h -4.233334 z m 4.233334,-4.23334 h 4.233333 v -4.23333 h -4.233333 z m 4.233333,-4.23333 h 4.233333 v -4.23333 h -4.233333 z m 4.233333,0 v 4.23333 h 4.233334 v -4.23333 z m 4.233334,4.23333 v 4.23334 h 4.233333 v -4.23334 z m 4.233333,4.23334 v 4.23333 h 4.233334 v -4.23333 z m 4.233334,0 h 4.233333 v -4.23334 h -4.233333 z m 4.233333,0 v 4.23333 h 4.233333 v -4.23333 z m 4.233333,4.23333 v 4.23333 h 4.233334 v -4.23333 z m 0,4.23333 h -4.233333 v 4.23334 h 4.233333 z m -12.7,-4.23333 h -4.233333 v 4.23333 h 4.233333 z m 0,4.23333 v 4.23334 h 4.233334 v -4.23334 z m -4.233333,-4.23333 v -4.23333 h -4.233334 v 4.23333 z m -4.233334,0 h -4.233333 v 4.23333 h 4.233333 z m -4.233333,0 v -4.23333 h -4.233333 v 4.23333 z m 38.1000005,-4.23333 h -4.2333335 v 4.23333 h 4.2333335 z m -4.2333335,0 v -4.23334 h -4.233333 v 4.23334 z m -4.233333,-4.23334 v -4.23333 h -4.233334 v 4.23333 z" /><path
         id="rect876"
         style="fill:#f99c0b;fill-opacity:1;stroke-width:1.14569;stroke-linecap:round;stroke-linejoin:round"
         d="m -12.130526,317.11088 v 4.23333 h 4.2333335 v -4.23333 z m -33.866667,4.23333 v 4.23334 h 4.233333 v -4.23334 z m 16.933334,8.46667 v 4.23333 h 4.233333 v -4.23333 z" /><path
         id="rect877"
         style="fill:#ffffff;fill-opacity:1;stroke-width:1.14569;stroke-linecap:round;stroke-linejoin:round"
         d="m -12.130526,312.87755 v 4.23333 h 4.2333335 v -4.23333 z m 4.2333335,4.23333 v 4.23333 h 4.2333334 v -4.23333 z m 0,4.23333 h -4.2333335 v 4.23334 h 4.2333335 z m -4.2333335,0 v -4.23333 h -4.233333 v 4.23333 z m -33.866667,-4.23333 v 4.23333 h 4.233333 v -4.23333 z m 4.233333,4.23333 v 4.23334 h 4.233334 v -4.23334 z m 0,4.23334 h -4.233333 v 4.23333 h 4.233333 z m -4.233333,0 v -4.23334 h -4.233333 v 4.23334 z m 16.933334,0 v 4.23333 h 4.233333 v -4.23333 z m 4.233333,4.23333 v 4.23333 h 4.233333 v -4.23333 z m 0,4.23333 h -4.233333 v 4.23334 h 4.233333 z m -4.233333,0 v -4.23333 h -4.233334 v 4.23333 z" /><path
         id="rect912"
         style="fill:#03991f;fill-opacity:1;stroke-width:1.14569;stroke-linecap:round;stroke-linejoin:round"
         d="m -41.76386,312.87755 v 4.23333 h 4.233334 v 4.23333 h 4.233333 v 4.23334 h 4.233334 v -4.23334 -4.23333 h 4.233333 4.233333 4.233334 v -4.23333 h -4.233334 -4.233333 -4.233333 -4.233334 -4.233333 z m -12.7,12.7 v 4.23333 4.23333 h 4.233334 v -4.23333 -4.23333 z m 46.5666675,0 v 4.23333 4.23333 h 4.2333334 v -4.23333 -4.23333 z" /><path
         id="rect915"
         style="fill:#0a7030;fill-opacity:1;stroke-width:1.14569;stroke-linecap:round;stroke-linejoin:round"
         d="m -29.063859,317.11088 v 4.23333 h 4.233333 4.233333 v -4.23333 h -4.233333 z m 8.466666,4.23333 v 4.23334 4.23333 h 4.233334 4.233333 v -4.23333 h -4.233333 v -4.23334 z m 8.466667,8.46667 v 4.23333 4.23334 h 4.2333335 v -4.23334 -4.23333 z m -25.4,-4.23333 v 4.23333 h 4.233333 v -4.23333 z m 0,4.23333 h -4.233334 v 4.23333 h -4.233333 v -4.23333 h -4.233333 v 4.23333 4.23334 h 4.233333 4.233333 4.233334 v -4.23334 z" /><path
         id="rect914"
         style="fill:#14462d;fill-opacity:1;stroke-width:1.14569;stroke-linecap:round;stroke-linejoin:round"
         d="m -24.830526,321.34421 v 4.23334 h 4.233333 v -4.23334 z m 8.466667,8.46667 v 4.23333 h -4.233334 v 4.23334 h -4.233333 -4.233333 -4.233334 v -4.23334 h -4.233333 v 4.23334 h -4.233334 -4.233333 -4.233333 v 4.23333 h 4.233333 4.233333 4.233334 4.233333 4.233334 4.233333 4.233333 4.233334 4.233333 4.2333335 v -4.23333 h -4.2333335 v -4.23334 -4.23333 z m 8.4666665,8.46667 h 4.2333334 v -4.23334 h -4.2333334 z m -42.3333335,0 v -4.23334 h -4.233334 v 4.23334 z" /></g><g
       id="g966"
       transform="matrix(0.31415293,0,0,0.31415293,223.03432,-0.42868869)"><rect
         style="fill:#b66b3a;fill-opacity:1;stroke-width:2.64583;stroke-linecap:round;stroke-linejoin:round"
         id="rect960"
         width="50.800049"
         height="16.93335"
         x="-170.5592"
         y="222.18932" /><path
         id="path960"
         style="fill:#000000;stroke-width:0.870134;stroke-linecap:round;stroke-linejoin:round"
         d="m -170.55916,179.85573 v 4.23333 h 4.23334 4.23333 4.23333 4.23334 4.23333 4.23333 4.23334 4.23333 4.23333 4.23334 4.23333 4.23333 v -4.23333 h -4.23333 -4.23333 -4.23334 -4.23333 -4.23333 -4.23334 -4.23333 -4.23333 -4.23334 -4.23333 -4.23333 z m 50.8,4.23333 v 4.23334 h 4.23334 v -4.23334 z m 4.23334,4.23334 v 4.23333 4.23333 4.23334 4.23333 4.23333 h -4.23334 v 4.23334 h -4.23333 -4.23333 -4.23334 -4.23333 -4.23333 -4.23334 -4.23333 -4.23333 -4.23334 -4.23333 -4.23333 -4.23334 v -4.23334 h -4.23333 v -4.23333 -4.23333 -4.23334 -4.23333 -4.23333 h -4.23333 v 4.23333 4.23333 4.23334 4.23333 4.23333 4.23334 4.23333 4.23333 4.23334 4.23333 4.23333 h 4.23333 v -4.23333 -4.23333 -4.23334 -4.23333 h 4.23333 4.23334 4.23333 4.23333 4.23334 4.23333 4.23333 4.23334 4.23333 4.23333 4.23334 4.23333 4.23333 4.23334 v 4.23333 4.23334 4.23333 4.23333 h 4.23333 v -4.23333 -4.23333 -4.23334 -4.23333 -4.23333 -4.23334 -4.23333 -4.23333 -4.23334 -4.23333 -4.23333 z m -59.26667,0 h 4.23333 v -4.23334 h -4.23333 z m -4.23333,46.56718 v 4.23334 h 4.23333 v -4.23334 z m 4.23333,4.23334 v 4.23333 h 4.23333 v 4.23282 h 4.23334 4.23333 4.23333 4.23334 4.23333 4.23333 4.23334 4.23333 4.23333 4.23334 4.23333 4.23333 v -4.23282 h 4.23334 v -4.23333 h -4.23334 v 4.23281 h -4.23333 -4.23333 -4.23334 -4.23333 -4.23333 -4.23334 -4.23333 -4.23333 -4.23334 -4.23333 -4.23333 -4.23334 v -4.23281 z m 59.26667,0 h 4.23333 v -4.23334 h -4.23333 z" /><path
         id="path961"
         style="fill:#95d836;fill-opacity:1;stroke-width:0.870134;stroke-linecap:round;stroke-linejoin:round"
         d="m -170.55916,184.08906 v 4.23334 h -4.23333 v 4.23333 4.23333 4.23334 h 4.23333 v -4.23334 -4.23333 h 4.23334 v 4.23333 4.23334 h 4.23333 4.23333 4.23334 v -4.23334 -4.23333 -4.23333 h 4.23333 4.23333 4.23334 4.23333 v 4.23333 h 4.23333 v -4.23333 h 4.23334 v 4.23333 h 4.23333 v 4.23333 h 4.23333 v 4.23334 h 4.23334 v -4.23334 -4.23333 -4.23333 h -4.23334 v -4.23334 h -4.23333 -4.23333 -4.23334 -4.23333 -4.23333 -4.23334 -4.23333 -4.23333 -4.23334 -4.23333 -4.23333 z m 21.16667,8.46667 v 4.23333 h 4.23333 v -4.23333 z" /><path
         id="path962"
         style="fill:#4dbd27;fill-opacity:1;stroke-width:0.870134;stroke-linecap:round;stroke-linejoin:round"
         d="m -153.62582,188.3224 v 4.23333 4.23333 4.23334 h -4.23334 -4.23333 -4.23333 v -4.23334 -4.23333 h -4.23334 v 4.23333 4.23334 4.23333 h 4.23334 v 4.23333 h 4.23333 4.23333 4.23334 v -4.23333 h 4.23333 v 4.23333 h 4.23333 4.23334 4.23333 4.23333 4.23334 4.23333 v -4.23333 h 4.23333 v -4.23333 -4.23334 h -4.23333 v -4.23333 h -4.23333 v -4.23333 h -4.23334 v 4.23333 h -4.23333 v -4.23333 h -4.23333 -4.23334 -4.23333 z m 4.23333,4.23333 h 4.23333 v 4.23333 h -4.23333 z m 8.46667,4.23333 h 4.23333 4.23333 v 4.23334 4.23333 h -4.23333 -4.23333 v -4.23333 z" /><path
         id="path963"
         style="fill:#0a7030;fill-opacity:1;stroke-width:0.870134;stroke-linecap:round;stroke-linejoin:round"
         d="m -140.92581,196.78906 v 4.23334 4.23333 h 4.23333 4.23333 v -4.23333 -4.23334 h -4.23333 z m -33.86667,4.23334 v 4.23333 4.23333 h 4.23333 v 4.23334 h 4.23334 4.23333 4.23333 4.23334 4.23333 4.23333 4.23334 4.23333 4.23333 4.23334 4.23333 4.23333 v -4.23334 h 4.23334 v -4.23333 -4.23333 h -4.23334 v 4.23333 h -4.23333 v 4.23333 h -4.23333 -4.23334 -4.23333 -4.23333 -4.23334 -4.23333 v -4.23333 h -4.23333 v 4.23333 h -4.23334 -4.23333 -4.23333 v -4.23333 h -4.23334 v -4.23333 z" /><path
         id="path964"
         style="fill:#b66b3a;fill-opacity:1;stroke-width:0.870134;stroke-linecap:round;stroke-linejoin:round"
         d="m -174.79248,217.95573 v 4.23333 h 4.23333 v -4.23333 z m 55.03333,0 v 4.23333 h 4.23334 v -4.23333 z" /><path
         id="path965"
         style="fill:#67332d;fill-opacity:1;stroke-width:0.870134;stroke-linecap:round;stroke-linejoin:round"
         d="m -170.55915,217.95573 v 4.23333 h 4.23334 4.23333 4.23332 4.23334 4.23333 4.23333 4.23334 4.23333 4.23333 4.23334 4.23333 4.23333 v -4.23333 h -4.23333 -4.23333 -4.23334 -4.23333 -4.23333 -4.23334 -4.23333 -4.23333 -4.23334 -4.23332 -4.23333 z m 29.63334,8.46719 v 4.23334 4.23332 h 4.23333 4.23333 v -4.23332 -4.23334 h -4.23333 z m -21.16667,4.23282 v 4.23333 h 4.23332 4.23334 v -4.23333 h -4.23334 z m 33.86667,5.2e-4 v 4.23332 h 4.23332 v -4.23332 z m -46.56668,4.23332 v 4.23334 h 4.23334 v -4.23334 z m 4.23334,4.23334 v 4.23333 h 4.23334 4.23333 4.23332 4.23334 4.23333 4.23333 4.23334 4.23333 4.23333 4.23334 4.23333 4.23333 v -4.23333 h -4.23333 -4.23333 -4.23334 -4.23333 -4.23333 -4.23334 -4.23333 -4.23333 v -4.23334 h -4.23334 -4.23332 v 4.23334 h -4.23333 z m 50.8,0 h 4.23334 v -4.23334 h -4.23334 z" /><path
         id="path966"
         style="fill:#d89e58;fill-opacity:1;stroke-width:0.870134;stroke-linecap:round;stroke-linejoin:round"
         d="m -174.79248,222.18906 v 4.23334 4.23333 4.23333 h 4.23333 v -4.23333 -4.23333 -4.23334 z m 8.46667,0 v 4.23334 h 4.23333 v -4.23334 z m 42.33333,0 v 4.23334 h 4.23333 v 4.23333 4.23333 h 4.23334 v -4.23333 -4.23333 -4.23334 h -4.23334 z" /></g><g
       id="g973"
       transform="matrix(0.31415293,0,0,0.31415293,244.31294,-0.42868869)"><rect
         style="fill:#b66b3a;fill-opacity:1;stroke-width:2.64583;stroke-linecap:round;stroke-linejoin:round"
         id="rect966"
         width="50.800049"
         height="16.93335"
         x="-170.5592"
         y="222.18932" /><path
         id="path967"
         style="fill:#000000;stroke-width:0.870134;stroke-linecap:round;stroke-linejoin:round"
         d="m -170.55916,179.85573 v 4.23333 h 4.23334 4.23333 4.23333 4.23334 4.23333 4.23333 4.23334 4.23333 4.23333 4.23334 4.23333 4.23333 v -4.23333 h -4.23333 -4.23333 -4.23334 -4.23333 -4.23333 -4.23334 -4.23333 -4.23333 -4.23334 -4.23333 -4.23333 z m 50.8,4.23333 v 4.23334 h 4.23334 v -4.23334 z m 4.23334,4.23334 v 4.23333 4.23333 4.23334 4.23333 4.23333 h -4.23334 v 4.23334 h -4.23333 -4.23333 -4.23334 -4.23333 -4.23333 -4.23334 -4.23333 -4.23333 -4.23334 -4.23333 -4.23333 -4.23334 v -4.23334 h -4.23333 v -4.23333 -4.23333 -4.23334 -4.23333 -4.23333 h -4.23333 v 4.23333 4.23333 4.23334 4.23333 4.23333 4.23334 4.23333 4.23333 4.23334 4.23333 4.23333 h 4.23333 v -4.23333 -4.23333 -4.23334 -4.23333 h 4.23333 4.23334 4.23333 4.23333 4.23334 4.23333 4.23333 4.23334 4.23333 4.23333 4.23334 4.23333 4.23333 4.23334 v 4.23333 4.23334 4.23333 4.23333 h 4.23333 v -4.23333 -4.23333 -4.23334 -4.23333 -4.23333 -4.23334 -4.23333 -4.23333 -4.23334 -4.23333 -4.23333 z m -59.26667,0 h 4.23333 v -4.23334 h -4.23333 z m -4.23333,46.56718 v 4.23334 h 4.23333 v -4.23334 z m 4.23333,4.23334 v 4.23333 h 4.23333 v 4.23282 h 4.23334 4.23333 4.23333 4.23334 4.23333 4.23333 4.23334 4.23333 4.23333 4.23334 4.23333 4.23333 v -4.23282 h 4.23334 v -4.23333 h -4.23334 v 4.23281 h -4.23333 -4.23333 -4.23334 -4.23333 -4.23333 -4.23334 -4.23333 -4.23333 -4.23334 -4.23333 -4.23333 -4.23334 v -4.23281 z m 59.26667,0 h 4.23333 v -4.23334 h -4.23333 z" /><path
         id="path968"
         style="fill:#95d836;fill-opacity:1;stroke-width:0.870134;stroke-linecap:round;stroke-linejoin:round"
         d="m -170.55916,184.08906 v 4.23334 h -4.23333 v 4.23333 4.23333 4.23334 h 4.23333 v -4.23334 -4.23333 h 4.23334 v 4.23333 4.23334 h 4.23333 4.23333 4.23334 v -4.23334 -4.23333 -4.23333 h 4.23333 4.23333 4.23334 4.23333 v 4.23333 h 4.23333 v -4.23333 h 4.23334 v 4.23333 h 4.23333 v 4.23333 h 4.23333 v 4.23334 h 4.23334 v -4.23334 -4.23333 -4.23333 h -4.23334 v -4.23334 h -4.23333 -4.23333 -4.23334 -4.23333 -4.23333 -4.23334 -4.23333 -4.23333 -4.23334 -4.23333 -4.23333 z m 21.16667,8.46667 v 4.23333 h 4.23333 v -4.23333 z" /><path
         id="path969"
         style="fill:#4dbd27;fill-opacity:1;stroke-width:0.870134;stroke-linecap:round;stroke-linejoin:round"
         d="m -153.62582,188.3224 v 4.23333 4.23333 4.23334 h -4.23334 -4.23333 -4.23333 v -4.23334 -4.23333 h -4.23334 v 4.23333 4.23334 4.23333 h 4.23334 v 4.23333 h 4.23333 4.23333 4.23334 v -4.23333 h 4.23333 v 4.23333 h 4.23333 4.23334 4.23333 4.23333 4.23334 4.23333 v -4.23333 h 4.23333 v -4.23333 -4.23334 h -4.23333 v -4.23333 h -4.23333 v -4.23333 h -4.23334 v 4.23333 h -4.23333 v -4.23333 h -4.23333 -4.23334 -4.23333 z m 4.23333,4.23333 h 4.23333 v 4.23333 h -4.23333 z m 8.46667,4.23333 h 4.23333 4.23333 v 4.23334 4.23333 h -4.23333 -4.23333 v -4.23333 z" /><path
         id="path970"
         style="fill:#0a7030;fill-opacity:1;stroke-width:0.870134;stroke-linecap:round;stroke-linejoin:round"
         d="m -140.92581,196.78906 v 4.23334 4.23333 h 4.23333 4.23333 v -4.23333 -4.23334 h -4.23333 z m -33.86667,4.23334 v 4.23333 4.23333 h 4.23333 v 4.23334 h 4.23334 4.23333 4.23333 4.23334 4.23333 4.23333 4.23334 4.23333 4.23333 4.23334 4.23333 4.23333 v -4.23334 h 4.23334 v -4.23333 -4.23333 h -4.23334 v 4.23333 h -4.23333 v 4.23333 h -4.23333 -4.23334 -4.23333 -4.23333 -4.23334 -4.23333 v -4.23333 h -4.23333 v 4.23333 h -4.23334 -4.23333 -4.23333 v -4.23333 h -4.23334 v -4.23333 z" /><path
         id="path971"
         style="fill:#b66b3a;fill-opacity:1;stroke-width:0.870134;stroke-linecap:round;stroke-linejoin:round"
         d="m -174.79248,217.95573 v 4.23333 h 4.23333 v -4.23333 z m 55.03333,0 v 4.23333 h 4.23334 v -4.23333 z" /><path
         id="path972"
         style="fill:#67332d;fill-opacity:1;stroke-width:0.870134;stroke-linecap:round;stroke-linejoin:round"
         d="m -170.55915,217.95573 v 4.23333 h 4.23334 4.23333 4.23332 4.23334 4.23333 4.23333 4.23334 4.23333 4.23333 4.23334 4.23333 4.23333 v -4.23333 h -4.23333 -4.23333 -4.23334 -4.23333 -4.23333 -4.23334 -4.23333 -4.23333 -4.23334 -4.23332 -4.23333 z m 29.63334,8.46719 v 4.23334 4.23332 h 4.23333 4.23333 v -4.23332 -4.23334 h -4.23333 z m -21.16667,4.23282 v 4.23333 h 4.23332 4.23334 v -4.23333 h -4.23334 z m 33.86667,5.2e-4 v 4.23332 h 4.23332 v -4.23332 z m -46.56668,4.23332 v 4.23334 h 4.23334 v -4.23334 z m 4.23334,4.23334 v 4.23333 h 4.23334 4.23333 4.23332 4.23334 4.23333 4.23333 4.23334 4.23333 4.23333 4.23334 4.23333 4.23333 v -4.23333 h -4.23333 -4.23333 -4.23334 -4.23333 -4.23333 -4.23334 -4.23333 -4.23333 v -4.23334 h -4.23334 -4.23332 v 4.23334 h -4.23333 z m 50.8,0 h 4.23334 v -4.23334 h -4.23334 z" /><path
         id="path973"
         style="fill:#d89e58;fill-opacity:1;stroke-width:0.870134;stroke-linecap:round;stroke-linejoin:round"
         d="m -174.79248,222.18906 v 4.23334 4.23333 4.23333 h 4.23333 v -4.23333 -4.23333 -4.23334 z m 8.46667,0 v 4.23334 h 4.23333 v -4.23334 z m 42.33333,0 v 4.23334 h 4.23333 v 4.23333 4.23333 h 4.23334 v -4.23333 -4.23333 -4.23334 h -4.23334 z" /></g><g
       id="g981"
       transform="matrix(0.31415293,0,0,0.31415293,265.32998,-29.934196)"><path
         id="path978"
         style="fill:#000000;stroke-width:0.870134;stroke-linecap:round;stroke-linejoin:round"
         d="m -169.72649,273.77657 v 4.23334 h 4.23333 4.23334 4.23333 4.23333 4.23334 4.23333 4.23333 v 4.23333 h 4.23334 v 4.23333 4.23334 h -4.23334 v 4.23333 4.23333 h -4.23333 v 4.23334 h -4.23333 -4.23334 -4.23333 -4.23333 -4.23334 -4.23333 v -4.23334 h -4.23333 v -4.23333 -4.23333 -4.23334 -4.23333 h -4.23334 v 4.23333 4.23334 4.23333 4.23333 4.23334 4.23333 4.23333 4.23334 4.23333 4.23334 4.23333 4.23333 4.23334 h 4.23334 v -4.23334 -4.23333 -4.23333 -4.23334 -4.23333 -4.23334 h 4.23333 v -4.23333 h 4.23333 4.23334 4.23333 v 4.23333 h 4.23333 v 4.23334 4.23333 4.23334 4.23333 4.23333 h -4.23333 v 4.23334 h -4.23333 -4.23334 -4.23333 -4.23333 v 4.23333 h 4.23333 4.23333 4.23334 4.23333 4.23333 4.23334 4.23333 4.23333 4.23334 4.23333 4.23333 4.23334 4.23333 v -4.23333 h -4.23333 -4.23334 -4.23333 -4.23333 -4.23334 -4.23333 -4.23333 v -4.23334 -4.23333 -4.23333 -4.23334 -4.23333 -4.23334 h 4.23333 v -4.23333 h 4.23333 v -4.23333 h 4.23334 v -4.23334 h 4.23333 4.23333 4.23334 4.23333 4.23333 v 4.23334 4.23333 4.23333 4.23334 4.23333 4.23334 4.23333 4.23333 h 4.23334 v -4.23333 -4.23333 -4.23334 -4.23333 -4.23334 -4.23333 -4.23333 -4.23334 -4.23333 -4.23333 -4.23334 -4.23333 -4.23333 h -4.23334 v 4.23333 4.23333 4.23334 h -4.23333 v 4.23333 h -4.23333 -4.23334 -4.23333 v -4.23333 -4.23334 -4.23333 h 4.23333 v -4.23333 h 4.23334 4.23333 4.23333 v -4.23334 h -4.23333 -4.23333 -4.23334 -4.23333 -4.23333 -4.23334 -4.23333 -4.23333 -4.23334 -4.23333 -4.23333 -4.23334 z m 55.03333,59.26667 h -4.23333 v 4.23334 h 4.23333 z m -59.26666,-50.8 h 4.23333 v -4.23333 h -4.23333 z" /><path
         id="path979"
         style="fill:#d89e58;fill-opacity:1;stroke-width:0.870134;stroke-linecap:round;stroke-linejoin:round"
         d="m -169.72649,278.00991 v 4.23333 h 4.23333 4.23334 v 4.23333 h 4.23333 v -4.23333 h 4.23333 4.23334 4.23333 4.23333 v -4.23333 h -4.23333 -4.23333 -4.23334 -4.23333 -4.23333 -4.23334 z m 29.63333,4.23333 v 4.23333 h 4.23334 v -4.23333 z m -29.63333,0 h -4.23333 v 4.23333 4.23334 4.23333 4.23333 h 4.23333 v -4.23333 -4.23333 -4.23334 z m 42.33333,-4.23333 v 4.23333 h 4.23334 4.23333 v 4.23333 h 4.23333 v -4.23333 -4.23333 h -4.23333 -4.23333 z m 0,4.23333 h -4.23333 v 4.23333 4.23334 4.23333 h 4.23333 v -4.23333 -4.23334 z m -8.46666,16.93333 v 4.23334 h 4.23333 4.23333 v 4.23333 h 4.23334 v -4.23333 h 4.23333 v 4.23333 h 4.23333 v -4.23333 -4.23334 h -4.23333 -4.23333 -4.23334 -4.23333 z m 0,4.23334 h -4.23334 v 4.23333 h 4.23334 z m 0,4.23333 v 4.23333 h 4.23333 v -4.23333 z m -4.23334,0 h -4.23333 v 4.23333 h 4.23333 z m -4.23333,4.23333 h -4.23333 v 4.23334 4.23333 4.23334 4.23333 4.23333 h 4.23333 v -4.23333 -4.23333 h 4.23333 4.23334 v -4.23334 -4.23333 h -4.23334 -4.23333 z m -25.4,-4.23333 v 4.23333 h 4.23333 4.23334 4.23333 v -4.23333 h -4.23333 -4.23334 z m 12.7,4.23333 v 4.23334 h 4.23333 v -4.23334 z m -12.7,0 h -4.23333 v 4.23334 4.23333 4.23334 4.23333 4.23333 4.23334 h 4.23333 v -4.23334 -4.23333 h 4.23333 4.23334 v -4.23333 -4.23334 h -4.23334 -4.23333 v -4.23333 z" /><path
         id="path980"
         style="fill:#67332d;fill-opacity:1;stroke-width:0.870134;stroke-linecap:round;stroke-linejoin:round"
         d="m -152.79316,286.47657 v 4.23334 h 4.23334 v -4.23334 z m 12.7,0 v 4.23334 h 4.23334 v -4.23334 z m 0,4.23334 h -4.23333 v 4.23333 h -4.23333 v 4.23333 h -4.23334 -4.23333 v -4.23333 -4.23333 h -4.23333 -4.23334 v 4.23333 4.23333 h -4.23333 v 4.23334 h 4.23333 4.23334 4.23333 4.23333 4.23334 4.23333 v -4.23334 h 4.23333 v -4.23333 z m 16.93334,-4.23334 v 4.23334 h -4.23334 v 4.23333 h 4.23334 4.23333 v -4.23333 h 4.23333 v -4.23334 h -4.23333 z m 4.23333,21.16667 v 4.23333 h -4.23333 -4.23334 v 4.23334 4.23333 h 4.23334 4.23333 v 4.23334 h -4.23333 v 4.23333 h -4.23334 v 4.23333 h -4.23333 -4.23333 -4.23334 -4.23333 -4.23333 v 4.23334 h 4.23333 4.23333 4.23334 4.23333 4.23333 4.23334 4.23333 v -4.23334 h 4.23333 v -4.23333 -4.23333 -4.23334 -4.23333 -4.23334 -4.23333 z m -8.46667,21.16667 v -4.23333 h -4.23333 v 4.23333 z m -38.1,-16.93334 v 4.23334 h 4.23334 v -4.23334 z m 8.46667,4.23334 v 4.23333 4.23334 4.23333 h -4.23333 v 4.23333 h -4.23334 -4.23333 v 4.23334 h 4.23333 4.23334 4.23333 v -4.23334 h 4.23333 v -4.23333 -4.23333 -4.23334 -4.23333 z" /><path
         id="path981"
         style="fill:#b66b3a;fill-opacity:1;stroke-width:0.870134;stroke-linecap:round;stroke-linejoin:round"
         d="m -169.72649,282.24324 v 4.23333 4.23334 4.23333 4.23333 h 4.23333 v -4.23333 -4.23333 h 4.23334 4.23333 v 4.23333 4.23333 h 4.23333 4.23334 v -4.23333 h 4.23333 v -4.23333 h 4.23333 v -4.23334 -4.23333 h -4.23333 -4.23333 -4.23334 -4.23333 v 4.23333 h -4.23333 v -4.23333 h -4.23334 z m 42.33333,0 v 4.23333 4.23334 h 4.23334 v -4.23334 h 4.23333 v -4.23333 h -4.23333 z m -25.4,4.23333 h 4.23334 v 4.23334 h -4.23334 z m 16.93334,16.93334 v 4.23333 h 4.23333 v 4.23333 h -4.23333 v -4.23333 h -4.23334 v 4.23333 h -4.23333 v 4.23334 h 4.23333 4.23334 v 4.23333 4.23334 h -4.23334 -4.23333 v 4.23333 4.23333 h 4.23333 4.23334 4.23333 4.23333 v -4.23333 h -4.23333 v -4.23333 h 4.23333 v 4.23333 h 4.23334 v -4.23333 h 4.23333 v -4.23334 h -4.23333 -4.23334 v -4.23333 -4.23334 h 4.23334 4.23333 v -4.23333 -4.23333 h -4.23333 v 4.23333 h -4.23334 v -4.23333 h -4.23333 z m -33.86667,8.46666 v 4.23334 4.23333 h 4.23333 4.23334 v 4.23334 4.23333 h 4.23333 v -4.23333 -4.23334 -4.23333 -4.23334 h -4.23333 v 4.23334 h -4.23334 v -4.23334 z m 8.46667,16.93334 h -4.23334 -4.23333 v 4.23333 h 4.23333 4.23334 z" /></g><g
       id="g982"
       transform="matrix(0.30694077,0,0,0.30694077,102.9931,43.981106)"><path
         id="rect72"
         style="fill:#d2202c;stroke-width:3.32249;stroke-linecap:round;stroke-linejoin:round"
         d="m -251.51125,-54.538934 -5.1e-4,5.592903 h 4.23281 l 5.1e-4,-5.592903 z m 4.23333,0 -5.1e-4,5.592903 h 4.23333 3.87515 l 5.1e-4,3.5591 h 4.59152 v 5.139335 h 4.23333 4.23334 v -5.139335 h 4.23333 v -4.233334 h -4.23333 v -4.918669 h -4.23334 -4.23333 -4.23333 -4.23334 z"
         sodipodi:nodetypes="cccccccccccccccccccccccc" /><path
         id="rect100"
         style="fill:#7c776f;stroke-width:3.32249;stroke-linecap:round;stroke-linejoin:round"
         d="m -230.34459,-41.153598 v 4.233334 h 4.23334 4.23333 4.23333 4.23334 4.23333 v -4.233334 h -4.23333 -4.23334 -4.23333 -4.23333 z" /><path
         id="rect101"
         style="fill:#eadfd1;stroke-width:3.32249;stroke-linecap:round;stroke-linejoin:round"
         d="m -243.04459,-41.153598 v 4.233334 4.233333 h 4.23334 v -4.233333 h 4.23333 4.23333 v -4.233334 h -4.23333 -4.23333 z" /><path
         id="rect109"
         style="fill:#7c776f;stroke-width:3.32249;stroke-linecap:round;stroke-linejoin:round"
         d="m -243.04459,-32.686931 v 4.233333 4.233334 4.233333 4.233333 4.233334 h 4.23334 v -4.233334 -4.233333 -4.233333 -4.233334 -4.233333 z" /><path
         id="rect114"
         style="fill:#b3aaa1;stroke-width:3.32249;stroke-linecap:round;stroke-linejoin:round"
         d="m -217.6448,9.646402 h 4.23333 v 4.233333 h -4.23333 z" /><path
         id="rect122"
         style="fill:#7c776f;stroke-width:3.32249;stroke-linecap:round;stroke-linejoin:round"
         d="m -226.11125,1.179736 v 4.233333 4.233334 h 4.23333 4.23333 4.23334 4.23333 V 5.413069 1.179736 h -4.23333 -4.23334 -4.23333 z" /><path
         id="rect130"
         style="fill:#eba724;stroke-width:3.32249;stroke-linecap:round;stroke-linejoin:round"
         d="m -234.57792,-7.286931 v 4.233334 4.233333 4.233333 4.233334 h -4.23333 -4.23334 -4.23333 v 4.233333 h 4.23333 4.23334 4.23333 4.23333 V 9.646403 5.413069 1.179736 -3.053597 h 4.23334 4.23333 4.23333 4.23334 4.23333 v -4.233334 h -4.23333 -4.23334 -4.23333 -4.23333 -4.23334 z" /><path
         id="rect143"
         style="fill:#0a7030;stroke-width:3.32249;stroke-linecap:round;stroke-linejoin:round"
         d="m -247.27792,-7.286931 v 4.233334 4.233333 4.233333 4.233334 h 4.23333 4.23334 4.23333 V 5.413069 1.179736 -3.053597 -7.286931 h -4.23333 -4.23334 z" /><path
         id="rect155"
         style="fill:#eadfd1;stroke-width:3.32249;stroke-linecap:round;stroke-linejoin:round"
         d="m -234.57792,-32.686931 v 4.233333 4.233334 h 4.23333 v -4.233334 h 4.23334 4.23333 v -4.233333 h -4.23333 -4.23334 z" /><path
         id="rect169"
         style="fill:#7c776f;stroke-width:3.32249;stroke-linecap:round;stroke-linejoin:round"
         d="m -221.87792,-32.686931 v 4.233333 h 4.23333 v 4.233334 4.233333 4.233333 h -4.23333 v -4.233333 -4.233333 -4.233334 h -4.23333 v 4.233334 4.233333 4.233333 h -4.23334 v -4.233333 -4.233333 h -4.23333 v 4.233333 4.233333 4.233334 h 4.23333 4.23334 4.23333 4.23333 4.23334 4.23333 4.23333 v -4.233334 -4.233333 -4.233333 -4.233334 -4.233333 h -4.23333 -4.23333 -4.23334 z m 8.46667,4.233333 h 4.23333 v 4.233334 4.233333 4.233333 h -4.23333 v -4.233333 -4.233333 z" /><path
         id="rect2"
         style="stroke-width:3.32249;stroke-linecap:round;stroke-linejoin:round"
         d="m -255.7451,-58.086932 v 4.233334 4.233333 4.233334 h 4.23333 v -4.233334 -4.233333 -4.233334 z m 4.23385,0 v 4.233334 h 4.23281 v -4.233334 z m 4.23333,0 v 4.233334 h 4.23333 4.23334 4.23333 4.23333 4.23334 v 4.233333 h 4.23333 v 4.233334 h -4.23333 v 4.233333 h 4.23333 4.23333 4.23334 4.23333 v 4.233334 h -4.23333 -4.23334 -4.23333 -4.23333 -4.23334 -4.23333 -4.23333 v 4.233333 4.233333 4.233334 4.233333 4.233333 4.233334 h -4.23334 v -4.233334 -4.233333 -4.233333 -4.233334 -4.233333 -4.233333 -4.233334 h 4.23334 4.23333 v -4.233333 h -4.23333 -5.2e-4 v -4.233334 h -4.23333 -4.23334 -4.23281 v 4.233334 h 4.23281 5.2e-4 v 4.233333 4.233334 4.233333 4.233333 4.233334 4.233333 4.233333 4.233334 h -4.23333 v 4.233333 4.233334 4.233333 4.233333 4.233334 4.233333 4.233333 h 4.23333 4.23333 4.23334 4.23333 4.23333 4.23334 v -4.233333 h 4.23333 v 4.233333 h 4.23333 4.23334 4.23333 v -4.233333 h 4.23333 V 9.646403 5.413069 1.179736 -3.053597 -7.286931 h 4.23334 v -4.233333 -4.233334 -4.233333 -4.233333 -4.233334 -4.233333 -4.233333 h -4.23334 v -4.233334 -4.233333 h -4.23333 -4.23333 -4.23334 v -4.233334 -4.233333 h -4.23333 v -4.233334 h -4.23333 -4.23334 -4.23333 -4.23333 -4.23334 z m 12.7,25.400001 h 4.23333 4.23334 4.23333 4.23333 4.23334 4.23333 4.23333 v 4.233333 4.233334 4.233333 4.233333 4.233334 h -4.23333 -4.23333 -4.23334 -4.23333 -4.23333 -4.23334 -4.23333 v -4.233334 -4.233333 -4.233333 -4.233334 z m 4.23333,4.233333 v 4.233334 4.233333 4.233333 h 4.23334 v -4.233333 -4.233333 -4.233334 z m 8.46667,0 v 4.233334 4.233333 4.233333 h 4.23333 v -4.233333 -4.233333 -4.233334 z m 8.46667,0 v 4.233334 4.233333 4.233333 h 4.23333 v -4.233333 -4.233333 -4.233334 z m -33.86667,21.166667 h 4.23333 4.23334 4.23333 4.23333 4.23334 4.23333 4.23333 4.23334 4.23333 v 4.233334 h -4.23333 -4.23334 -4.23333 -4.23333 -4.23334 v 4.233333 4.233333 4.233334 4.233333 h -4.23333 -4.23333 -4.23334 -4.23333 V 9.646403 5.413069 1.179736 -3.053597 Z m 21.16667,8.466667 h 4.23333 4.23333 4.23334 4.23333 v 4.233333 4.233334 h -4.23333 v 4.233333 h -4.23334 V 9.646403 h -4.23333 -4.23333 V 5.413069 Z" /></g><circle
       style="fill:#ffffff;fill-opacity:1;stroke-width:2.64583;stroke-linecap:round;stroke-linejoin:round;opacity:0.3"
       id="path995"
       cx="32.940567"
       cy="37.846302"
       r="17.024405" /><g
       id="g983"
       transform="matrix(0.28721331,-0.10149363,0.10149363,0.28721331,116.41673,9.4228929)"><path
         id="rect190"
         style="fill:#000000;fill-opacity:1;stroke:none;stroke-width:1.17468;stroke-linecap:round;stroke-linejoin:round"
         d="m -166.09383,-53.596796 v 4.233334 4.233333 4.233334 4.233332 4.23334 4.23333 4.23333 4.23334 h 4.23333 v 4.23333 h -4.23333 v 4.23333 h -4.23333 v 4.23334 h -4.23334 v 4.23333 4.23333 4.23334 4.23333 h 4.23334 4.23333 4.23333 4.23334 4.23333 4.23333 4.23334 4.23333 4.23333 4.23334 4.23333 4.23333 4.23334 4.23333 v -4.23333 -4.23334 -4.23333 -4.23333 h -4.23333 v -4.23334 h -4.23334 v -4.23333 h -4.23333 v -4.23333 h 4.23333 v -4.23334 -4.23333 -4.23333 -4.23334 -4.233332 -4.233334 -4.233333 -4.233334 h -4.23333 -4.23333 -4.23334 -4.23333 -4.23333 -4.23334 -4.23333 -4.23333 -4.23334 z m 4.23333,4.233334 h 4.23334 4.23333 4.23333 4.23334 4.23333 4.23333 4.23334 4.23333 v 4.233333 4.233334 4.233332 4.23334 4.23333 4.23333 h -4.23333 v -4.23333 h -4.23334 v 4.23333 4.23334 h -4.23333 v -4.23334 -4.23333 h -4.23333 v 4.23333 h -4.23334 v -4.23333 h -4.23333 v 4.23333 4.23334 h -4.23333 v -4.23334 -4.23333 h -4.23334 v -4.23333 h 4.23334 v -4.23334 -4.233332 h -4.23334 v -4.233334 z m 16.93334,8.466667 v 4.233332 4.23334 h 4.23333 4.23333 v -4.23334 -4.233332 h -4.23333 z m -21.16667,33.866672 h 4.23333 v 4.23333 4.23333 h 4.23334 v -4.23333 h 4.23333 v 4.23333 h 4.23333 v -4.23333 -4.23333 h 4.23334 v 4.23333 4.23333 h 4.23333 v -4.23333 h 4.23333 v 4.23333 h 4.23334 v -4.23333 h 4.23333 v -4.23333 h 4.23333 v 4.23333 h 4.23334 v 4.23333 4.23334 h -4.23334 -4.23333 -4.23333 -4.23334 -4.23333 -4.23333 -4.23334 -4.23333 -4.23333 -4.23334 -4.23333 -4.23333 v -4.23334 -4.23333 h 4.23333 z" /><path
         id="rect220"
         style="fill:#007ec7;fill-opacity:1;stroke:none;stroke-width:1.17468;stroke-linecap:round;stroke-linejoin:round"
         d="m -161.8605,-49.363462 v 4.233333 4.233334 h 4.23334 v -4.233334 h 4.23333 4.23333 4.23334 4.23333 v -4.233333 h -4.23333 -4.23334 -4.23333 -4.23333 z" /><path
         id="rect216"
         style="fill:#ffe1ff;fill-opacity:1;stroke:none;stroke-width:1.17468;stroke-linecap:round;stroke-linejoin:round"
         d="m -140.69383,-49.363462 v 4.233333 h 4.23333 4.23334 v 4.233334 h 4.23333 v -4.233334 -4.233333 h -4.23333 -4.23334 z" /><rect
         style="fill:#007ec7;fill-opacity:1;stroke:none;stroke-width:1.17468;stroke-linecap:round;stroke-linejoin:round"
         id="rect228"
         width="4.2333336"
         height="4.2333336"
         x="-161.86063"
         y="-32.43029" /><path
         id="rect231"
         style="fill:#72b2ff;fill-opacity:1;stroke:none;stroke-width:1.17468;stroke-linecap:round;stroke-linejoin:round"
         d="m -157.62716,-45.130129 v 4.233334 4.233332 4.23334 4.23333 4.23333 4.23334 h 4.23333 v -4.23334 -4.23333 h 4.23333 v 4.23333 h 4.23334 v -4.23333 h 4.23333 v 4.23333 4.23334 h 4.23333 v -4.23334 -4.23333 h 4.23334 v -4.23333 -4.23334 -4.233332 -4.233334 h -4.23334 -4.23333 -4.23333 -4.23334 -4.23333 z m 12.7,4.233334 h 4.23333 4.23333 v 4.233332 4.23334 h -4.23333 -4.23333 v -4.23334 z" /><path
         id="rect269"
         style="fill:#007ec7;fill-opacity:1;stroke:none;stroke-width:1.17468;stroke-linecap:round;stroke-linejoin:round"
         d="m -132.22716,-40.896795 v 4.233332 4.23334 4.23333 4.23333 h 4.23333 v -4.23333 -4.23333 -4.23334 -4.233332 z" /><path
         id="rect303"
         style="fill:#005964;fill-opacity:1;stroke:none;stroke-width:1.17468;stroke-linecap:round;stroke-linejoin:round"
         d="m -166.09383,-7.030123 v 4.23333 h -4.23333 v 4.23333 4.23334 h 4.23333 4.23333 4.23334 4.23333 4.23333 4.23334 4.23333 4.23333 4.23334 4.23333 4.23333 4.23334 v -4.23334 -4.23333 h -4.23334 v -4.23333 h -4.23333 v 4.23333 4.23333 h -4.23333 -4.23334 -4.23333 -4.23333 -4.23334 -4.23333 -4.23333 -4.23334 v -4.23333 -4.23333 z" /><path
         id="rect308"
         style="fill:#007ec7;fill-opacity:1;stroke:none;stroke-width:1.17468;stroke-linecap:round;stroke-linejoin:round"
         d="m -149.1605,-7.030123 v 4.23333 4.23333 h 4.23334 v -4.23333 -4.23333 z" /><rect
         style="fill:#007ec7;fill-opacity:1;stroke:none;stroke-width:1.17468;stroke-linecap:round;stroke-linejoin:round"
         id="rect351"
         width="4.2333336"
         height="4.2333336"
         x="-2.7969341"
         y="127.99393"
         transform="rotate(90)" /><rect
         style="fill:#007ec7;fill-opacity:1;stroke:none;stroke-width:1.17468;stroke-linecap:round;stroke-linejoin:round"
         id="rect353"
         width="4.2333336"
         height="4.2333336"
         x="-2.7969341"
         y="136.4606"
         transform="rotate(90)" /><rect
         style="fill:#007ec7;fill-opacity:1;stroke:none;stroke-width:1.17468;stroke-linecap:round;stroke-linejoin:round"
         id="rect357"
         width="4.2333336"
         height="4.2333336"
         x="-2.7969341"
         y="153.39395"
         transform="rotate(90)" /></g><g
       id="g984"
       transform="matrix(-0.30461852,0,0,0.30461852,156.39884,53.056816)"><path
         id="path358"
         style="fill:#000000;fill-opacity:1;stroke:none;stroke-width:1.17468;stroke-linecap:round;stroke-linejoin:round"
         d="m -94.580533,-53.596796 v 4.233334 4.233333 4.233334 4.233332 4.23334 4.23333 4.23333 4.23334 h 4.23333 v 4.23333 h -4.23333 v 4.23333 h -4.23333 v 4.23334 h -4.233337 v 4.23333 4.23333 4.23334 4.23333 h 4.233337 4.23333 4.23333 4.23334 4.23333 4.23333 4.23334 4.23333 4.23333 4.23334 4.23333 4.23333 4.23334 4.23333 v -4.23333 -4.23334 -4.23333 -4.23333 h -4.23333 v -4.23334 h -4.23334 v -4.23333 h -4.23333 v -4.23333 h 4.23333 v -4.23334 -4.23333 -4.23333 -4.23334 -4.233332 -4.233334 -4.233333 -4.233334 h -4.23333 -4.23333 -4.23334 -4.23333 -4.23333 -4.23334 -4.23333 -4.23333 -4.23334 z m 4.23333,4.233334 h 4.23334 4.23333 4.23333 4.23334 4.23333 4.23333 4.23334 4.23333 v 4.233333 4.233334 4.233332 4.23334 4.23333 4.23333 h -4.23333 v -4.23333 h -4.23334 v 4.23333 4.23334 h -4.23333 v -4.23334 -4.23333 h -4.23333 v 4.23333 h -4.23334 v -4.23333 h -4.23333 v 4.23333 4.23334 h -4.23333 v -4.23334 -4.23333 h -4.23334 v -4.23333 h 4.23334 v -4.23334 -4.233332 h -4.23334 v -4.233334 z m 16.93334,8.466667 v 4.233332 4.23334 h 4.23333 4.23333 v -4.23334 -4.233332 h -4.23333 z m -21.16667,33.866672 h 4.23333 v 4.23333 4.23333 h 4.23334 v -4.23333 h 4.23333 v 4.23333 h 4.23333 v -4.23333 -4.23333 h 4.23334 v 4.23333 4.23333 h 4.23333 v -4.23333 h 4.23333 v 4.23333 h 4.23334 v -4.23333 h 4.23333 v -4.23333 h 4.23333 v 4.23333 h 4.23334 v 4.23333 4.23334 h -4.23334 -4.23333 -4.23333 -4.23334 -4.23333 -4.23333 -4.23334 -4.23333 -4.23333 -4.23334 -4.23333 -4.23333 v -4.23334 -4.23333 h 4.23333 z" /><path
         id="path359"
         style="fill:#6da200;fill-opacity:1;stroke:none;stroke-width:1.17468;stroke-linecap:round;stroke-linejoin:round"
         d="m -90.347203,-49.363462 v 4.233333 4.233334 h 4.23334 v -4.233334 h 4.23333 4.23333 4.23334 4.23333 v -4.233333 h -4.23333 -4.23334 -4.23333 -4.23333 z" /><path
         id="path360"
         style="fill:#f3f1e2;fill-opacity:1;stroke:none;stroke-width:1.17468;stroke-linecap:round;stroke-linejoin:round"
         d="m -69.180533,-49.363462 v 4.233333 h 4.23333 4.23334 v 4.233334 h 4.23333 v -4.233334 -4.233333 h -4.23333 -4.23334 z" /><rect
         style="fill:#6da200;fill-opacity:1;stroke:none;stroke-width:1.17468;stroke-linecap:round;stroke-linejoin:round"
         id="rect360"
         width="4.2333336"
         height="4.2333336"
         x="-90.347328"
         y="-32.43029" /><path
         id="path361"
         style="fill:#bad200;fill-opacity:1;stroke:none;stroke-width:1.17468;stroke-linecap:round;stroke-linejoin:round"
         d="m -86.113863,-45.130129 v 4.233334 4.233332 4.23334 4.23333 4.23333 4.23334 h 4.23333 v -4.23334 -4.23333 h 4.23333 v 4.23333 h 4.23334 v -4.23333 h 4.23333 v 4.23333 4.23334 h 4.23333 v -4.23334 -4.23333 h 4.23334 v -4.23333 -4.23334 -4.233332 -4.233334 h -4.23334 -4.23333 -4.23333 -4.23334 -4.23333 z m 12.7,4.233334 h 4.23333 4.23333 v 4.233332 4.23334 h -4.23333 -4.23333 v -4.23334 z" /><path
         id="path362"
         style="fill:#6da200;fill-opacity:1;stroke:none;stroke-width:1.17468;stroke-linecap:round;stroke-linejoin:round"
         d="m -60.713863,-40.896795 v 4.233332 4.23334 4.23333 4.23333 h 4.23333 v -4.23333 -4.23333 -4.23334 -4.233332 z" /><path
         id="path363"
         style="fill:#6da200;fill-opacity:1;stroke:none;stroke-width:1.17468;stroke-linecap:round;stroke-linejoin:round"
         d="m -94.580533,-7.030123 v 4.23333 h -4.23333 v 4.23333 4.23334 h 4.23333 4.23333 4.23334 4.23333 4.23333 4.23334 4.23333 4.23333 4.23334 4.23333 4.23333 4.23334 v -4.23334 -4.23333 h -4.23334 v -4.23333 h -4.23333 v 4.23333 4.23333 h -4.23333 -4.23334 -4.23333 -4.23333 -4.23334 -4.23333 -4.23333 -4.23334 v -4.23333 -4.23333 z" /><path
         id="path364"
         style="fill:#6da200;fill-opacity:1;stroke:none;stroke-width:1.17468;stroke-linecap:round;stroke-linejoin:round"
         d="m -77.647203,-7.030123 v 4.23333 4.23333 h 4.23334 v -4.23333 -4.23333 z" /><rect
         style="fill:#6da200;fill-opacity:1;stroke:none;stroke-width:1.17468;stroke-linecap:round;stroke-linejoin:round"
         id="rect364"
         width="4.2333336"
         height="4.2333336"
         x="-2.7969341"
         y="56.480629"
         transform="rotate(90)" /><rect
         style="fill:#6da200;fill-opacity:1;stroke:none;stroke-width:1.17468;stroke-linecap:round;stroke-linejoin:round"
         id="rect365"
         width="4.2333336"
         height="4.2333336"
         x="-2.7969341"
         y="64.947304"
         transform="rotate(90)" /><rect
         style="fill:#6da200;fill-opacity:1;stroke:none;stroke-width:1.17468;stroke-linecap:round;stroke-linejoin:round"
         id="rect366"
         width="4.2333336"
         height="4.2333336"
         x="-2.7969341"
         y="81.880653"
         transform="rotate(90)" /></g><g
       id="g1112"
       transform="translate(25.78267,0.16223365)"><path
         style="fill:#ffffff;fill-opacity:1;stroke-width:1.3835;stroke-linecap:round;stroke-linejoin:round"
         d="m 166.44269,42.24388 v 1.365818 h -1.36581 v 1.365821 1.365818 1.365818 1.365821 1.365818 h 1.36581 v 1.365821 1.365818 h 1.36582 v 1.365818 h 1.36582 v -1.365818 -1.365818 h -1.36582 v -1.365821 -1.365818 -1.365821 h 1.36582 1.36582 v 1.365821 h 1.36582 v -1.365821 -1.365818 h -1.36582 v -1.365818 h -1.36582 v -1.365821 h -1.36582 V 42.24388 Z"
         id="path1109" /><path
         id="path1110"
         style="fill:#ffe7c5;fill-opacity:1;stroke-width:1.3835;stroke-linecap:round;stroke-linejoin:round"
         d="m 169.17434,43.609685 v 1.365818 h 1.36582 v -1.365818 z m 1.36582,1.365818 v 1.365821 h 1.36582 v -1.365821 z m 1.36582,1.365821 v 1.365818 h 1.36582 v -1.365818 z" /><path
         id="path1111"
         style="fill:#3a2802;fill-opacity:1;stroke-width:1.3835;stroke-linecap:round;stroke-linejoin:round"
         d="m 173.2718,46.341321 v 1.365821 h 1.36582 v -1.365821 z m 0,1.365821 h -1.36582 v 1.365818 h 1.36582 z m 0,1.365818 v 1.365818 h 1.36582 V 49.07296 Z m -1.36582,0 h -1.36582 v 1.365818 h 1.36582 z" /></g><g
       id="g994"
       transform="matrix(-0.30694077,0,0,0.30694077,139.10912,50.513876)"><path
         id="path984"
         style="fill:#d2202c;stroke-width:3.32249;stroke-linecap:round;stroke-linejoin:round"
         d="m -251.51125,-54.538934 -5.1e-4,5.592903 h 4.23281 l 5.1e-4,-5.592903 z m 4.23333,0 -5.1e-4,5.592903 h 4.23333 3.87515 l 5.1e-4,3.5591 h 4.59152 v 5.139335 h 4.23333 4.23334 v -5.139335 h 4.23333 v -4.233334 h -4.23333 v -4.918669 h -4.23334 -4.23333 -4.23333 -4.23334 z"
         sodipodi:nodetypes="cccccccccccccccccccccccc" /><path
         id="path985"
         style="fill:#7c776f;stroke-width:3.32249;stroke-linecap:round;stroke-linejoin:round"
         d="m -230.34459,-41.153598 v 4.233334 h 4.23334 4.23333 4.23333 4.23334 4.23333 v -4.233334 h -4.23333 -4.23334 -4.23333 -4.23333 z" /><path
         id="path986"
         style="fill:#eadfd1;stroke-width:3.32249;stroke-linecap:round;stroke-linejoin:round"
         d="m -243.04459,-41.153598 v 4.233334 4.233333 h 4.23334 v -4.233333 h 4.23333 4.23333 v -4.233334 h -4.23333 -4.23333 z" /><path
         id="path987"
         style="fill:#7c776f;stroke-width:3.32249;stroke-linecap:round;stroke-linejoin:round"
         d="m -243.04459,-32.686931 v 4.233333 4.233334 4.233333 4.233333 4.233334 h 4.23334 v -4.233334 -4.233333 -4.233333 -4.233334 -4.233333 z" /><path
         id="path988"
         style="fill:#b3aaa1;stroke-width:3.32249;stroke-linecap:round;stroke-linejoin:round"
         d="m -217.6448,9.646402 h 4.23333 v 4.233333 h -4.23333 z" /><path
         id="path989"
         style="fill:#7c776f;stroke-width:3.32249;stroke-linecap:round;stroke-linejoin:round"
         d="m -226.11125,1.179736 v 4.233333 4.233334 h 4.23333 4.23333 4.23334 4.23333 V 5.413069 1.179736 h -4.23333 -4.23334 -4.23333 z" /><path
         id="path990"
         style="fill:#eba724;stroke-width:3.32249;stroke-linecap:round;stroke-linejoin:round"
         d="m -234.57792,-7.286931 v 4.233334 4.233333 4.233333 4.233334 h -4.23333 -4.23334 -4.23333 v 4.233333 h 4.23333 4.23334 4.23333 4.23333 V 9.646403 5.413069 1.179736 -3.053597 h 4.23334 4.23333 4.23333 4.23334 4.23333 v -4.233334 h -4.23333 -4.23334 -4.23333 -4.23333 -4.23334 z" /><path
         id="path991"
         style="fill:#0a7030;stroke-width:3.32249;stroke-linecap:round;stroke-linejoin:round"
         d="m -247.27792,-7.286931 v 4.233334 4.233333 4.233333 4.233334 h 4.23333 4.23334 4.23333 V 5.413069 1.179736 -3.053597 -7.286931 h -4.23333 -4.23334 z" /><path
         id="path992"
         style="fill:#eadfd1;stroke-width:3.32249;stroke-linecap:round;stroke-linejoin:round"
         d="m -234.57792,-32.686931 v 4.233333 4.233334 h 4.23333 v -4.233334 h 4.23334 4.23333 v -4.233333 h -4.23333 -4.23334 z" /><path
         id="path993"
         style="fill:#7c776f;stroke-width:3.32249;stroke-linecap:round;stroke-linejoin:round"
         d="m -221.87792,-32.686931 v 4.233333 h 4.23333 v 4.233334 4.233333 4.233333 h -4.23333 v -4.233333 -4.233333 -4.233334 h -4.23333 v 4.233334 4.233333 4.233333 h -4.23334 v -4.233333 -4.233333 h -4.23333 v 4.233333 4.233333 4.233334 h 4.23333 4.23334 4.23333 4.23333 4.23334 4.23333 4.23333 v -4.233334 -4.233333 -4.233333 -4.233334 -4.233333 h -4.23333 -4.23333 -4.23334 z m 8.46667,4.233333 h 4.23333 v 4.233334 4.233333 4.233333 h -4.23333 v -4.233333 -4.233333 z" /><path
         id="path994"
         style="stroke-width:3.32249;stroke-linecap:round;stroke-linejoin:round"
         d="m -255.7451,-58.086932 v 4.233334 4.233333 4.233334 h 4.23333 v -4.233334 -4.233333 -4.233334 z m 4.23385,0 v 4.233334 h 4.23281 v -4.233334 z m 4.23333,0 v 4.233334 h 4.23333 4.23334 4.23333 4.23333 4.23334 v 4.233333 h 4.23333 v 4.233334 h -4.23333 v 4.233333 h 4.23333 4.23333 4.23334 4.23333 v 4.233334 h -4.23333 -4.23334 -4.23333 -4.23333 -4.23334 -4.23333 -4.23333 v 4.233333 4.233333 4.233334 4.233333 4.233333 4.233334 h -4.23334 v -4.233334 -4.233333 -4.233333 -4.233334 -4.233333 -4.233333 -4.233334 h 4.23334 4.23333 v -4.233333 h -4.23333 -5.2e-4 v -4.233334 h -4.23333 -4.23334 -4.23281 v 4.233334 h 4.23281 5.2e-4 v 4.233333 4.233334 4.233333 4.233333 4.233334 4.233333 4.233333 4.233334 h -4.23333 v 4.233333 4.233334 4.233333 4.233333 4.233334 4.233333 4.233333 h 4.23333 4.23333 4.23334 4.23333 4.23333 4.23334 v -4.233333 h 4.23333 v 4.233333 h 4.23333 4.23334 4.23333 v -4.233333 h 4.23333 V 9.646403 5.413069 1.179736 -3.053597 -7.286931 h 4.23334 v -4.233333 -4.233334 -4.233333 -4.233333 -4.233334 -4.233333 -4.233333 h -4.23334 v -4.233334 -4.233333 h -4.23333 -4.23333 -4.23334 v -4.233334 -4.233333 h -4.23333 v -4.233334 h -4.23333 -4.23334 -4.23333 -4.23333 -4.23334 z m 12.7,25.400001 h 4.23333 4.23334 4.23333 4.23333 4.23334 4.23333 4.23333 v 4.233333 4.233334 4.233333 4.233333 4.233334 h -4.23333 -4.23333 -4.23334 -4.23333 -4.23333 -4.23334 -4.23333 v -4.233334 -4.233333 -4.233333 -4.233334 z m 4.23333,4.233333 v 4.233334 4.233333 4.233333 h 4.23334 v -4.233333 -4.233333 -4.233334 z m 8.46667,0 v 4.233334 4.233333 4.233333 h 4.23333 v -4.233333 -4.233333 -4.233334 z m 8.46667,0 v 4.233334 4.233333 4.233333 h 4.23333 v -4.233333 -4.233333 -4.233334 z m -33.86667,21.166667 h 4.23333 4.23334 4.23333 4.23333 4.23334 4.23333 4.23333 4.23334 4.23333 v 4.233334 h -4.23333 -4.23334 -4.23333 -4.23333 -4.23334 v 4.233333 4.233333 4.233334 4.233333 h -4.23333 -4.23333 -4.23334 -4.23333 V 9.646403 5.413069 1.179736 -3.053597 Z m 21.16667,8.466667 h 4.23333 4.23333 4.23334 4.23333 v 4.233333 4.233334 h -4.23333 v 4.233333 h -4.23334 V 9.646403 h -4.23333 -4.23333 V 5.413069 Z" /></g><g
       id="g996"
       transform="matrix(0.26531126,0,0,0.26531126,159.51829,-0.85232161)"><path
         id="rect755"
         style="fill:#000000;fill-opacity:1;stroke-width:1.14569;stroke-linecap:round;stroke-linejoin:round"
         d="m -7.8380193,238.00463 v 4.23333 h 4.23334 4.23332998 4.23333002 4.23334 v -4.23333 H 4.8619807 0.62865068 -3.6046793 Z m 16.93334,4.23333 v 4.23334 h 4.2333303 v -4.23334 z m 0,4.23334 h -4.23334 v 4.23333 4.23333 4.23334 h 4.23334 v -4.23334 -4.23333 z m 0,12.7 v 4.23333 h 4.2333303 v -4.23333 z m 4.2333303,4.23333 v 4.23333 4.23334 4.23333 4.23333 4.23334 4.23333 4.23333 h 4.23333 v -4.23333 -4.23333 -4.23334 -4.23333 -4.23333 -4.23334 -4.23333 z m 0,29.63333 h -4.2333303 -4.23334 -4.23333002 -4.23332998 -4.23334 -4.2333297 v 4.23334 h 4.2333297 4.23334 4.23332998 4.23333002 4.23334 4.2333303 z m -25.4,0 v -4.23333 -4.23333 -4.23334 -4.23333 -4.23333 -4.23334 -4.23333 h -4.23333 v 4.23333 4.23334 4.23333 4.23333 4.23334 4.23333 4.23333 z m 0,-29.63333 h 4.2333297 v -4.23333 h -4.2333297 z m 4.2333297,-4.23333 h 4.23334 v -4.23334 -4.23333 -4.23333 h -4.23334 v 4.23333 4.23333 z m 0,-12.7 v -4.23334 h -4.2333297 v 4.23334 z" /><path
         id="rect789"
         style="fill:#a0fcd8;fill-opacity:1;stroke-width:1.14569;stroke-linecap:round;stroke-linejoin:round"
         d="m -7.8380193,242.23796 v 4.23334 h 4.23334 v 4.23333 4.23333 4.23334 h 4.23332998 v -4.23334 -4.23333 -4.23333 h 4.23333002 4.23334 v -4.23334 H 4.8619807 0.62865068 -3.6046793 Z m 4.23334,16.93334 h -4.23334 v 4.23333 h -4.2333297 v 4.23333 4.23334 4.23333 4.23333 h 4.2333297 v -4.23333 -4.23333 -4.23334 h 4.23334 v -4.23333 z m 8.46666,0 v 4.23333 h 4.23334 v -4.23333 z m 4.23334,4.23333 v 4.23333 4.23334 4.23333 4.23333 h 4.2333303 v -4.23333 -4.23333 -4.23334 -4.23333 z" /><path
         id="rect796"
         style="fill:#1498dc;fill-opacity:1;stroke-width:1.14569;stroke-linecap:round;stroke-linejoin:round"
         d="m 0.62865068,246.4713 v 4.23333 4.23333 4.23334 H -3.6046793 v 4.23333 4.23333 h -4.23334 v 4.23334 4.23333 4.23333 4.23334 4.23333 h 4.23334 4.23332998 4.23333002 v -4.23333 h 4.23334 v -4.23334 -4.23333 -4.23333 -4.23334 -4.23333 h -4.23334 v -4.23333 -4.23334 -4.23333 -4.23333 z" /><path
         id="rect803"
         style="fill:#1950c0;fill-opacity:1;stroke-width:1.14569;stroke-linecap:round;stroke-linejoin:round"
         d="m -12.071349,280.33796 v 4.23334 4.23333 4.23333 h 4.2333297 4.23334 4.23332998 4.23333002 4.23334 4.2333303 v -4.23333 -4.23333 -4.23334 H 9.0953207 v 4.23334 h -4.23334 v 4.23333 h -4.23333002 -4.23332998 -4.23334 v -4.23333 -4.23334 z" /></g><path
       id="rect1003"
       style="fill:#ffffff;fill-opacity:1;stroke-width:0.346008;stroke-linecap:round;stroke-linejoin:round;opacity:1"
       d="m 52.50436,24.633884 v 0.793648 h -0.793648 v 0.793356 h -0.793356 v 0.793647 0.793648 0.793356 h 0.793356 v 0.793646 h 0.793648 v 0.793648 h 0.793646 0.793357 0.793647 v -0.793648 h 0.793647 v -0.793646 h 0.793648 V 27.808183 27.014535 26.220888 H 55.678657 V 25.427532 H 54.88501 v -0.793648 h -0.793647 -0.793357 z" /><rect
       style="opacity:1;fill:#ffffff;fill-opacity:1;stroke-width:2.32555;stroke-linecap:round;stroke-linejoin:round"
       id="rect1039"
       width="1.1852376"
       height="1.1852376"
       x="56.896969"
       y="23.962875" /><rect
       style="opacity:1;fill:#ffffff;fill-opacity:1;stroke-width:1.70544;stroke-linecap:round;stroke-linejoin:round"
       id="rect1040"
       width="0.86919051"
       height="0.86919051"
       x="59.082264"
       y="24.347755" /><rect
       style="opacity:1;fill:#ffffff;fill-opacity:1;stroke-width:1.39538;stroke-linecap:round;stroke-linejoin:round"
       id="rect1041"
       width="0.71116698"
       height="0.71116698"
       x="60.371262"
       y="22.767317" /><rect
       style="opacity:1;fill:#ffffff;fill-opacity:1;stroke-width:1.27135;stroke-linecap:round;stroke-linejoin:round"
       id="rect1042"
       width="0.64795756"
       height="0.64795756"
       x="61.047066"
       y="20.994074" /><rect
       style="opacity:1;fill:#ffffff;fill-opacity:1;stroke-width:1.16277;stroke-linecap:round;stroke-linejoin:round"
       id="rect1043"
       width="0.59261853"
       height="0.59261853"
       x="63.080345"
       y="21.298346" /><rect
       style="opacity:1;fill:#ffffff;fill-opacity:1;stroke-width:1.39538;stroke-linecap:round;stroke-linejoin:round"
       id="rect1044"
       width="0.71116698"
       height="0.71116698"
       x="61.877754"
       y="23.525829" /><g
       id="g1"
       transform="matrix(0.38077306,0,0,0.38077306,89.023914,28.521019)"><path
         id="rect142"
         style="fill:#000000;stroke-width:1.07177;stroke-linecap:round;stroke-linejoin:round"
         d="m -174.65343,55.202766 v 4.23333 h 4.23334 4.23333 4.23334 4.23333 4.23333 4.23334 4.23333 4.23333 4.23334 4.23333 4.23333 4.23334 4.23333 4.23333 4.23334 4.23333 4.23333 4.233338 4.23333 4.23333 4.23334 4.23333 4.23333 4.233336 4.233334 4.233333 4.233334 4.233333 v -4.23333 h -4.233333 -4.233334 -4.233333 -4.233334 -4.233336 -4.23333 -4.23333 -4.23334 -4.23333 -4.23333 -4.233338 -4.23333 -4.23333 -4.23334 -4.23333 -4.23333 -4.23334 -4.23333 -4.23333 -4.23334 -4.23333 -4.23333 -4.23334 -4.23333 -4.23333 -4.23334 -4.23333 z m 118.533338,4.23333 v 4.23334 h 4.233333 v -4.23334 z m 4.233333,4.23334 v 4.23333 4.23333 4.23334 4.23333 4.23333 h 4.233334 v -4.23333 -4.23333 -4.23334 -4.23333 -4.23333 z m 0,21.16666 h -4.233333 v 4.23334 h 4.233333 z m -4.233333,4.23334 h -4.233333 -4.233334 -4.233333 v -4.23334 h -4.233334 v 4.23334 h -4.233336 -4.23333 -4.23333 -4.23334 v -4.23334 h -4.23333 v 4.23334 h -4.23333 -4.233338 -4.23333 v -4.23334 h -4.23333 v 4.23334 h -4.23334 -4.23333 v -4.2137 h -4.23333 v 4.2137 h -4.23334 -4.23333 -4.23333 v -4.23334 h -4.23334 v 4.23334 h -4.23333 -4.23333 -4.23334 -4.23333 v -4.23334 h -4.23333 v 4.23334 h -4.23334 -4.23333 -4.23334 v 4.23333 h 4.23334 4.23333 4.23334 4.23333 4.23333 4.23334 4.23333 4.23333 4.23334 4.23333 4.23333 4.23334 4.23333 4.23333 4.23334 4.23333 4.23333 4.233338 4.23333 4.23333 4.23334 4.23333 4.23333 4.233336 4.233334 4.233333 4.233334 4.233333 z m -118.533338,0 v -4.23334 h -4.23333 v 4.23334 z m -4.23333,-4.23334 v -4.23333 -4.23333 -4.23334 -4.23333 -4.23333 h -4.23333 v 4.23333 4.23333 4.23334 4.23333 4.23333 z m 0,-21.16666 h 4.23333 v -4.23334 h -4.23333 z m 21.16667,21.16666 h 4.23333 4.23334 4.23333 4.23333 v -4.23333 h -4.23333 -4.23333 -4.23334 -4.23333 z m 46.56667,0 v -4.23333 h -4.23334 -4.23333 v 4.23333 h 4.23333 z m 21.166658,0 h 4.23334 4.23333 4.23333 4.233336 v -4.23333 h -4.233336 -4.23333 -4.23333 -4.23334 z" /><path
         id="rect183"
         style="fill:#fff658;fill-opacity:1;stroke-width:1.07177;stroke-linecap:round;stroke-linejoin:round"
         d="m -174.65343,59.436096 v 4.23334 h -4.23333 v 4.23333 4.23333 h 4.23333 v -4.23333 h 4.23334 v -4.23333 h 4.23333 v 4.23333 4.23333 h 4.23334 4.23333 v -4.23333 -4.23333 h 4.23333 4.23334 v 4.23333 h 4.23333 v -4.23333 h 4.23333 v 4.23333 4.23333 h 4.23334 4.23333 v -4.23333 -4.23333 h 4.23333 v 4.23333 h 4.23334 4.23333 4.23333 v -4.23333 h 4.23334 v 4.23333 4.23333 h 4.23333 4.23333 v -4.23333 h 4.233338 v 4.23333 h 4.23333 4.23333 v -4.23333 -4.23333 h 4.23334 v 4.23333 h 4.23333 v -4.23333 h 4.23333 4.233336 v 4.23333 4.23333 h 4.233334 4.233333 v -4.23333 -4.23333 h 4.233334 v 4.23333 h 4.233333 v 4.23333 h 4.233333 v -4.23333 -4.23333 h -4.233333 v -4.23334 h -4.233333 -4.233334 -4.233333 -4.233334 -4.233336 -4.23333 -4.23333 -4.23334 -4.21524 -4.23334 v 4.23334 h -0.01808 v -4.23334 h -4.233338 -4.23333 -4.23333 -4.23334 -4.23333 -4.23333 -4.23334 -4.23333 -4.23333 -4.23334 -4.23333 -4.23333 -4.23334 -4.23333 -4.23333 -4.23334 -4.23333 z" /><path
         id="rect202"
         style="fill:#fcd54b;fill-opacity:1;stroke-width:1.07177;stroke-linecap:round;stroke-linejoin:round"
         d="m -170.42009,63.669436 v 4.23333 h -4.23334 v 4.23333 4.23334 h 4.23334 v 4.23333 h 4.23333 v -4.23333 h 4.23334 v 4.23333 h 4.23333 v -4.23333 h 4.23333 v -4.23334 h 4.23334 4.23333 v 4.23334 h 4.23333 v 4.23333 h 4.23334 v -4.23333 h 4.23333 v 4.23333 h 4.23333 v -4.23333 h 4.23334 v -4.23334 h 4.23333 4.23333 4.23334 v -4.23333 -4.23333 h -4.23334 v 4.23333 h -4.23333 -4.23333 -4.23334 v -4.23333 h -4.23333 v 4.23333 4.23333 h -4.23333 -4.23334 v -4.23333 -4.23333 h -4.23333 v 4.23333 h -4.23333 v -4.23333 h -4.23334 -4.23333 v 4.23333 4.23333 h -4.23333 -4.23334 v -4.23333 -4.23333 z m 59.26667,8.46666 v 4.23334 h 4.23333 v 4.23333 h 4.23333 v -4.23333 h 4.233338 v 4.23333 h 4.23333 4.23333 v -4.23333 h 4.23334 v -4.23334 h 4.23333 4.23333 v 4.23334 h 4.233336 v 4.23333 h 4.233334 v -4.23333 h 4.233333 v 4.23333 h 4.233334 v -4.23333 h 4.233333 v -4.23334 -4.23333 h -4.233333 v -4.23333 h -4.233334 v 4.23333 4.23333 h -4.233333 -4.233334 v -4.23333 -4.23333 h -4.233336 -4.23333 v 4.23333 h -4.23333 v -4.23333 h -4.23334 v 4.23333 4.23333 h -4.23333 -4.23333 v -4.23333 h -4.233338 v 4.23333 h -4.23333 z" /><path
         id="rect242"
         style="fill:#cb422e;fill-opacity:1;stroke-width:1.07177;stroke-linecap:round;stroke-linejoin:round"
         d="m -153.48676,76.369436 v 4.23333 h 4.23334 4.23333 v -4.23333 h -4.23333 z m 33.86667,0 v 4.23333 h 4.23333 4.23334 v -4.23333 h -4.23334 z m 8.46667,4.23333 v 4.23333 h 4.23333 v -4.23333 z m 4.23333,4.23333 v 4.23334 h 4.23333 4.233338 4.23333 v -4.23334 h -4.23333 -4.233338 z m -12.7,-4.23333 h -4.23333 v 4.23333 h 4.23333 z m -4.23333,4.23333 h -4.23334 -4.23333 -4.23333 v 4.23334 h 4.23333 4.23333 4.23334 z m 38.099998,-8.46666 v 4.23333 h 4.23333 4.23333 v -4.23333 h -4.23333 z m -93.133338,4.23333 v 4.23333 h 4.23333 v -4.23333 z m 4.23333,4.23333 v 4.23334 h 4.23334 4.23333 4.23334 v -4.23334 h -4.23334 -4.23333 z m 118.533338,-4.23333 v 4.23333 h 4.233333 v -4.23333 z m 0,4.23333 h -4.233333 -4.233334 -4.233333 v 4.23334 h 4.233333 4.233334 4.233333 z" /><path
         id="rect252"
         style="fill:#864646;fill-opacity:1;stroke-width:1.07177;stroke-linecap:round;stroke-linejoin:round"
         d="m -157.72009,84.836096 v 4.23334 h 4.23333 4.23334 4.23333 4.23333 v -4.23334 h -4.23333 -4.23333 -4.23334 z m 38.1,0 v 4.23334 h 4.23333 4.23334 v -4.23334 h -4.23334 z m 29.633328,0 v 4.23334 h 4.23334 4.23333 4.23333 4.233336 v -4.23334 h -4.233336 -4.23333 -4.23333 z" /><path
         id="rect260"
         style="fill:#f49314;fill-opacity:1;stroke-width:1.07177;stroke-linecap:round;stroke-linejoin:round"
         d="m -178.88676,72.136096 v 4.23334 4.23333 h 4.23333 v 4.23333 h 4.23334 4.23333 4.23334 4.23333 v -4.23333 h -4.23333 v -4.23333 h -4.23334 v 4.23333 h -4.23333 v -4.23333 h -4.23334 v -4.23334 z m 21.16667,8.46667 h 4.23333 v -4.23333 h -4.23333 z m 4.23333,-4.23333 h 4.23334 4.23333 v -4.23334 h -4.23333 -4.23334 z m 8.46667,0 v 4.23333 h 4.23333 v -4.23333 z m 4.23333,4.23333 v 4.23333 h 4.23334 4.23333 4.23333 4.23334 v -4.23333 h 4.23333 v -4.23333 h 4.23333 4.23334 v -4.23334 h -4.23334 -4.23333 -4.23333 v 4.23334 h -4.23334 v 4.23333 h -4.23333 v -4.23333 h -4.23333 v 4.23333 z m 29.63334,-4.23333 v 4.23333 h 4.23333 v -4.23333 z m 4.23333,4.23333 v 4.23333 h 4.23333 4.233338 4.23333 4.23333 v -4.23333 h -4.23333 -4.23333 v -4.23333 h -4.233338 v 4.23333 z m 16.933328,0 h 4.23334 v -4.23333 h -4.23334 z m 4.23334,-4.23333 h 4.23333 4.23333 v -4.23334 h -4.23333 -4.23333 z m 8.46666,0 v 4.23333 h 4.233336 v -4.23333 z m 4.233336,4.23333 v 4.23333 h 4.233334 4.233333 4.233334 4.233333 v -4.23333 h 4.233333 v -4.23333 -4.23334 h -4.233333 v 4.23334 h -4.233333 v 4.23333 h -4.233334 v -4.23333 h -4.233333 v 4.23333 z" /></g><g
       id="g995"
       transform="matrix(0.16739614,0,0,0.16739614,70.209012,-0.22132259)"><path
         id="path844"
         style="fill:#000000;fill-opacity:1;stroke-width:1.14569;stroke-linecap:round;stroke-linejoin:round"
         d="m -51.494659,238.00463 v 4.23333 h 4.23334 4.23333 4.23333 4.23334 v -4.23333 h -4.23334 -4.23333 -4.23333 z m 16.93334,4.23333 v 4.23334 h 4.23333 v -4.23334 z m 0,4.23334 h -4.23334 v 4.23333 4.23333 4.23334 h 4.23334 v -4.23334 -4.23333 z m 0,12.7 v 4.23333 h 4.23333 v -4.23333 z m 4.23333,4.23333 v 4.23333 4.23334 4.23333 4.23333 4.23334 4.23333 4.23333 h 4.23333 v -4.23333 -4.23333 -4.23334 -4.23333 -4.23333 -4.23334 -4.23333 z m 0,29.63333 h -4.23333 -4.23334 -4.23333 -4.23333 -4.23334 -4.23333 v 4.23334 h 4.23333 4.23334 4.23333 4.23333 4.23334 4.23333 z m -25.4,0 v -4.23333 -4.23333 -4.23334 -4.23333 -4.23333 -4.23334 -4.23333 h -4.23333 v 4.23333 4.23334 4.23333 4.23333 4.23334 4.23333 4.23333 z m 0,-29.63333 h 4.23333 v -4.23333 h -4.23333 z m 4.23333,-4.23333 h 4.23334 v -4.23334 -4.23333 -4.23333 h -4.23334 v 4.23333 4.23333 z m 0,-12.7 v -4.23334 h -4.23333 v 4.23334 z" /><path
         id="path845"
         style="fill:#ffd233;fill-opacity:1;stroke-width:1.14569;stroke-linecap:round;stroke-linejoin:round"
         d="m -51.494659,242.23796 v 4.23334 h 4.23334 v 4.23333 4.23333 4.23334 h 4.23333 v -4.23334 -4.23333 -4.23333 h 4.23333 4.23334 v -4.23334 h -4.23334 -4.23333 -4.23333 z m 4.23334,16.93334 h -4.23334 v 4.23333 h -4.23333 v 4.23333 4.23334 4.23333 4.23333 h 4.23333 v -4.23333 -4.23333 -4.23334 h 4.23334 v -4.23333 z m 8.46666,0 v 4.23333 h 4.23334 v -4.23333 z m 4.23334,4.23333 v 4.23333 4.23334 4.23333 4.23333 h 4.23333 v -4.23333 -4.23333 -4.23334 -4.23333 z" /><path
         id="path846"
         style="fill:#f99c0b;fill-opacity:1;stroke-width:1.14569;stroke-linecap:round;stroke-linejoin:round"
         d="m -43.027989,246.4713 v 4.23333 4.23333 4.23334 h -4.23333 v 4.23333 4.23333 h -4.23334 v 4.23334 4.23333 4.23333 4.23334 4.23333 h 4.23334 4.23333 4.23333 v -4.23333 h 4.23334 v -4.23334 -4.23333 -4.23333 -4.23334 -4.23333 h -4.23334 v -4.23333 -4.23334 -4.23333 -4.23333 z" /><path
         id="path847"
         style="fill:#fa5f00;fill-opacity:1;stroke-width:1.14569;stroke-linecap:round;stroke-linejoin:round"
         d="m -55.727989,280.33796 v 4.23334 4.23333 4.23333 h 4.23333 4.23334 4.23333 4.23333 4.23334 4.23333 v -4.23333 -4.23333 -4.23334 h -4.23333 v 4.23334 h -4.23334 v 4.23333 h -4.23333 -4.23333 -4.23334 v -4.23333 -4.23334 z" /></g><g
       id="g4"
       transform="matrix(0.39464586,0,0,0.39464586,206.79838,9.0614647)"><path
         id="path479"
         style="fill:#000000;stroke-width:1.07177;stroke-linecap:round;stroke-linejoin:round"
         d="m -249.46643,115.88382 v 4.23333 h 4.23333 4.23334 4.23333 4.23333 4.23334 4.23333 4.23333 4.23334 4.23333 4.23333 4.23334 4.23333 v -4.23333 h -4.23333 -4.23334 -4.23333 -4.23333 -4.23334 -4.23333 -4.23333 -4.23334 -4.23333 -4.23333 -4.23334 z m 50.8,4.23333 v 4.23334 h 4.23333 v -4.23334 z m 4.23333,4.23334 v 4.23333 4.23333 4.23334 4.23333 4.23333 h 4.23334 v -4.23333 -4.23333 -4.23334 -4.23333 -4.23333 z m 0,21.16666 h -4.23333 v 4.23334 h 4.23333 z m -4.23333,4.23334 h -4.23333 -4.23334 -4.23333 v -4.23334 h -4.23333 v 4.23334 h -4.23334 -4.23333 -4.23333 -4.23334 v -4.23334 h -4.23333 v 4.23334 h -4.23333 -4.23334 -4.23333 v 4.23333 h 4.23333 4.23334 4.23333 4.23333 4.23334 4.23333 4.23333 4.23334 4.23333 4.23333 4.23334 4.23333 z m -50.8,0 v -4.23334 h -4.23333 v 4.23334 z m -4.23333,-4.23334 v -4.23333 -4.23333 -4.23334 -4.23333 -4.23333 h -4.23334 v 4.23333 4.23333 4.23334 4.23333 4.23333 z m 0,-21.16666 h 4.23333 v -4.23334 h -4.23333 z m 21.16666,21.16666 h 4.23334 4.23333 4.23333 4.23334 v -4.23333 h -4.23334 -4.23333 -4.23333 -4.23334 z" /><path
         id="path480"
         style="fill:#5ce6df;fill-opacity:1;stroke-width:1.07177;stroke-linecap:round;stroke-linejoin:round"
         d="m -245.2331,124.35049 v 4.23333 h -4.23333 v 4.23333 4.23334 h 4.23333 v 4.23333 h 4.23334 v -4.23333 h 4.23333 v 4.23333 h 4.23333 v -4.23333 h 4.23334 v -4.23334 h 4.23333 4.23333 v 4.23334 h 4.23334 v 4.23333 h 4.23333 v -4.23333 h 4.23333 v 4.23333 h 4.23334 v -4.23333 h 4.23333 v -4.23334 -4.23333 h -4.23333 v -4.23333 h -4.23334 v 4.23333 4.23333 h -4.23333 -4.23333 v -4.23333 -4.23333 h -4.23334 v 4.23333 h -4.23333 v -4.23333 h -4.23333 -4.23334 v 4.23333 4.23333 h -4.23333 -4.23333 v -4.23333 -4.23333 z" /><path
         id="path481"
         style="fill:#aefffb;fill-opacity:1;stroke-width:1.07177;stroke-linecap:round;stroke-linejoin:round"
         d="m -249.46643,120.11715 v 4.23334 h -4.23333 v 4.23333 4.23333 h 4.23333 v -4.23333 h 4.23333 v -4.23333 h 4.23334 v 4.23333 4.23333 h 4.23333 4.23333 v -4.23333 -4.23333 h 4.23334 4.23333 v 4.23333 h 4.23333 v -4.23333 h 4.23334 v 4.23333 4.23333 h 4.23333 4.23333 v -4.23333 -4.23333 h 4.23334 v 4.23333 h 4.23333 v 4.23333 h 4.23333 v -4.23333 -4.23333 h -4.23333 v -4.23334 h -4.23333 -4.23334 -4.23333 -4.23333 -4.23334 -4.23333 -4.23333 -4.23334 -4.23333 -4.23333 -4.23334 z" /><path
         id="path482"
         style="fill:#3863b3;fill-opacity:1;stroke-width:1.07177;stroke-linecap:round;stroke-linejoin:round"
         d="m -228.29976,137.05049 v 4.23333 h 4.23333 4.23333 v -4.23333 h -4.23333 z m -25.4,4.23333 v 4.23333 h 4.23333 v -4.23333 z m 4.23333,4.23333 v 4.23334 h 4.23333 4.23334 4.23333 v -4.23334 h -4.23333 -4.23334 z m 50.8,-4.23333 v 4.23333 h 4.23333 v -4.23333 z m 0,4.23333 h -4.23333 -4.23334 -4.23333 v 4.23334 h 4.23333 4.23334 4.23333 z" /><path
         id="path483"
         style="fill:#5d6b77;fill-opacity:1;stroke-width:1.07177;stroke-linecap:round;stroke-linejoin:round"
         d="m -232.5331,145.51715 v 4.23334 h 4.23334 4.23333 4.23333 4.23334 v -4.23334 h -4.23334 -4.23333 -4.23333 z" /><path
         id="path484"
         style="fill:#23a6de;fill-opacity:1;stroke-width:1.07177;stroke-linecap:round;stroke-linejoin:round"
         d="m -253.69976,132.81715 v 4.23334 4.23333 h 4.23333 v 4.23333 h 4.23333 4.23334 4.23333 4.23333 v -4.23333 h -4.23333 v -4.23333 h -4.23333 v 4.23333 h -4.23334 v -4.23333 h -4.23333 v -4.23334 z m 21.16666,8.46667 h 4.23334 v -4.23333 h -4.23334 z m 4.23334,-4.23333 h 4.23333 4.23333 v -4.23334 h -4.23333 -4.23333 z m 8.46666,0 v 4.23333 h 4.23334 v -4.23333 z m 4.23334,4.23333 v 4.23333 h 4.23333 4.23333 4.23334 4.23333 v -4.23333 h 4.23333 v -4.23333 -4.23334 h -4.23333 v 4.23334 h -4.23333 v 4.23333 h -4.23334 v -4.23333 h -4.23333 v 4.23333 z" /></g><g
       id="g1211"
       transform="matrix(0.29721683,0,0,0.29721683,121.28803,-1.0557185)"><path
         id="rect1124"
         style="opacity:1;fill:#000000;fill-opacity:1;stroke-width:1.33561;stroke-linecap:round;stroke-linejoin:round"
         d="m -22.512838,142.01666 v 4.23333 h 4.233333 4.233334 4.2333331 4.2333334 4.2333334 4.2333334 v -4.23333 h -4.2333334 -4.2333334 -4.2333334 -4.2333331 -4.233334 z m 25.4000003,4.23333 v 4.23333 h 4.2333334 v -4.23333 z m 4.2333334,4.23333 v 4.23334 4.23333 4.23333 4.23334 4.23333 4.23333 h 4.2333333 v -4.23333 -4.23333 -4.23334 -4.23333 -4.23333 -4.23334 z m 0,25.4 H 2.8871623 v 4.23334 h 4.2333334 z m -4.2333334,4.23334 h -4.2333334 -4.2333334 -4.2333334 -4.2333331 -4.233334 -4.233333 v 4.23333 h 4.233333 4.233334 4.2333331 4.2333334 4.2333334 4.2333334 z m -25.4000003,0 v -4.23334 h -4.233333 v 4.23334 z m -4.233333,-4.23334 v -4.23333 -4.23333 -4.23334 -4.23333 -4.23333 -4.23334 h -4.233334 v 4.23334 4.23333 4.23333 4.23334 4.23333 4.23333 z m 0,-25.4 h 4.233333 v -4.23333 h -4.233333 z" /><path
         id="rect1164"
         style="opacity:1;fill:#f2741b;fill-opacity:1;stroke-width:1.33561;stroke-linecap:round;stroke-linejoin:round"
         d="m 150.48332,26.746171 h 4.23334 4.23333 4.23333 4.23334 4.23333 4.23333 v -4.233333 h 4.23334 V 18.279505 14.046171 9.8128379 5.5795045 1.3461711 -2.8871623 h -4.23334 v 4.2333334 4.2333334 4.2333334 4.2333331 4.233334 h -4.23333 v 4.233333 h -4.23333 -4.23334 -4.23333 -4.23333 -4.23334 z m 8.46667,-8.466666 h 4.23333 4.23334 v -4.233334 h -4.23334 -4.23333 z m 8.46667,-4.233334 h 4.23333 V 9.8128379 5.5795045 h -4.23333 v 4.2333334 z"
         transform="rotate(90)" /><path
         id="rect1152"
         style="opacity:1;fill:#fff21b;fill-opacity:1;stroke-width:1.33561;stroke-linecap:round;stroke-linejoin:round"
         d="m 146.24999,22.512838 h 4.23333 V 18.279505 14.046171 9.8128379 5.5795045 1.3461711 h 4.23334 v -4.2333334 h 4.23333 4.23333 4.23334 4.23333 4.23333 v -4.2333334 h -4.23333 -4.23333 -4.23334 -4.23333 -4.23333 -4.23334 v 4.2333334 h -4.23333 v 4.2333334 4.2333334 4.2333334 4.2333331 4.233334 z m 8.46667,-8.466667 h 4.23333 V 9.8128379 5.5795045 h -4.23333 v 4.2333334 z m 4.23333,-8.4666665 h 4.23333 4.23334 V 1.3461711 h -4.23334 -4.23333 z"
         transform="rotate(90)" /><path
         id="rect1178"
         style="opacity:1;fill:#fbc41b;fill-opacity:1;stroke-width:1.33561;stroke-linecap:round;stroke-linejoin:round"
         d="m 150.48332,22.512838 h 4.23334 4.23333 4.23333 4.23334 4.23333 v -4.233333 h 4.23333 V 14.046171 9.8128379 5.5795045 1.3461711 -2.8871623 h -4.23333 -4.23333 -4.23334 -4.23333 -4.23333 v 4.2333334 h -4.23334 v 4.2333334 4.2333334 4.2333331 4.233334 z m 4.23334,-8.466667 V 9.8128379 5.5795045 h 4.23333 V 1.3461711 h 4.23333 4.23334 v 4.2333334 h 4.23333 v 4.2333334 4.2333331 h -4.23333 v 4.233334 h -4.23334 -4.23333 v -4.233334 z m 4.23333,0 h 4.23333 4.23334 V 9.8128379 5.5795045 h -4.23334 -4.23333 v 4.2333334 z"
         transform="rotate(90)" /></g><text
       xml:space="preserve"
       style="font-size:3.67944px;line-height:1.5;font-family:'Roboto Condensed';-inkscape-font-specification:'Roboto Condensed, ';text-align:start;letter-spacing:0px;writing-mode:lr-tb;direction:ltr;text-anchor:start;fill:#ffffff;fill-opacity:1;stroke-width:1.25435;stroke-linecap:round;stroke-linejoin:round"
       x="4.8317366"
       y="79.375"
       id="text1212"><tspan
         sodipodi:role="line"
         id="tspan1212"
         style="font-style:normal;font-variant:normal;font-weight:bold;font-stretch:normal;font-family:'Pixel Operator 8';-inkscape-font-specification:'Pixel Operator 8 Bold';fill:#ffffff;fill-opacity:1;stroke-width:1.25435"
         x="4.8317366"
         y="79.375">BASED ON BRACKEY'S TUTORIAL</tspan></text><text
       xml:space="preserve"
       style="font-size:8.94254px;line-height:1.5;font-family:'Roboto Condensed';-inkscape-font-specification:'Roboto Condensed, ';text-align:start;letter-spacing:0px;writing-mode:lr-tb;direction:ltr;text-anchor:start;fill:#000000;fill-opacity:1;stroke-width:3.04859;stroke-linecap:round;stroke-linejoin:round"
       x="98.920784"
       y="13.116389"
       id="text1215"><tspan
         sodipodi:role="line"
         id="tspan1215"
         style="font-style:normal;font-variant:normal;font-weight:bold;font-stretch:normal;font-size:8.94254px;font-family:'Pixel Operator 8';-inkscape-font-specification:'Pixel Operator 8, Bold';font-variant-ligatures:normal;font-variant-caps:normal;font-variant-numeric:normal;font-variant-east-asian:normal;fill:#000000;fill-opacity:1;stroke-width:3.04859"
         x="98.920784"
         y="13.116389">PIXEL ENEMY SLAYER</tspan></text><path
       id="path472"
       style="color:#000000;font-style:normal;font-variant:normal;font-weight:normal;font-stretch:normal;font-size:medium;line-height:normal;font-family:sans-serif;font-variant-ligatures:normal;font-variant-position:normal;font-variant-caps:normal;font-variant-numeric:normal;font-variant-alternates:normal;font-variant-east-asian:normal;font-feature-settings:normal;font-variation-settings:normal;text-indent:0;text-align:start;text-decoration-line:none;text-decoration-style:solid;text-decoration-color:#000000;letter-spacing:normal;word-spacing:normal;text-transform:none;writing-mode:lr-tb;direction:ltr;text-orientation:mixed;dominant-baseline:auto;baseline-shift:baseline;text-anchor:start;white-space:normal;shape-padding:0;shape-margin:0;inline-size:0;clip-rule:nonzero;display:inline;overflow:visible;visibility:visible;isolation:auto;mix-blend-mode:normal;color-interpolation:sRGB;color-interpolation-filters:linearRGB;solid-color:#000000;solid-opacity:1;vector-effect:none;fill:#000000;fill-opacity:1;fill-rule:nonzero;stroke:none;stroke-width:0.314153;stroke-linecap:round;stroke-linejoin:round;stroke-miterlimit:4;stroke-dasharray:none;stroke-dashoffset:0;stroke-opacity:1;-inkscape-stroke:none;color-rendering:auto;image-rendering:auto;shape-rendering:auto;text-rendering:auto;enable-background:accumulate;stop-color:#000000"
       d="M 169.45271 77.352386 L 169.45271 78.68202 L 170.78234 78.68202 L 172.11249 78.68202 L 173.44265 78.68202 L 174.77228 78.68202 L 176.10243 78.68202 L 177.43207 78.68202 L 178.76222 78.68202 L 178.76222 80.012172 L 180.09185 80.012172 L 180.09185 81.341806 L 180.09185 82.671958 L 178.76222 82.671958 L 178.76222 84.001592 L 178.76222 84.666668 L 188.07121 84.666668 L 188.07121 84.001592 L 188.07121 82.671958 L 188.07121 81.341806 L 188.07121 80.012172 L 188.07121 78.68202 L 186.74158 78.68202 L 186.74158 80.012172 L 186.74158 81.341806 L 186.74158 82.671958 L 185.41142 82.671958 L 185.41142 84.001592 L 184.08179 84.001592 L 182.75164 84.001592 L 181.422 84.001592 L 181.422 82.671958 L 181.422 81.341806 L 181.422 80.012172 L 182.75164 80.012172 L 182.75164 78.68202 L 184.08179 78.68202 L 185.41142 78.68202 L 186.74158 78.68202 L 186.74158 77.352386 L 185.41142 77.352386 L 184.08179 77.352386 L 182.75164 77.352386 L 181.422 77.352386 L 180.09185 77.352386 L 178.76222 77.352386 L 177.43207 77.352386 L 176.10243 77.352386 L 174.77228 77.352386 L 173.44265 77.352386 L 172.11249 77.352386 L 170.78234 77.352386 L 169.45271 77.352386 z M 169.45271 78.68202 L 168.12256 78.68202 L 168.12256 80.012172 L 169.45271 80.012172 L 169.45271 78.68202 z M 168.12256 80.012172 L 166.79292 80.012172 L 166.79292 81.341806 L 166.79292 82.671958 L 166.79292 84.001592 L 166.79292 84.666668 L 168.12256 84.666668 L 168.12256 84.001592 L 168.12256 82.671958 L 168.12256 81.341806 L 168.12256 80.012172 z " /><path
       id="path476"
       style="color:#000000;font-style:normal;font-variant:normal;font-weight:normal;font-stretch:normal;font-size:medium;line-height:normal;font-family:sans-serif;font-variant-ligatures:normal;font-variant-position:normal;font-variant-caps:normal;font-variant-numeric:normal;font-variant-alternates:normal;font-variant-east-asian:normal;font-feature-settings:normal;font-variation-settings:normal;text-indent:0;text-align:start;text-decoration-line:none;text-decoration-style:solid;text-decoration-color:#000000;letter-spacing:normal;word-spacing:normal;text-transform:none;writing-mode:lr-tb;direction:ltr;text-orientation:mixed;dominant-baseline:auto;baseline-shift:baseline;text-anchor:start;white-space:normal;shape-padding:0;shape-margin:0;inline-size:0;clip-rule:nonzero;display:inline;overflow:visible;visibility:visible;isolation:auto;mix-blend-mode:normal;color-interpolation:sRGB;color-interpolation-filters:linearRGB;solid-color:#000000;solid-opacity:1;vector-effect:none;fill:#d89e58;fill-opacity:1;fill-rule:nonzero;stroke:none;stroke-width:0.314153;stroke-linecap:round;stroke-linejoin:round;stroke-miterlimit:4;stroke-dasharray:none;stroke-dashoffset:0;stroke-opacity:1;-inkscape-stroke:none;color-rendering:auto;image-rendering:auto;shape-rendering:auto;text-rendering:auto;enable-background:accumulate;stop-color:#000000"
       d="M 169.45271 78.68202 L 169.45271 80.012172 L 170.78234 80.012172 L 172.11249 80.012172 L 172.11249 81.341806 L 173.44265 81.341806 L 173.44265 80.012172 L 174.77228 80.012172 L 176.10243 80.012172 L 177.43207 80.012172 L 178.76222 80.012172 L 178.76222 78.68202 L 177.43207 78.68202 L 176.10243 78.68202 L 174.77228 78.68202 L 173.44265 78.68202 L 172.11249 78.68202 L 170.78234 78.68202 L 169.45271 78.68202 z M 178.76222 80.012172 L 178.76222 81.341806 L 180.09185 81.341806 L 180.09185 80.012172 L 178.76222 80.012172 z M 169.45271 80.012172 L 168.12256 80.012172 L 168.12256 81.341806 L 168.12256 82.671958 L 168.12256 84.001592 L 168.12256 84.666668 L 169.45271 84.666668 L 169.45271 84.001592 L 169.45271 82.671958 L 169.45271 81.341806 L 169.45271 80.012172 z M 182.75164 78.68202 L 182.75164 80.012172 L 184.08179 80.012172 L 185.41142 80.012172 L 185.41142 81.341806 L 186.74158 81.341806 L 186.74158 80.012172 L 186.74158 78.68202 L 185.41142 78.68202 L 184.08179 78.68202 L 182.75164 78.68202 z M 182.75164 80.012172 L 181.422 80.012172 L 181.422 81.341806 L 181.422 82.671958 L 181.422 84.001592 L 182.75164 84.001592 L 182.75164 82.671958 L 182.75164 81.341806 L 182.75164 80.012172 z " /><path
       id="path500"
       style="color:#000000;font-style:normal;font-variant:normal;font-weight:normal;font-stretch:normal;font-size:medium;line-height:normal;font-family:sans-serif;font-variant-ligatures:normal;font-variant-position:normal;font-variant-caps:normal;font-variant-numeric:normal;font-variant-alternates:normal;font-variant-east-asian:normal;font-feature-settings:normal;font-variation-settings:normal;text-indent:0;text-align:start;text-decoration-line:none;text-decoration-style:solid;text-decoration-color:#000000;letter-spacing:normal;word-spacing:normal;text-transform:none;writing-mode:lr-tb;direction:ltr;text-orientation:mixed;dominant-baseline:auto;baseline-shift:baseline;text-anchor:start;white-space:normal;shape-padding:0;shape-margin:0;inline-size:0;clip-rule:nonzero;display:inline;overflow:visible;visibility:visible;isolation:auto;mix-blend-mode:normal;color-interpolation:sRGB;color-interpolation-filters:linearRGB;solid-color:#000000;solid-opacity:1;vector-effect:none;fill:#67332d;fill-opacity:1;fill-rule:nonzero;stroke:none;stroke-width:0.314153;stroke-linecap:round;stroke-linejoin:round;stroke-miterlimit:4;stroke-dasharray:none;stroke-dashoffset:0;stroke-opacity:1;-inkscape-stroke:none;color-rendering:auto;image-rendering:auto;shape-rendering:auto;text-rendering:auto;enable-background:accumulate;stop-color:#000000"
       d="M 174.77228 81.341806 L 174.77228 82.671958 L 176.10243 82.671958 L 176.10243 81.341806 L 174.77228 81.341806 z M 178.76222 81.341806 L 178.76222 82.671958 L 180.09185 82.671958 L 180.09185 81.341806 L 178.76222 81.341806 z M 178.76222 82.671958 L 177.43207 82.671958 L 177.43207 84.001592 L 176.10243 84.001592 L 176.10243 84.666668 L 178.76222 84.666668 L 178.76222 84.001592 L 178.76222 82.671958 z M 184.08179 81.341806 L 184.08179 82.671958 L 182.75164 82.671958 L 182.75164 84.001592 L 184.08179 84.001592 L 185.41142 84.001592 L 185.41142 82.671958 L 186.74158 82.671958 L 186.74158 81.341806 L 185.41142 81.341806 L 184.08179 81.341806 z M 170.78234 82.671958 L 170.78234 84.001592 L 170.78234 84.666668 L 173.44265 84.666668 L 173.44265 84.001592 L 173.44265 82.671958 L 172.11249 82.671958 L 170.78234 82.671958 z " /><path
       id="path566"
       style="color:#000000;font-style:normal;font-variant:normal;font-weight:normal;font-stretch:normal;font-size:medium;line-height:normal;font-family:sans-serif;font-variant-ligatures:normal;font-variant-position:normal;font-variant-caps:normal;font-variant-numeric:normal;font-variant-alternates:normal;font-variant-east-asian:normal;font-feature-settings:normal;font-variation-settings:normal;text-indent:0;text-align:start;text-decoration-line:none;text-decoration-style:solid;text-decoration-color:#000000;letter-spacing:normal;word-spacing:normal;text-transform:none;writing-mode:lr-tb;direction:ltr;text-orientation:mixed;dominant-baseline:auto;baseline-shift:baseline;text-anchor:start;white-space:normal;shape-padding:0;shape-margin:0;inline-size:0;clip-rule:nonzero;display:inline;overflow:visible;visibility:visible;isolation:auto;mix-blend-mode:normal;color-interpolation:sRGB;color-interpolation-filters:linearRGB;solid-color:#000000;solid-opacity:1;vector-effect:none;fill:#b66b3a;fill-opacity:1;fill-rule:nonzero;stroke:none;stroke-width:0.314153;stroke-linecap:round;stroke-linejoin:round;stroke-miterlimit:4;stroke-dasharray:none;stroke-dashoffset:0;stroke-opacity:1;-inkscape-stroke:none;color-rendering:auto;image-rendering:auto;shape-rendering:auto;text-rendering:auto;enable-background:accumulate;stop-color:#000000"
       d="M 169.45271 80.012172 L 169.45271 81.341806 L 169.45271 82.671958 L 169.45271 84.001592 L 169.45271 84.666668 L 170.78234 84.666668 L 170.78234 84.001592 L 170.78234 82.671958 L 172.11249 82.671958 L 173.44265 82.671958 L 173.44265 84.001592 L 173.44265 84.666668 L 176.10243 84.666668 L 176.10243 84.001592 L 177.43207 84.001592 L 177.43207 82.671958 L 178.76222 82.671958 L 178.76222 81.341806 L 178.76222 80.012172 L 177.43207 80.012172 L 176.10243 80.012172 L 174.77228 80.012172 L 173.44265 80.012172 L 173.44265 81.341806 L 172.11249 81.341806 L 172.11249 80.012172 L 170.78234 80.012172 L 169.45271 80.012172 z M 182.75164 80.012172 L 182.75164 81.341806 L 182.75164 82.671958 L 184.08179 82.671958 L 184.08179 81.341806 L 185.41142 81.341806 L 185.41142 80.012172 L 184.08179 80.012172 L 182.75164 80.012172 z M 174.77228 81.341806 L 176.10243 81.341806 L 176.10243 82.671958 L 174.77228 82.671958 L 174.77228 81.341806 z " /><path
       id="path974"
       style="color:#000000;font-style:normal;font-variant:normal;font-weight:normal;font-stretch:normal;font-size:medium;line-height:normal;font-family:sans-serif;font-variant-ligatures:normal;font-variant-position:normal;font-variant-caps:normal;font-variant-numeric:normal;font-variant-alternates:normal;font-variant-east-asian:normal;font-feature-settings:normal;font-variation-settings:normal;text-indent:0;text-align:start;text-decoration-line:none;text-decoration-style:solid;text-decoration-color:#000000;letter-spacing:normal;word-spacing:normal;text-transform:none;writing-mode:lr-tb;direction:ltr;text-orientation:mixed;dominant-baseline:auto;baseline-shift:baseline;text-anchor:start;white-space:normal;shape-padding:0;shape-margin:0;inline-size:0;clip-rule:nonzero;display:inline;overflow:visible;visibility:visible;isolation:auto;mix-blend-mode:normal;color-interpolation:sRGB;color-interpolation-filters:linearRGB;solid-color:#000000;solid-opacity:1;vector-effect:none;fill:#000000;fill-opacity:1;fill-rule:nonzero;stroke:none;stroke-width:0.314153;stroke-linecap:round;stroke-linejoin:round;stroke-miterlimit:4;stroke-dasharray:none;stroke-dashoffset:0;stroke-opacity:1;-inkscape-stroke:none;color-rendering:auto;image-rendering:auto;shape-rendering:auto;text-rendering:auto;enable-background:accumulate;stop-color:#000000"
       d="M 190.73151 77.352386 L 190.73151 78.68202 L 192.06115 78.68202 L 193.3913 78.68202 L 194.72093 78.68202 L 196.05109 78.68202 L 197.38072 78.68202 L 198.71087 78.68202 L 200.04051 78.68202 L 200.04051 80.012172 L 201.37066 80.012172 L 201.37066 81.341806 L 201.37066 82.671958 L 200.04051 82.671958 L 200.04051 84.001592 L 200.04051 84.666668 L 209.35002 84.666668 L 209.35002 84.001592 L 209.35002 82.671958 L 209.35002 81.341806 L 209.35002 80.012172 L 209.35002 78.68202 L 208.02038 78.68202 L 208.02038 80.012172 L 208.02038 81.341806 L 208.02038 82.671958 L 206.69023 82.671958 L 206.69023 84.001592 L 205.36059 84.001592 L 204.03044 84.001592 L 202.70029 84.001592 L 202.70029 82.671958 L 202.70029 81.341806 L 202.70029 80.012172 L 204.03044 80.012172 L 204.03044 78.68202 L 205.36059 78.68202 L 206.69023 78.68202 L 208.02038 78.68202 L 208.02038 77.352386 L 206.69023 77.352386 L 205.36059 77.352386 L 204.03044 77.352386 L 202.70029 77.352386 L 201.37066 77.352386 L 200.04051 77.352386 L 198.71087 77.352386 L 197.38072 77.352386 L 196.05109 77.352386 L 194.72093 77.352386 L 193.3913 77.352386 L 192.06115 77.352386 L 190.73151 77.352386 z M 190.73151 78.68202 L 189.40136 78.68202 L 189.40136 80.012172 L 190.73151 80.012172 L 190.73151 78.68202 z M 189.40136 80.012172 L 188.07121 80.012172 L 188.07121 81.341806 L 188.07121 82.671958 L 188.07121 84.001592 L 188.07121 84.666668 L 189.40136 84.666668 L 189.40136 84.001592 L 189.40136 82.671958 L 189.40136 81.341806 L 189.40136 80.012172 z " /><path
       id="path975"
       style="color:#000000;font-style:normal;font-variant:normal;font-weight:normal;font-stretch:normal;font-size:medium;line-height:normal;font-family:sans-serif;font-variant-ligatures:normal;font-variant-position:normal;font-variant-caps:normal;font-variant-numeric:normal;font-variant-alternates:normal;font-variant-east-asian:normal;font-feature-settings:normal;font-variation-settings:normal;text-indent:0;text-align:start;text-decoration-line:none;text-decoration-style:solid;text-decoration-color:#000000;letter-spacing:normal;word-spacing:normal;text-transform:none;writing-mode:lr-tb;direction:ltr;text-orientation:mixed;dominant-baseline:auto;baseline-shift:baseline;text-anchor:start;white-space:normal;shape-padding:0;shape-margin:0;inline-size:0;clip-rule:nonzero;display:inline;overflow:visible;visibility:visible;isolation:auto;mix-blend-mode:normal;color-interpolation:sRGB;color-interpolation-filters:linearRGB;solid-color:#000000;solid-opacity:1;vector-effect:none;fill:#d89e58;fill-opacity:1;fill-rule:nonzero;stroke:none;stroke-width:0.314153;stroke-linecap:round;stroke-linejoin:round;stroke-miterlimit:4;stroke-dasharray:none;stroke-dashoffset:0;stroke-opacity:1;-inkscape-stroke:none;color-rendering:auto;image-rendering:auto;shape-rendering:auto;text-rendering:auto;enable-background:accumulate;stop-color:#000000"
       d="M 190.73151 78.68202 L 190.73151 80.012172 L 192.06115 80.012172 L 193.3913 80.012172 L 193.3913 81.341806 L 194.72093 81.341806 L 194.72093 80.012172 L 196.05109 80.012172 L 197.38072 80.012172 L 198.71087 80.012172 L 200.04051 80.012172 L 200.04051 78.68202 L 198.71087 78.68202 L 197.38072 78.68202 L 196.05109 78.68202 L 194.72093 78.68202 L 193.3913 78.68202 L 192.06115 78.68202 L 190.73151 78.68202 z M 200.04051 80.012172 L 200.04051 81.341806 L 201.37066 81.341806 L 201.37066 80.012172 L 200.04051 80.012172 z M 190.73151 80.012172 L 189.40136 80.012172 L 189.40136 81.341806 L 189.40136 82.671958 L 189.40136 84.001592 L 189.40136 84.666668 L 190.73151 84.666668 L 190.73151 84.001592 L 190.73151 82.671958 L 190.73151 81.341806 L 190.73151 80.012172 z M 204.03044 78.68202 L 204.03044 80.012172 L 205.36059 80.012172 L 206.69023 80.012172 L 206.69023 81.341806 L 208.02038 81.341806 L 208.02038 80.012172 L 208.02038 78.68202 L 206.69023 78.68202 L 205.36059 78.68202 L 204.03044 78.68202 z M 204.03044 80.012172 L 202.70029 80.012172 L 202.70029 81.341806 L 202.70029 82.671958 L 202.70029 84.001592 L 204.03044 84.001592 L 204.03044 82.671958 L 204.03044 81.341806 L 204.03044 80.012172 z " /><path
       id="path976"
       style="color:#000000;font-style:normal;font-variant:normal;font-weight:normal;font-stretch:normal;font-size:medium;line-height:normal;font-family:sans-serif;font-variant-ligatures:normal;font-variant-position:normal;font-variant-caps:normal;font-variant-numeric:normal;font-variant-alternates:normal;font-variant-east-asian:normal;font-feature-settings:normal;font-variation-settings:normal;text-indent:0;text-align:start;text-decoration-line:none;text-decoration-style:solid;text-decoration-color:#000000;letter-spacing:normal;word-spacing:normal;text-transform:none;writing-mode:lr-tb;direction:ltr;text-orientation:mixed;dominant-baseline:auto;baseline-shift:baseline;text-anchor:start;white-space:normal;shape-padding:0;shape-margin:0;inline-size:0;clip-rule:nonzero;display:inline;overflow:visible;visibility:visible;isolation:auto;mix-blend-mode:normal;color-interpolation:sRGB;color-interpolation-filters:linearRGB;solid-color:#000000;solid-opacity:1;vector-effect:none;fill:#67332d;fill-opacity:1;fill-rule:nonzero;stroke:none;stroke-width:0.314153;stroke-linecap:round;stroke-linejoin:round;stroke-miterlimit:4;stroke-dasharray:none;stroke-dashoffset:0;stroke-opacity:1;-inkscape-stroke:none;color-rendering:auto;image-rendering:auto;shape-rendering:auto;text-rendering:auto;enable-background:accumulate;stop-color:#000000"
       d="M 196.05109 81.341806 L 196.05109 82.671958 L 197.38072 82.671958 L 197.38072 81.341806 L 196.05109 81.341806 z M 200.04051 81.341806 L 200.04051 82.671958 L 201.37066 82.671958 L 201.37066 81.341806 L 200.04051 81.341806 z M 200.04051 82.671958 L 198.71087 82.671958 L 198.71087 84.001592 L 197.38072 84.001592 L 197.38072 84.666668 L 200.04051 84.666668 L 200.04051 84.001592 L 200.04051 82.671958 z M 205.36059 81.341806 L 205.36059 82.671958 L 204.03044 82.671958 L 204.03044 84.001592 L 205.36059 84.001592 L 206.69023 84.001592 L 206.69023 82.671958 L 208.02038 82.671958 L 208.02038 81.341806 L 206.69023 81.341806 L 205.36059 81.341806 z M 192.06115 82.671958 L 192.06115 84.001592 L 192.06115 84.666668 L 194.72093 84.666668 L 194.72093 84.001592 L 194.72093 82.671958 L 193.3913 82.671958 L 192.06115 82.671958 z " /><path
       id="path977"
       style="color:#000000;font-style:normal;font-variant:normal;font-weight:normal;font-stretch:normal;font-size:medium;line-height:normal;font-family:sans-serif;font-variant-ligatures:normal;font-variant-position:normal;font-variant-caps:normal;font-variant-numeric:normal;font-variant-alternates:normal;font-variant-east-asian:normal;font-feature-settings:normal;font-variation-settings:normal;text-indent:0;text-align:start;text-decoration-line:none;text-decoration-style:solid;text-decoration-color:#000000;letter-spacing:normal;word-spacing:normal;text-transform:none;writing-mode:lr-tb;direction:ltr;text-orientation:mixed;dominant-baseline:auto;baseline-shift:baseline;text-anchor:start;white-space:normal;shape-padding:0;shape-margin:0;inline-size:0;clip-rule:nonzero;display:inline;overflow:visible;visibility:visible;isolation:auto;mix-blend-mode:normal;color-interpolation:sRGB;color-interpolation-filters:linearRGB;solid-color:#000000;solid-opacity:1;vector-effect:none;fill:#b66b3a;fill-opacity:1;fill-rule:nonzero;stroke:none;stroke-width:0.314153;stroke-linecap:round;stroke-linejoin:round;stroke-miterlimit:4;stroke-dasharray:none;stroke-dashoffset:0;stroke-opacity:1;-inkscape-stroke:none;color-rendering:auto;image-rendering:auto;shape-rendering:auto;text-rendering:auto;enable-background:accumulate;stop-color:#000000"
       d="M 190.73151 80.012172 L 190.73151 81.341806 L 190.73151 82.671958 L 190.73151 84.001592 L 190.73151 84.666668 L 192.06115 84.666668 L 192.06115 84.001592 L 192.06115 82.671958 L 193.3913 82.671958 L 194.72093 82.671958 L 194.72093 84.001592 L 194.72093 84.666668 L 197.38072 84.666668 L 197.38072 84.001592 L 198.71087 84.001592 L 198.71087 82.671958 L 200.04051 82.671958 L 200.04051 81.341806 L 200.04051 80.012172 L 198.71087 80.012172 L 197.38072 80.012172 L 196.05109 80.012172 L 194.72093 80.012172 L 194.72093 81.341806 L 193.3913 81.341806 L 193.3913 80.012172 L 192.06115 80.012172 L 190.73151 80.012172 z M 204.03044 80.012172 L 204.03044 81.341806 L 204.03044 82.671958 L 205.36059 82.671958 L 205.36059 81.341806 L 206.69023 81.341806 L 206.69023 80.012172 L 205.36059 80.012172 L 204.03044 80.012172 z M 196.05109 81.341806 L 197.38072 81.341806 L 197.38072 82.671958 L 196.05109 82.671958 L 196.05109 81.341806 z " /><path
       id="path997"
       style="color:#000000;font-style:normal;font-variant:normal;font-weight:normal;font-stretch:normal;font-size:medium;line-height:normal;font-family:sans-serif;font-variant-ligatures:normal;font-variant-position:normal;font-variant-caps:normal;font-variant-numeric:normal;font-variant-alternates:normal;font-variant-east-asian:normal;font-feature-settings:normal;font-variation-settings:normal;text-indent:0;text-align:start;text-decoration-line:none;text-decoration-style:solid;text-decoration-color:#000000;letter-spacing:normal;word-spacing:normal;text-transform:none;writing-mode:lr-tb;direction:ltr;text-orientation:mixed;dominant-baseline:auto;baseline-shift:baseline;text-anchor:start;white-space:normal;shape-padding:0;shape-margin:0;inline-size:0;clip-rule:nonzero;display:inline;overflow:visible;visibility:visible;isolation:auto;mix-blend-mode:normal;color-interpolation:sRGB;color-interpolation-filters:linearRGB;solid-color:#000000;solid-opacity:1;vector-effect:none;fill:#000000;fill-opacity:1;fill-rule:nonzero;stroke:none;stroke-width:0.314153;stroke-linecap:round;stroke-linejoin:round;stroke-miterlimit:4;stroke-dasharray:none;stroke-dashoffset:0;stroke-opacity:1;-inkscape-stroke:none;color-rendering:auto;image-rendering:auto;shape-rendering:auto;text-rendering:auto;enable-background:accumulate;stop-color:#000000"
       d="M 148.1739 78.016944 L 148.1739 79.347096 L 149.50405 79.347096 L 150.83369 79.347096 L 152.16384 79.347096 L 153.49348 79.347096 L 154.82363 79.347096 L 156.15378 79.347096 L 157.48341 79.347096 L 158.81356 79.347096 L 160.1432 79.347096 L 161.47335 79.347096 L 162.80298 79.347096 L 164.13314 79.347096 L 164.13314 78.016944 L 162.80298 78.016944 L 161.47335 78.016944 L 160.1432 78.016944 L 158.81356 78.016944 L 157.48341 78.016944 L 156.15378 78.016944 L 154.82363 78.016944 L 153.49348 78.016944 L 152.16384 78.016944 L 150.83369 78.016944 L 149.50405 78.016944 L 148.1739 78.016944 z M 164.13314 79.347096 L 164.13314 80.67673 L 165.46277 80.67673 L 165.46277 79.347096 L 164.13314 79.347096 z M 165.46277 80.67673 L 165.46277 82.006882 L 165.46277 83.336516 L 165.46277 84.666668 L 166.79292 84.666668 L 166.79292 83.336516 L 166.79292 82.006882 L 166.79292 80.67673 L 165.46277 80.67673 z M 148.1739 79.347096 L 146.84427 79.347096 L 146.84427 80.67673 L 148.1739 80.67673 L 148.1739 79.347096 z M 146.84427 80.67673 L 145.51412 80.67673 L 145.51412 82.006882 L 145.51412 83.336516 L 145.51412 84.666668 L 146.84427 84.666668 L 146.84427 83.336516 L 146.84427 82.006882 L 146.84427 80.67673 z " /><path
       id="path998"
       style="color:#000000;font-style:normal;font-variant:normal;font-weight:normal;font-stretch:normal;font-size:medium;line-height:normal;font-family:sans-serif;font-variant-ligatures:normal;font-variant-position:normal;font-variant-caps:normal;font-variant-numeric:normal;font-variant-alternates:normal;font-variant-east-asian:normal;font-feature-settings:normal;font-variation-settings:normal;text-indent:0;text-align:start;text-decoration-line:none;text-decoration-style:solid;text-decoration-color:#000000;letter-spacing:normal;word-spacing:normal;text-transform:none;writing-mode:lr-tb;direction:ltr;text-orientation:mixed;dominant-baseline:auto;baseline-shift:baseline;text-anchor:start;white-space:normal;shape-padding:0;shape-margin:0;inline-size:0;clip-rule:nonzero;display:inline;overflow:visible;visibility:visible;isolation:auto;mix-blend-mode:normal;color-interpolation:sRGB;color-interpolation-filters:linearRGB;solid-color:#000000;solid-opacity:1;vector-effect:none;fill:#95d836;fill-opacity:1;fill-rule:nonzero;stroke:none;stroke-width:0.314153;stroke-linecap:round;stroke-linejoin:round;stroke-miterlimit:4;stroke-dasharray:none;stroke-dashoffset:0;stroke-opacity:1;-inkscape-stroke:none;color-rendering:auto;image-rendering:auto;shape-rendering:auto;text-rendering:auto;enable-background:accumulate;stop-color:#000000"
       d="m 148.17404,79.347015 v 1.329916 h -1.32991 v 1.329913 1.329913 1.329916 h 1.32991 v -1.329916 -1.329913 h 1.32992 v 1.329913 1.329916 h 1.32991 1.32991 1.32992 v -1.329916 -1.329913 -1.329913 h 1.32991 1.32991 1.32992 1.32991 v 1.329913 h 1.32992 v -1.329913 h 1.32991 v 1.329913 h 1.32992 v 1.329913 h 1.32991 v 1.329916 h 1.32992 v -1.329916 -1.329913 -1.329913 h -1.32992 v -1.329916 h -1.32991 -1.32992 -1.32991 -1.32992 -1.32991 -1.32992 -1.32991 -1.32991 -1.32992 -1.32991 -1.32991 z m 6.64957,2.659829 v 1.329913 h 1.32991 v -1.329913 z" /><path
       id="path999"
       style="color:#000000;font-style:normal;font-variant:normal;font-weight:normal;font-stretch:normal;font-size:medium;line-height:normal;font-family:sans-serif;font-variant-ligatures:normal;font-variant-position:normal;font-variant-caps:normal;font-variant-numeric:normal;font-variant-alternates:normal;font-variant-east-asian:normal;font-feature-settings:normal;font-variation-settings:normal;text-indent:0;text-align:start;text-decoration-line:none;text-decoration-style:solid;text-decoration-color:#000000;letter-spacing:normal;word-spacing:normal;text-transform:none;writing-mode:lr-tb;direction:ltr;text-orientation:mixed;dominant-baseline:auto;baseline-shift:baseline;text-anchor:start;white-space:normal;shape-padding:0;shape-margin:0;inline-size:0;clip-rule:nonzero;display:inline;overflow:visible;visibility:visible;isolation:auto;mix-blend-mode:normal;color-interpolation:sRGB;color-interpolation-filters:linearRGB;solid-color:#000000;solid-opacity:1;vector-effect:none;fill:#4dbd27;fill-opacity:1;fill-rule:nonzero;stroke:none;stroke-width:0.314153;stroke-linecap:round;stroke-linejoin:round;stroke-miterlimit:4;stroke-dasharray:none;stroke-dashoffset:0;stroke-opacity:1;-inkscape-stroke:none;color-rendering:auto;image-rendering:auto;shape-rendering:auto;text-rendering:auto;enable-background:accumulate;stop-color:#000000"
       d="M 153.49348 80.67673 L 153.49348 82.006882 L 153.49348 83.336516 L 153.49348 84.666668 L 157.48341 84.666668 L 157.48341 83.336516 L 158.81356 83.336516 L 160.1432 83.336516 L 160.1432 84.666668 L 164.13314 84.666668 L 164.13314 83.336516 L 162.80298 83.336516 L 162.80298 82.006882 L 161.47335 82.006882 L 161.47335 80.67673 L 160.1432 80.67673 L 160.1432 82.006882 L 158.81356 82.006882 L 158.81356 80.67673 L 157.48341 80.67673 L 156.15378 80.67673 L 154.82363 80.67673 L 153.49348 80.67673 z M 148.1739 82.006882 L 148.1739 83.336516 L 148.1739 84.666668 L 149.50405 84.666668 L 149.50405 83.336516 L 149.50405 82.006882 L 148.1739 82.006882 z M 154.82363 82.006882 L 156.15378 82.006882 L 156.15378 83.336516 L 154.82363 83.336516 L 154.82363 82.006882 z " /><path
       id="path1000"
       style="color:#000000;font-style:normal;font-variant:normal;font-weight:normal;font-stretch:normal;font-size:medium;line-height:normal;font-family:sans-serif;font-variant-ligatures:normal;font-variant-position:normal;font-variant-caps:normal;font-variant-numeric:normal;font-variant-alternates:normal;font-variant-east-asian:normal;font-feature-settings:normal;font-variation-settings:normal;text-indent:0;text-align:start;text-decoration-line:none;text-decoration-style:solid;text-decoration-color:#000000;letter-spacing:normal;word-spacing:normal;text-transform:none;writing-mode:lr-tb;direction:ltr;text-orientation:mixed;dominant-baseline:auto;baseline-shift:baseline;text-anchor:start;white-space:normal;shape-padding:0;shape-margin:0;inline-size:0;clip-rule:nonzero;display:inline;overflow:visible;visibility:visible;isolation:auto;mix-blend-mode:normal;color-interpolation:sRGB;color-interpolation-filters:linearRGB;solid-color:#000000;solid-opacity:1;vector-effect:none;fill:#0a7030;fill-opacity:1;fill-rule:nonzero;stroke:none;stroke-width:0.314153;stroke-linecap:round;stroke-linejoin:round;stroke-miterlimit:4;stroke-dasharray:none;stroke-dashoffset:0;stroke-opacity:1;-inkscape-stroke:none;color-rendering:auto;image-rendering:auto;shape-rendering:auto;text-rendering:auto;enable-background:accumulate;stop-color:#000000"
       d="M 157.48341 83.336516 L 157.48341 84.666668 L 160.1432 84.666668 L 160.1432 83.336516 L 158.81356 83.336516 L 157.48341 83.336516 z " /></g></svg>
