<?xml version="1.0" encoding="UTF-8" standalone="no"?>
<!-- Created with Inkscape (http://www.inkscape.org/) -->

<svg
   width="960.3302"
   height="320.70752"
   viewBox="0 0 254.08736 84.853864"
   version="1.1"
   id="svg1"
   inkscape:version="1.4 (1:1.4+202410161351+e7c3feb100)"
   sodipodi:docname="slime_flavours.svg"
   xmlns:inkscape="http://www.inkscape.org/namespaces/inkscape"
   xmlns:sodipodi="http://sodipodi.sourceforge.net/DTD/sodipodi-0.dtd"
   xmlns:xlink="http://www.w3.org/1999/xlink"
   xmlns="http://www.w3.org/2000/svg"
   xmlns:svg="http://www.w3.org/2000/svg">
  <sodipodi:namedview
     id="namedview1"
     pagecolor="#ffffff"
     bordercolor="#000000"
     borderopacity="0.25"
     inkscape:showpageshadow="2"
     inkscape:pageopacity="0.0"
     inkscape:pagecheckerboard="0"
     inkscape:deskcolor="#d1d1d1"
     inkscape:document-units="px"
     inkscape:zoom="1.5696829"
     inkscape:cx="703.64529"
     inkscape:cy="148.75616"
     inkscape:window-width="1920"
     inkscape:window-height="1131"
     inkscape:window-x="0"
     inkscape:window-y="0"
     inkscape:window-maximized="1"
     inkscape:current-layer="layer1" />
  <defs
     id="defs1">
    <linearGradient
       inkscape:collect="always"
       xlink:href="#linearGradient957"
       id="linearGradient109"
       gradientUnits="userSpaceOnUse"
       gradientTransform="translate(-225.42501,78.503856)"
       x1="381"
       y1="-2.4707032e-07"
       x2="381"
       y2="105.56792" />
    <linearGradient
       id="linearGradient957"
       inkscape:collect="always">
      <stop
         style="stop-color:#ffffff;stop-opacity:1;"
         offset="0.02648662"
         id="stop957" />
      <stop
         style="stop-color:#1498dc;stop-opacity:1;"
         offset="0.3085188"
         id="stop959" />
      <stop
         style="stop-color:#1950c0;stop-opacity:1;"
         offset="0.69070369"
         id="stop958" />
    </linearGradient>
  </defs>
  <g
     inkscape:label="Layer 1"
     inkscape:groupmode="layer"
     id="layer1"
     transform="translate(-28.574999,-78.316666)">
    <rect
       style="fill:#ffffff;stroke-width:2.64583;stroke-linecap:round;stroke-linejoin:round"
       id="rect3"
       width="254"
       height="84.666672"
       x="28.662354"
       y="78.316666" />
    <path
       id="path3"
       style="fill:url(#linearGradient109);stroke-width:4.73286;stroke-linecap:round;stroke-linejoin:round"
       d="M 28.574999,78.503856 H 282.57499 V 163.17053 H 28.574999 Z" />
    <text
       xml:space="preserve"
       style="font-size:8.94254px;line-height:1.5;font-family:'Roboto Condensed';-inkscape-font-specification:'Roboto Condensed, ';text-align:center;letter-spacing:0px;writing-mode:lr-tb;direction:ltr;text-anchor:middle;fill:#000000;fill-opacity:1;stroke-width:3.04859;stroke-linecap:round;stroke-linejoin:round"
       x="155.575"
       y="91.433052"
       id="text98"><tspan
         sodipodi:role="line"
         id="tspan98"
         style="font-style:normal;font-variant:normal;font-weight:bold;font-stretch:normal;font-size:8.94254px;font-family:'Pixel Operator 8';-inkscape-font-specification:'Pixel Operator 8, Bold';font-variant-ligatures:normal;font-variant-caps:normal;font-variant-numeric:normal;font-variant-east-asian:normal;text-align:center;text-anchor:middle;fill:#000000;fill-opacity:1;stroke-width:3.04859"
         x="155.575"
         y="91.433052">SLIME FLAVOURS</tspan></text>
    <g
       id="g141"
       transform="translate(30.843192,-47.342034)">
      <g
         id="g47"
         transform="matrix(0.30461826,-3.9795401e-4,3.9795401e-4,0.30461826,168.8747,178.66795)"
         inkscape:transform-center-x="-9.0429081"
         inkscape:transform-center-y="-9.6816911">
        <path
           id="path39"
           style="fill:#000000;fill-opacity:1;stroke:none;stroke-width:1.17468;stroke-linecap:round;stroke-linejoin:round"
           d="m -166.09383,-53.596796 v 4.233334 4.233333 4.233334 4.233332 4.23334 4.23333 4.23333 4.23334 h 4.23333 v 4.23333 h -4.23333 v 4.23333 h -4.23333 v 4.23334 h -4.23334 v 4.23333 4.23333 4.23334 4.23333 h 4.23334 4.23333 4.23333 4.23334 4.23333 4.23333 4.23334 4.23333 4.23333 4.23334 4.23333 4.23333 4.23334 4.23333 v -4.23333 -4.23334 -4.23333 -4.23333 h -4.23333 v -4.23334 h -4.23334 v -4.23333 h -4.23333 v -4.23333 h 4.23333 v -4.23334 -4.23333 -4.23333 -4.23334 -4.233332 -4.233334 -4.233333 -4.233334 h -4.23333 -4.23333 -4.23334 -4.23333 -4.23333 -4.23334 -4.23333 -4.23333 -4.23334 z m 4.23333,4.233334 h 4.23334 4.23333 4.23333 4.23334 4.23333 4.23333 4.23334 4.23333 v 4.233333 4.233334 4.233332 4.23334 4.23333 4.23333 h -4.23333 v -4.23333 h -4.23334 v 4.23333 4.23334 h -4.23333 v -4.23334 -4.23333 h -4.23333 v 4.23333 h -4.23334 v -4.23333 h -4.23333 v 4.23333 4.23334 h -4.23333 v -4.23334 -4.23333 h -4.23334 v -4.23333 h 4.23334 v -4.23334 -4.233332 h -4.23334 v -4.233334 z m 16.93334,8.466667 v 4.233332 4.23334 h 4.23333 4.23333 v -4.23334 -4.233332 h -4.23333 z m -21.16667,33.866672 h 4.23333 v 4.23333 4.23333 h 4.23334 v -4.23333 h 4.23333 v 4.23333 h 4.23333 v -4.23333 -4.23333 h 4.23334 v 4.23333 4.23333 h 4.23333 v -4.23333 h 4.23333 v 4.23333 h 4.23334 v -4.23333 h 4.23333 v -4.23333 h 4.23333 v 4.23333 h 4.23334 v 4.23333 4.23334 h -4.23334 -4.23333 -4.23333 -4.23334 -4.23333 -4.23333 -4.23334 -4.23333 -4.23333 -4.23334 -4.23333 -4.23333 v -4.23334 -4.23333 h 4.23333 z" />
        <path
           id="path40"
           style="fill:#007ec7;fill-opacity:1;stroke:none;stroke-width:1.17468;stroke-linecap:round;stroke-linejoin:round"
           d="m -161.8605,-49.363462 v 4.233333 4.233334 h 4.23334 v -4.233334 h 4.23333 4.23333 4.23334 4.23333 v -4.233333 h -4.23333 -4.23334 -4.23333 -4.23333 z" />
        <path
           id="path41"
           style="fill:#ffe1ff;fill-opacity:1;stroke:none;stroke-width:1.17468;stroke-linecap:round;stroke-linejoin:round"
           d="m -140.69383,-49.363462 v 4.233333 h 4.23333 4.23334 v 4.233334 h 4.23333 v -4.233334 -4.233333 h -4.23333 -4.23334 z" />
        <rect
           style="fill:#007ec7;fill-opacity:1;stroke:none;stroke-width:1.17468;stroke-linecap:round;stroke-linejoin:round"
           id="rect41"
           width="4.2333336"
           height="4.2333336"
           x="-161.86063"
           y="-32.43029" />
        <path
           id="path42"
           style="fill:#72b2ff;fill-opacity:1;stroke:none;stroke-width:1.17468;stroke-linecap:round;stroke-linejoin:round"
           d="m -157.62716,-45.130129 v 4.233334 4.233332 4.23334 4.23333 4.23333 4.23334 h 4.23333 v -4.23334 -4.23333 h 4.23333 v 4.23333 h 4.23334 v -4.23333 h 4.23333 v 4.23333 4.23334 h 4.23333 v -4.23334 -4.23333 h 4.23334 v -4.23333 -4.23334 -4.233332 -4.233334 h -4.23334 -4.23333 -4.23333 -4.23334 -4.23333 z m 12.7,4.233334 h 4.23333 4.23333 v 4.233332 4.23334 h -4.23333 -4.23333 v -4.23334 z" />
        <path
           id="path43"
           style="fill:#007ec7;fill-opacity:1;stroke:none;stroke-width:1.17468;stroke-linecap:round;stroke-linejoin:round"
           d="m -132.22716,-40.896795 v 4.233332 4.23334 4.23333 4.23333 h 4.23333 v -4.23333 -4.23333 -4.23334 -4.233332 z" />
        <path
           id="path44"
           style="fill:#005964;fill-opacity:1;stroke:none;stroke-width:1.17468;stroke-linecap:round;stroke-linejoin:round"
           d="m -166.09383,-7.030123 v 4.23333 h -4.23333 v 4.23333 4.23334 h 4.23333 4.23333 4.23334 4.23333 4.23333 4.23334 4.23333 4.23333 4.23334 4.23333 4.23333 4.23334 v -4.23334 -4.23333 h -4.23334 v -4.23333 h -4.23333 v 4.23333 4.23333 h -4.23333 -4.23334 -4.23333 -4.23333 -4.23334 -4.23333 -4.23333 -4.23334 v -4.23333 -4.23333 z" />
        <path
           id="path45"
           style="fill:#007ec7;fill-opacity:1;stroke:none;stroke-width:1.17468;stroke-linecap:round;stroke-linejoin:round"
           d="m -149.1605,-7.030123 v 4.23333 4.23333 h 4.23334 v -4.23333 -4.23333 z" />
        <rect
           style="fill:#007ec7;fill-opacity:1;stroke:none;stroke-width:1.17468;stroke-linecap:round;stroke-linejoin:round"
           id="rect45"
           width="4.2333336"
           height="4.2333336"
           x="-2.7969341"
           y="127.99393"
           transform="rotate(90)" />
        <rect
           style="fill:#007ec7;fill-opacity:1;stroke:none;stroke-width:1.17468;stroke-linecap:round;stroke-linejoin:round"
           id="rect46"
           width="4.2333336"
           height="4.2333336"
           x="-2.7969341"
           y="136.4606"
           transform="rotate(90)" />
        <rect
           style="fill:#007ec7;fill-opacity:1;stroke:none;stroke-width:1.17468;stroke-linecap:round;stroke-linejoin:round"
           id="rect47"
           width="4.2333336"
           height="4.2333336"
           x="-2.7969341"
           y="153.39395"
           transform="rotate(90)" />
      </g>
    </g>
    <g
       id="g55"
       transform="matrix(-0.30461852,0,0,0.30461852,107.17518,131.37348)">
      <path
         id="path47"
         style="fill:#000000;fill-opacity:1;stroke:none;stroke-width:1.17468;stroke-linecap:round;stroke-linejoin:round"
         d="m -94.580533,-53.596796 v 4.233334 4.233333 4.233334 4.233332 4.23334 4.23333 4.23333 4.23334 h 4.23333 v 4.23333 h -4.23333 v 4.23333 h -4.23333 v 4.23334 h -4.233337 v 4.23333 4.23333 4.23334 4.23333 h 4.233337 4.23333 4.23333 4.23334 4.23333 4.23333 4.23334 4.23333 4.23333 4.23334 4.23333 4.23333 4.23334 4.23333 v -4.23333 -4.23334 -4.23333 -4.23333 h -4.23333 v -4.23334 h -4.23334 v -4.23333 h -4.23333 v -4.23333 h 4.23333 v -4.23334 -4.23333 -4.23333 -4.23334 -4.233332 -4.233334 -4.233333 -4.233334 h -4.23333 -4.23333 -4.23334 -4.23333 -4.23333 -4.23334 -4.23333 -4.23333 -4.23334 z m 4.23333,4.233334 h 4.23334 4.23333 4.23333 4.23334 4.23333 4.23333 4.23334 4.23333 v 4.233333 4.233334 4.233332 4.23334 4.23333 4.23333 h -4.23333 v -4.23333 h -4.23334 v 4.23333 4.23334 h -4.23333 v -4.23334 -4.23333 h -4.23333 v 4.23333 h -4.23334 v -4.23333 h -4.23333 v 4.23333 4.23334 h -4.23333 v -4.23334 -4.23333 h -4.23334 v -4.23333 h 4.23334 v -4.23334 -4.233332 h -4.23334 v -4.233334 z m 16.93334,8.466667 v 4.233332 4.23334 h 4.23333 4.23333 v -4.23334 -4.233332 h -4.23333 z m -21.16667,33.866672 h 4.23333 v 4.23333 4.23333 h 4.23334 v -4.23333 h 4.23333 v 4.23333 h 4.23333 v -4.23333 -4.23333 h 4.23334 v 4.23333 4.23333 h 4.23333 v -4.23333 h 4.23333 v 4.23333 h 4.23334 v -4.23333 h 4.23333 v -4.23333 h 4.23333 v 4.23333 h 4.23334 v 4.23333 4.23334 h -4.23334 -4.23333 -4.23333 -4.23334 -4.23333 -4.23333 -4.23334 -4.23333 -4.23333 -4.23334 -4.23333 -4.23333 v -4.23334 -4.23333 h 4.23333 z" />
      <path
         id="path48"
         style="fill:#6da200;fill-opacity:1;stroke:none;stroke-width:1.17468;stroke-linecap:round;stroke-linejoin:round"
         d="m -90.347203,-49.363462 v 4.233333 4.233334 h 4.23334 v -4.233334 h 4.23333 4.23333 4.23334 4.23333 v -4.233333 h -4.23333 -4.23334 -4.23333 -4.23333 z" />
      <path
         id="path49"
         style="fill:#f3f1e2;fill-opacity:1;stroke:none;stroke-width:1.17468;stroke-linecap:round;stroke-linejoin:round"
         d="m -69.180533,-49.363462 v 4.233333 h 4.23333 4.23334 v 4.233334 h 4.23333 v -4.233334 -4.233333 h -4.23333 -4.23334 z" />
      <rect
         style="fill:#6da200;fill-opacity:1;stroke:none;stroke-width:1.17468;stroke-linecap:round;stroke-linejoin:round"
         id="rect49"
         width="4.2333336"
         height="4.2333336"
         x="-90.347328"
         y="-32.43029" />
      <path
         id="path50"
         style="fill:#bad200;fill-opacity:1;stroke:none;stroke-width:1.17468;stroke-linecap:round;stroke-linejoin:round"
         d="m -86.113863,-45.130129 v 4.233334 4.233332 4.23334 4.23333 4.23333 4.23334 h 4.23333 v -4.23334 -4.23333 h 4.23333 v 4.23333 h 4.23334 v -4.23333 h 4.23333 v 4.23333 4.23334 h 4.23333 v -4.23334 -4.23333 h 4.23334 v -4.23333 -4.23334 -4.233332 -4.233334 h -4.23334 -4.23333 -4.23333 -4.23334 -4.23333 z m 12.7,4.233334 h 4.23333 4.23333 v 4.233332 4.23334 h -4.23333 -4.23333 v -4.23334 z" />
      <path
         id="path51"
         style="fill:#6da200;fill-opacity:1;stroke:none;stroke-width:1.17468;stroke-linecap:round;stroke-linejoin:round"
         d="m -60.713863,-40.896795 v 4.233332 4.23334 4.23333 4.23333 h 4.23333 v -4.23333 -4.23333 -4.23334 -4.233332 z" />
      <path
         id="path52"
         style="fill:#6da200;fill-opacity:1;stroke:none;stroke-width:1.17468;stroke-linecap:round;stroke-linejoin:round"
         d="m -94.580533,-7.030123 v 4.23333 h -4.23333 v 4.23333 4.23334 h 4.23333 4.23333 4.23334 4.23333 4.23333 4.23334 4.23333 4.23333 4.23334 4.23333 4.23333 4.23334 v -4.23334 -4.23333 h -4.23334 v -4.23333 h -4.23333 v 4.23333 4.23333 h -4.23333 -4.23334 -4.23333 -4.23333 -4.23334 -4.23333 -4.23333 -4.23334 v -4.23333 -4.23333 z" />
      <path
         id="path53"
         style="fill:#6da200;fill-opacity:1;stroke:none;stroke-width:1.17468;stroke-linecap:round;stroke-linejoin:round"
         d="m -77.647203,-7.030123 v 4.23333 4.23333 h 4.23334 v -4.23333 -4.23333 z" />
      <rect
         style="fill:#6da200;fill-opacity:1;stroke:none;stroke-width:1.17468;stroke-linecap:round;stroke-linejoin:round"
         id="rect53"
         width="4.2333336"
         height="4.2333336"
         x="-2.7969341"
         y="56.480629"
         transform="rotate(90)" />
      <rect
         style="fill:#6da200;fill-opacity:1;stroke:none;stroke-width:1.17468;stroke-linecap:round;stroke-linejoin:round"
         id="rect54"
         width="4.2333336"
         height="4.2333336"
         x="-2.7969341"
         y="64.947304"
         transform="rotate(90)" />
      <rect
         style="fill:#6da200;fill-opacity:1;stroke:none;stroke-width:1.17468;stroke-linecap:round;stroke-linejoin:round"
         id="rect55"
         width="4.2333336"
         height="4.2333336"
         x="-2.7969341"
         y="81.880653"
         transform="rotate(90)" />
    </g>
    <g
       id="g140"
       transform="translate(31.385351,-47.342034)">
      <path
         id="path131"
         style="fill:#000000;fill-opacity:1;stroke:none;stroke-width:0.357829;stroke-linecap:round;stroke-linejoin:round"
         d="m 143.74849,162.40748 0.002,1.28956 0.002,1.28955 0.002,1.28955 0.002,1.28955 0.002,1.28955 0.002,1.28955 0.002,1.28955 0.002,1.28955 1.28955,-0.002 0.002,1.28955 -1.28955,0.002 0.002,1.28955 -1.28955,0.002 0.002,1.28955 -1.28955,0.002 0.002,1.28955 0.002,1.28955 0.002,1.28956 0.002,1.28954 1.28955,-0.002 1.28955,-0.002 1.28955,-0.002 1.28955,-0.002 1.28955,-0.002 1.28955,-0.002 1.28955,-0.002 1.28955,-0.002 1.28955,-0.002 1.28955,-0.002 1.28955,-0.002 1.28955,-0.002 1.28956,-0.002 1.28955,-0.002 -0.002,-1.28955 -0.002,-1.28955 -0.002,-1.28955 -0.002,-1.28955 -1.28955,0.002 -0.002,-1.28955 -1.28955,0.002 -0.002,-1.28955 -1.28954,0.002 -0.002,-1.28955 1.28955,-0.002 -0.002,-1.28956 -0.002,-1.28955 -0.002,-1.28955 -0.002,-1.28955 -0.002,-1.28955 -0.002,-1.28955 -0.002,-1.28955 -0.002,-1.28955 -1.28955,0.002 -1.28955,0.002 -1.28955,0.002 -1.28955,0.002 -1.28955,0.002 -1.28955,0.002 -1.28955,0.002 -1.28955,0.002 -1.28955,0.002 z m 1.29123,1.28787 1.28955,-0.002 1.28955,-0.002 1.28955,-0.002 1.28956,-0.002 1.28955,-0.002 1.28955,-0.002 1.28955,-0.002 1.28955,-0.002 0.002,1.28955 0.002,1.28956 0.002,1.28955 0.002,1.28955 0.002,1.28955 0.002,1.28955 -1.28955,0.002 -0.002,-1.28955 -1.28955,0.002 0.002,1.28955 0.002,1.28955 -1.28955,0.002 -0.002,-1.28955 -0.002,-1.28955 -1.28955,0.002 0.002,1.28955 -1.28955,0.002 -0.002,-1.28955 -1.28955,0.002 0.002,1.28955 0.002,1.28955 -1.28955,0.002 -0.002,-1.28955 -0.002,-1.28955 -1.28955,0.002 -0.002,-1.28955 1.28955,-0.002 -0.002,-1.28955 -0.002,-1.28955 -1.28955,0.002 -0.002,-1.28955 z m 5.16158,2.57236 0.002,1.28955 0.002,1.28956 1.28955,-0.002 1.28955,-0.002 -0.002,-1.28956 -0.002,-1.28955 -1.28954,0.002 z m -6.43428,10.32483 1.28955,-0.002 0.002,1.28955 0.002,1.28955 1.28955,-0.002 -0.002,-1.28955 1.28955,-0.002 0.002,1.28955 1.28955,-0.002 -0.002,-1.28955 -0.002,-1.28954 1.28955,-0.002 0.002,1.28955 0.002,1.28955 1.28955,-0.002 -0.002,-1.28955 1.28955,-0.002 0.002,1.28955 1.28955,-0.002 -0.002,-1.28955 1.28955,-0.002 -0.002,-1.28955 1.28955,-0.002 0.002,1.28955 1.28955,-0.002 0.002,1.28955 0.002,1.28955 -1.28955,0.002 -1.28955,0.002 -1.28955,0.002 -1.28955,0.002 -1.28955,0.002 -1.28955,0.002 -1.28956,0.002 -1.28955,0.002 -1.28954,0.002 -1.28956,0.002 -1.28955,0.002 -1.28955,0.002 -0.002,-1.28955 -0.002,-1.28955 1.28955,-0.002 z" />
      <path
         id="path132"
         style="fill:#bd364a;fill-opacity:1;stroke:none;stroke-width:0.357829;stroke-linecap:round;stroke-linejoin:round"
         d="m 145.03972,163.69535 0.002,1.28955 0.002,1.28955 1.28955,-0.002 -0.002,-1.28955 1.28955,-0.002 1.28955,-0.002 1.28955,-0.002 1.28955,-0.002 -0.002,-1.28955 -1.28955,0.002 -1.28956,0.002 -1.28955,0.002 -1.28955,0.002 z" />
      <path
         id="path133"
         style="fill:#ebedd7;fill-opacity:1;stroke:none;stroke-width:0.357829;stroke-linecap:round;stroke-linejoin:round"
         d="m 151.48748,163.68693 0.002,1.28955 1.28955,-0.002 1.28955,-0.002 0.002,1.28955 1.28955,-0.002 -0.002,-1.28956 -0.002,-1.28955 -1.28955,0.002 -1.28955,0.002 z" />
      <rect
         style="fill:#bd364a;fill-opacity:1;stroke:none;stroke-width:0.357829;stroke-linecap:round;stroke-linejoin:round"
         id="rect133"
         width="1.2895519"
         height="1.2895519"
         x="144.82571"
         y="169.04285"
         transform="rotate(-0.0748513)" />
      <path
         id="path134"
         style="fill:#ee9f56;fill-opacity:1;stroke:none;stroke-width:0.357829;stroke-linecap:round;stroke-linejoin:round"
         d="m 146.33096,164.98322 0.002,1.28955 0.002,1.28955 0.002,1.28955 0.002,1.28955 0.002,1.28955 0.002,1.28955 1.28955,-0.002 -0.002,-1.28955 -0.002,-1.28955 1.28955,-0.002 0.002,1.28955 1.28955,-0.002 -0.002,-1.28955 1.28955,-0.002 0.002,1.28955 0.002,1.28955 1.28955,-0.002 -0.002,-1.28955 -0.002,-1.28955 1.28955,-0.002 -0.002,-1.28955 -0.002,-1.28955 -0.002,-1.28955 -0.002,-1.28955 -1.28955,0.002 -1.28955,0.002 -1.28955,0.002 -1.28955,0.002 -1.28955,0.002 z m 3.87034,1.28449 1.28955,-0.002 1.28954,-0.002 0.002,1.28955 0.002,1.28956 -1.28955,0.002 -1.28955,0.002 -0.002,-1.28956 z" />
      <path
         id="path135"
         style="fill:#bd364a;fill-opacity:1;stroke:none;stroke-width:0.357829;stroke-linecap:round;stroke-linejoin:round"
         d="m 154.06995,166.26266 0.002,1.28955 0.002,1.28955 0.002,1.28955 0.002,1.28955 1.28955,-0.002 -0.002,-1.28955 -0.002,-1.28955 -0.002,-1.28955 -0.002,-1.28955 z" />
      <path
         id="path136"
         style="fill:#7b2755;fill-opacity:1;stroke:none;stroke-width:0.357829;stroke-linecap:round;stroke-linejoin:round"
         d="m 143.76702,176.59254 0.002,1.28955 -1.28955,0.002 0.002,1.28955 0.002,1.28955 1.28955,-0.002 1.28955,-0.002 1.28956,-0.002 1.28954,-0.002 1.28955,-0.002 1.28956,-0.002 1.28955,-0.002 1.28955,-0.002 1.28955,-0.002 1.28955,-0.002 1.28955,-0.002 1.28955,-0.002 -0.002,-1.28955 -0.002,-1.28955 -1.28955,0.002 -0.002,-1.28955 -1.28955,0.002 0.002,1.28955 0.002,1.28955 -1.28955,0.002 -1.28955,0.002 -1.28955,0.002 -1.28955,0.002 -1.28955,0.002 -1.28955,0.002 -1.28955,0.002 -1.28955,0.002 -0.002,-1.28955 -0.002,-1.28955 z" />
      <path
         id="path137"
         style="fill:#bd364a;fill-opacity:1;stroke:none;stroke-width:0.357829;stroke-linecap:round;stroke-linejoin:round"
         d="m 148.92522,176.58581 0.002,1.28954 0.002,1.28955 1.28955,-0.002 -0.002,-1.28955 -0.002,-1.28955 z" />
    </g>
    <g
       id="g16"
       transform="matrix(0.31415293,0,0,0.31415293,179.89855,77.887976)">
      <rect
         style="fill:#b66b3a;fill-opacity:1;stroke-width:2.64583;stroke-linecap:round;stroke-linejoin:round"
         id="rect9"
         width="50.800049"
         height="16.93335"
         x="-170.5592"
         y="222.18932" />
      <path
         id="path10"
         style="fill:#000000;stroke-width:0.870134;stroke-linecap:round;stroke-linejoin:round"
         d="m -170.55916,179.85573 v 4.23333 h 4.23334 4.23333 4.23333 4.23334 4.23333 4.23333 4.23334 4.23333 4.23333 4.23334 4.23333 4.23333 v -4.23333 h -4.23333 -4.23333 -4.23334 -4.23333 -4.23333 -4.23334 -4.23333 -4.23333 -4.23334 -4.23333 -4.23333 z m 50.8,4.23333 v 4.23334 h 4.23334 v -4.23334 z m 4.23334,4.23334 v 4.23333 4.23333 4.23334 4.23333 4.23333 h -4.23334 v 4.23334 h -4.23333 -4.23333 -4.23334 -4.23333 -4.23333 -4.23334 -4.23333 -4.23333 -4.23334 -4.23333 -4.23333 -4.23334 v -4.23334 h -4.23333 v -4.23333 -4.23333 -4.23334 -4.23333 -4.23333 h -4.23333 v 4.23333 4.23333 4.23334 4.23333 4.23333 4.23334 4.23333 4.23333 4.23334 4.23333 4.23333 h 4.23333 v -4.23333 -4.23333 -4.23334 -4.23333 h 4.23333 4.23334 4.23333 4.23333 4.23334 4.23333 4.23333 4.23334 4.23333 4.23333 4.23334 4.23333 4.23333 4.23334 v 4.23333 4.23334 4.23333 4.23333 h 4.23333 v -4.23333 -4.23333 -4.23334 -4.23333 -4.23333 -4.23334 -4.23333 -4.23333 -4.23334 -4.23333 -4.23333 z m -59.26667,0 h 4.23333 v -4.23334 h -4.23333 z m -4.23333,46.56718 v 4.23334 h 4.23333 v -4.23334 z m 4.23333,4.23334 v 4.23333 h 4.23333 v 4.23282 h 4.23334 4.23333 4.23333 4.23334 4.23333 4.23333 4.23334 4.23333 4.23333 4.23334 4.23333 4.23333 v -4.23282 h 4.23334 v -4.23333 h -4.23334 v 4.23281 h -4.23333 -4.23333 -4.23334 -4.23333 -4.23333 -4.23334 -4.23333 -4.23333 -4.23334 -4.23333 -4.23333 -4.23334 v -4.23281 z m 59.26667,0 h 4.23333 v -4.23334 h -4.23333 z" />
      <path
         id="path11"
         style="fill:#95d836;fill-opacity:1;stroke-width:0.870134;stroke-linecap:round;stroke-linejoin:round"
         d="m -170.55916,184.08906 v 4.23334 h -4.23333 v 4.23333 4.23333 4.23334 h 4.23333 v -4.23334 -4.23333 h 4.23334 v 4.23333 4.23334 h 4.23333 4.23333 4.23334 v -4.23334 -4.23333 -4.23333 h 4.23333 4.23333 4.23334 4.23333 v 4.23333 h 4.23333 v -4.23333 h 4.23334 v 4.23333 h 4.23333 v 4.23333 h 4.23333 v 4.23334 h 4.23334 v -4.23334 -4.23333 -4.23333 h -4.23334 v -4.23334 h -4.23333 -4.23333 -4.23334 -4.23333 -4.23333 -4.23334 -4.23333 -4.23333 -4.23334 -4.23333 -4.23333 z m 21.16667,8.46667 v 4.23333 h 4.23333 v -4.23333 z" />
      <path
         id="path12"
         style="fill:#4dbd27;fill-opacity:1;stroke-width:0.870134;stroke-linecap:round;stroke-linejoin:round"
         d="m -153.62582,188.3224 v 4.23333 4.23333 4.23334 h -4.23334 -4.23333 -4.23333 v -4.23334 -4.23333 h -4.23334 v 4.23333 4.23334 4.23333 h 4.23334 v 4.23333 h 4.23333 4.23333 4.23334 v -4.23333 h 4.23333 v 4.23333 h 4.23333 4.23334 4.23333 4.23333 4.23334 4.23333 v -4.23333 h 4.23333 v -4.23333 -4.23334 h -4.23333 v -4.23333 h -4.23333 v -4.23333 h -4.23334 v 4.23333 h -4.23333 v -4.23333 h -4.23333 -4.23334 -4.23333 z m 4.23333,4.23333 h 4.23333 v 4.23333 h -4.23333 z m 8.46667,4.23333 h 4.23333 4.23333 v 4.23334 4.23333 h -4.23333 -4.23333 v -4.23333 z" />
      <path
         id="path13"
         style="fill:#0a7030;fill-opacity:1;stroke-width:0.870134;stroke-linecap:round;stroke-linejoin:round"
         d="m -140.92581,196.78906 v 4.23334 4.23333 h 4.23333 4.23333 v -4.23333 -4.23334 h -4.23333 z m -33.86667,4.23334 v 4.23333 4.23333 h 4.23333 v 4.23334 h 4.23334 4.23333 4.23333 4.23334 4.23333 4.23333 4.23334 4.23333 4.23333 4.23334 4.23333 4.23333 v -4.23334 h 4.23334 v -4.23333 -4.23333 h -4.23334 v 4.23333 h -4.23333 v 4.23333 h -4.23333 -4.23334 -4.23333 -4.23333 -4.23334 -4.23333 v -4.23333 h -4.23333 v 4.23333 h -4.23334 -4.23333 -4.23333 v -4.23333 h -4.23334 v -4.23333 z" />
      <path
         id="path14"
         style="fill:#b66b3a;fill-opacity:1;stroke-width:0.870134;stroke-linecap:round;stroke-linejoin:round"
         d="m -174.79248,217.95573 v 4.23333 h 4.23333 v -4.23333 z m 55.03333,0 v 4.23333 h 4.23334 v -4.23333 z" />
      <path
         id="path15"
         style="fill:#67332d;fill-opacity:1;stroke-width:0.870134;stroke-linecap:round;stroke-linejoin:round"
         d="m -170.55915,217.95573 v 4.23333 h 4.23334 4.23333 4.23332 4.23334 4.23333 4.23333 4.23334 4.23333 4.23333 4.23334 4.23333 4.23333 v -4.23333 h -4.23333 -4.23333 -4.23334 -4.23333 -4.23333 -4.23334 -4.23333 -4.23333 -4.23334 -4.23332 -4.23333 z m 29.63334,8.46719 v 4.23334 4.23332 h 4.23333 4.23333 v -4.23332 -4.23334 h -4.23333 z m -21.16667,4.23282 v 4.23333 h 4.23332 4.23334 v -4.23333 h -4.23334 z m 33.86667,5.2e-4 v 4.23332 h 4.23332 v -4.23332 z m -46.56668,4.23332 v 4.23334 h 4.23334 v -4.23334 z m 4.23334,4.23334 v 4.23333 h 4.23334 4.23333 4.23332 4.23334 4.23333 4.23333 4.23334 4.23333 4.23333 4.23334 4.23333 4.23333 v -4.23333 h -4.23333 -4.23333 -4.23334 -4.23333 -4.23333 -4.23334 -4.23333 -4.23333 v -4.23334 h -4.23334 -4.23332 v 4.23334 h -4.23333 z m 50.8,0 h 4.23334 v -4.23334 h -4.23334 z" />
      <path
         id="path16"
         style="fill:#d89e58;fill-opacity:1;stroke-width:0.870134;stroke-linecap:round;stroke-linejoin:round"
         d="m -174.79248,222.18906 v 4.23334 4.23333 4.23333 h 4.23333 v -4.23333 -4.23333 -4.23334 z m 8.46667,0 v 4.23334 h 4.23333 v -4.23334 z m 42.33333,0 v 4.23334 h 4.23333 v 4.23333 4.23333 h 4.23334 v -4.23333 -4.23333 -4.23334 h -4.23334 z" />
    </g>
    <g
       id="g23"
       transform="matrix(0.31415293,0,0,0.31415293,201.17717,77.887976)">
      <rect
         style="fill:#b66b3a;fill-opacity:1;stroke-width:2.64583;stroke-linecap:round;stroke-linejoin:round"
         id="rect16"
         width="50.800049"
         height="16.93335"
         x="-170.5592"
         y="222.18932" />
      <path
         id="path17"
         style="fill:#000000;stroke-width:0.870134;stroke-linecap:round;stroke-linejoin:round"
         d="m -170.55916,179.85573 v 4.23333 h 4.23334 4.23333 4.23333 4.23334 4.23333 4.23333 4.23334 4.23333 4.23333 4.23334 4.23333 4.23333 v -4.23333 h -4.23333 -4.23333 -4.23334 -4.23333 -4.23333 -4.23334 -4.23333 -4.23333 -4.23334 -4.23333 -4.23333 z m 50.8,4.23333 v 4.23334 h 4.23334 v -4.23334 z m 4.23334,4.23334 v 4.23333 4.23333 4.23334 4.23333 4.23333 h -4.23334 v 4.23334 h -4.23333 -4.23333 -4.23334 -4.23333 -4.23333 -4.23334 -4.23333 -4.23333 -4.23334 -4.23333 -4.23333 -4.23334 v -4.23334 h -4.23333 v -4.23333 -4.23333 -4.23334 -4.23333 -4.23333 h -4.23333 v 4.23333 4.23333 4.23334 4.23333 4.23333 4.23334 4.23333 4.23333 4.23334 4.23333 4.23333 h 4.23333 v -4.23333 -4.23333 -4.23334 -4.23333 h 4.23333 4.23334 4.23333 4.23333 4.23334 4.23333 4.23333 4.23334 4.23333 4.23333 4.23334 4.23333 4.23333 4.23334 v 4.23333 4.23334 4.23333 4.23333 h 4.23333 v -4.23333 -4.23333 -4.23334 -4.23333 -4.23333 -4.23334 -4.23333 -4.23333 -4.23334 -4.23333 -4.23333 z m -59.26667,0 h 4.23333 v -4.23334 h -4.23333 z m -4.23333,46.56718 v 4.23334 h 4.23333 v -4.23334 z m 4.23333,4.23334 v 4.23333 h 4.23333 v 4.23282 h 4.23334 4.23333 4.23333 4.23334 4.23333 4.23333 4.23334 4.23333 4.23333 4.23334 4.23333 4.23333 v -4.23282 h 4.23334 v -4.23333 h -4.23334 v 4.23281 h -4.23333 -4.23333 -4.23334 -4.23333 -4.23333 -4.23334 -4.23333 -4.23333 -4.23334 -4.23333 -4.23333 -4.23334 v -4.23281 z m 59.26667,0 h 4.23333 v -4.23334 h -4.23333 z" />
      <path
         id="path18"
         style="fill:#95d836;fill-opacity:1;stroke-width:0.870134;stroke-linecap:round;stroke-linejoin:round"
         d="m -170.55916,184.08906 v 4.23334 h -4.23333 v 4.23333 4.23333 4.23334 h 4.23333 v -4.23334 -4.23333 h 4.23334 v 4.23333 4.23334 h 4.23333 4.23333 4.23334 v -4.23334 -4.23333 -4.23333 h 4.23333 4.23333 4.23334 4.23333 v 4.23333 h 4.23333 v -4.23333 h 4.23334 v 4.23333 h 4.23333 v 4.23333 h 4.23333 v 4.23334 h 4.23334 v -4.23334 -4.23333 -4.23333 h -4.23334 v -4.23334 h -4.23333 -4.23333 -4.23334 -4.23333 -4.23333 -4.23334 -4.23333 -4.23333 -4.23334 -4.23333 -4.23333 z m 21.16667,8.46667 v 4.23333 h 4.23333 v -4.23333 z" />
      <path
         id="path19"
         style="fill:#4dbd27;fill-opacity:1;stroke-width:0.870134;stroke-linecap:round;stroke-linejoin:round"
         d="m -153.62582,188.3224 v 4.23333 4.23333 4.23334 h -4.23334 -4.23333 -4.23333 v -4.23334 -4.23333 h -4.23334 v 4.23333 4.23334 4.23333 h 4.23334 v 4.23333 h 4.23333 4.23333 4.23334 v -4.23333 h 4.23333 v 4.23333 h 4.23333 4.23334 4.23333 4.23333 4.23334 4.23333 v -4.23333 h 4.23333 v -4.23333 -4.23334 h -4.23333 v -4.23333 h -4.23333 v -4.23333 h -4.23334 v 4.23333 h -4.23333 v -4.23333 h -4.23333 -4.23334 -4.23333 z m 4.23333,4.23333 h 4.23333 v 4.23333 h -4.23333 z m 8.46667,4.23333 h 4.23333 4.23333 v 4.23334 4.23333 h -4.23333 -4.23333 v -4.23333 z" />
      <path
         id="path20"
         style="fill:#0a7030;fill-opacity:1;stroke-width:0.870134;stroke-linecap:round;stroke-linejoin:round"
         d="m -140.92581,196.78906 v 4.23334 4.23333 h 4.23333 4.23333 v -4.23333 -4.23334 h -4.23333 z m -33.86667,4.23334 v 4.23333 4.23333 h 4.23333 v 4.23334 h 4.23334 4.23333 4.23333 4.23334 4.23333 4.23333 4.23334 4.23333 4.23333 4.23334 4.23333 4.23333 v -4.23334 h 4.23334 v -4.23333 -4.23333 h -4.23334 v 4.23333 h -4.23333 v 4.23333 h -4.23333 -4.23334 -4.23333 -4.23333 -4.23334 -4.23333 v -4.23333 h -4.23333 v 4.23333 h -4.23334 -4.23333 -4.23333 v -4.23333 h -4.23334 v -4.23333 z" />
      <path
         id="path21"
         style="fill:#b66b3a;fill-opacity:1;stroke-width:0.870134;stroke-linecap:round;stroke-linejoin:round"
         d="m -174.79248,217.95573 v 4.23333 h 4.23333 v -4.23333 z m 55.03333,0 v 4.23333 h 4.23334 v -4.23333 z" />
      <path
         id="path22"
         style="fill:#67332d;fill-opacity:1;stroke-width:0.870134;stroke-linecap:round;stroke-linejoin:round"
         d="m -170.55915,217.95573 v 4.23333 h 4.23334 4.23333 4.23332 4.23334 4.23333 4.23333 4.23334 4.23333 4.23333 4.23334 4.23333 4.23333 v -4.23333 h -4.23333 -4.23333 -4.23334 -4.23333 -4.23333 -4.23334 -4.23333 -4.23333 -4.23334 -4.23332 -4.23333 z m 29.63334,8.46719 v 4.23334 4.23332 h 4.23333 4.23333 v -4.23332 -4.23334 h -4.23333 z m -21.16667,4.23282 v 4.23333 h 4.23332 4.23334 v -4.23333 h -4.23334 z m 33.86667,5.2e-4 v 4.23332 h 4.23332 v -4.23332 z m -46.56668,4.23332 v 4.23334 h 4.23334 v -4.23334 z m 4.23334,4.23334 v 4.23333 h 4.23334 4.23333 4.23332 4.23334 4.23333 4.23333 4.23334 4.23333 4.23333 4.23334 4.23333 4.23333 v -4.23333 h -4.23333 -4.23333 -4.23334 -4.23333 -4.23333 -4.23334 -4.23333 -4.23333 v -4.23334 h -4.23334 -4.23332 v 4.23334 h -4.23333 z m 50.8,0 h 4.23334 v -4.23334 h -4.23334 z" />
      <path
         id="path23"
         style="fill:#d89e58;fill-opacity:1;stroke-width:0.870134;stroke-linecap:round;stroke-linejoin:round"
         d="m -174.79248,222.18906 v 4.23334 4.23333 4.23333 h 4.23333 v -4.23333 -4.23333 -4.23334 z m 8.46667,0 v 4.23334 h 4.23333 v -4.23334 z m 42.33333,0 v 4.23334 h 4.23333 v 4.23333 4.23333 h 4.23334 v -4.23333 -4.23333 -4.23334 h -4.23334 z" />
    </g>
    <g
       id="g116"
       transform="matrix(0.31415293,0,0,0.31415293,222.45579,77.887976)">
      <rect
         style="fill:#b66b3a;fill-opacity:1;stroke-width:2.64583;stroke-linecap:round;stroke-linejoin:round"
         id="rect110"
         width="50.800049"
         height="16.93335"
         x="-170.5592"
         y="222.18932" />
      <path
         id="path110"
         style="fill:#000000;stroke-width:0.870134;stroke-linecap:round;stroke-linejoin:round"
         d="m -170.55916,179.85573 v 4.23333 h 4.23334 4.23333 4.23333 4.23334 4.23333 4.23333 4.23334 4.23333 4.23333 4.23334 4.23333 4.23333 v -4.23333 h -4.23333 -4.23333 -4.23334 -4.23333 -4.23333 -4.23334 -4.23333 -4.23333 -4.23334 -4.23333 -4.23333 z m 50.8,4.23333 v 4.23334 h 4.23334 v -4.23334 z m 4.23334,4.23334 v 4.23333 4.23333 4.23334 4.23333 4.23333 h -4.23334 v 4.23334 h -4.23333 -4.23333 -4.23334 -4.23333 -4.23333 -4.23334 -4.23333 -4.23333 -4.23334 -4.23333 -4.23333 -4.23334 v -4.23334 h -4.23333 v -4.23333 -4.23333 -4.23334 -4.23333 -4.23333 h -4.23333 v 4.23333 4.23333 4.23334 4.23333 4.23333 4.23334 4.23333 4.23333 4.23334 4.23333 4.23333 h 4.23333 v -4.23333 -4.23333 -4.23334 -4.23333 h 4.23333 4.23334 4.23333 4.23333 4.23334 4.23333 4.23333 4.23334 4.23333 4.23333 4.23334 4.23333 4.23333 4.23334 v 4.23333 4.23334 4.23333 4.23333 h 4.23333 v -4.23333 -4.23333 -4.23334 -4.23333 -4.23333 -4.23334 -4.23333 -4.23333 -4.23334 -4.23333 -4.23333 z m -59.26667,0 h 4.23333 v -4.23334 h -4.23333 z m -4.23333,46.56718 v 4.23334 h 4.23333 v -4.23334 z m 4.23333,4.23334 v 4.23333 h 4.23333 v 4.23282 h 4.23334 4.23333 4.23333 4.23334 4.23333 4.23333 4.23334 4.23333 4.23333 4.23334 4.23333 4.23333 v -4.23282 h 4.23334 v -4.23333 h -4.23334 v 4.23281 h -4.23333 -4.23333 -4.23334 -4.23333 -4.23333 -4.23334 -4.23333 -4.23333 -4.23334 -4.23333 -4.23333 -4.23334 v -4.23281 z m 59.26667,0 h 4.23333 v -4.23334 h -4.23333 z" />
      <path
         id="path111"
         style="fill:#95d836;fill-opacity:1;stroke-width:0.870134;stroke-linecap:round;stroke-linejoin:round"
         d="m -170.55916,184.08906 v 4.23334 h -4.23333 v 4.23333 4.23333 4.23334 h 4.23333 v -4.23334 -4.23333 h 4.23334 v 4.23333 4.23334 h 4.23333 4.23333 4.23334 v -4.23334 -4.23333 -4.23333 h 4.23333 4.23333 4.23334 4.23333 v 4.23333 h 4.23333 v -4.23333 h 4.23334 v 4.23333 h 4.23333 v 4.23333 h 4.23333 v 4.23334 h 4.23334 v -4.23334 -4.23333 -4.23333 h -4.23334 v -4.23334 h -4.23333 -4.23333 -4.23334 -4.23333 -4.23333 -4.23334 -4.23333 -4.23333 -4.23334 -4.23333 -4.23333 z m 21.16667,8.46667 v 4.23333 h 4.23333 v -4.23333 z" />
      <path
         id="path112"
         style="fill:#4dbd27;fill-opacity:1;stroke-width:0.870134;stroke-linecap:round;stroke-linejoin:round"
         d="m -153.62582,188.3224 v 4.23333 4.23333 4.23334 h -4.23334 -4.23333 -4.23333 v -4.23334 -4.23333 h -4.23334 v 4.23333 4.23334 4.23333 h 4.23334 v 4.23333 h 4.23333 4.23333 4.23334 v -4.23333 h 4.23333 v 4.23333 h 4.23333 4.23334 4.23333 4.23333 4.23334 4.23333 v -4.23333 h 4.23333 v -4.23333 -4.23334 h -4.23333 v -4.23333 h -4.23333 v -4.23333 h -4.23334 v 4.23333 h -4.23333 v -4.23333 h -4.23333 -4.23334 -4.23333 z m 4.23333,4.23333 h 4.23333 v 4.23333 h -4.23333 z m 8.46667,4.23333 h 4.23333 4.23333 v 4.23334 4.23333 h -4.23333 -4.23333 v -4.23333 z" />
      <path
         id="path113"
         style="fill:#0a7030;fill-opacity:1;stroke-width:0.870134;stroke-linecap:round;stroke-linejoin:round"
         d="m -140.92581,196.78906 v 4.23334 4.23333 h 4.23333 4.23333 v -4.23333 -4.23334 h -4.23333 z m -33.86667,4.23334 v 4.23333 4.23333 h 4.23333 v 4.23334 h 4.23334 4.23333 4.23333 4.23334 4.23333 4.23333 4.23334 4.23333 4.23333 4.23334 4.23333 4.23333 v -4.23334 h 4.23334 v -4.23333 -4.23333 h -4.23334 v 4.23333 h -4.23333 v 4.23333 h -4.23333 -4.23334 -4.23333 -4.23333 -4.23334 -4.23333 v -4.23333 h -4.23333 v 4.23333 h -4.23334 -4.23333 -4.23333 v -4.23333 h -4.23334 v -4.23333 z" />
      <path
         id="path114"
         style="fill:#b66b3a;fill-opacity:1;stroke-width:0.870134;stroke-linecap:round;stroke-linejoin:round"
         d="m -174.79248,217.95573 v 4.23333 h 4.23333 v -4.23333 z m 55.03333,0 v 4.23333 h 4.23334 v -4.23333 z" />
      <path
         id="path115"
         style="fill:#67332d;fill-opacity:1;stroke-width:0.870134;stroke-linecap:round;stroke-linejoin:round"
         d="m -170.55915,217.95573 v 4.23333 h 4.23334 4.23333 4.23332 4.23334 4.23333 4.23333 4.23334 4.23333 4.23333 4.23334 4.23333 4.23333 v -4.23333 h -4.23333 -4.23333 -4.23334 -4.23333 -4.23333 -4.23334 -4.23333 -4.23333 -4.23334 -4.23332 -4.23333 z m 29.63334,8.46719 v 4.23334 4.23332 h 4.23333 4.23333 v -4.23332 -4.23334 h -4.23333 z m -21.16667,4.23282 v 4.23333 h 4.23332 4.23334 v -4.23333 h -4.23334 z m 33.86667,5.2e-4 v 4.23332 h 4.23332 v -4.23332 z m -46.56668,4.23332 v 4.23334 h 4.23334 v -4.23334 z m 4.23334,4.23334 v 4.23333 h 4.23334 4.23333 4.23332 4.23334 4.23333 4.23333 4.23334 4.23333 4.23333 4.23334 4.23333 4.23333 v -4.23333 h -4.23333 -4.23333 -4.23334 -4.23333 -4.23333 -4.23334 -4.23333 -4.23333 v -4.23334 h -4.23334 -4.23332 v 4.23334 h -4.23333 z m 50.8,0 h 4.23334 v -4.23334 h -4.23334 z" />
      <path
         id="path116"
         style="fill:#d89e58;fill-opacity:1;stroke-width:0.870134;stroke-linecap:round;stroke-linejoin:round"
         d="m -174.79248,222.18906 v 4.23334 4.23333 4.23333 h 4.23333 v -4.23333 -4.23333 -4.23334 z m 8.46667,0 v 4.23334 h 4.23333 v -4.23334 z m 42.33333,0 v 4.23334 h 4.23333 v 4.23333 4.23333 h 4.23334 v -4.23333 -4.23333 -4.23334 h -4.23334 z" />
    </g>
    <g
       id="g123"
       transform="matrix(0.31415293,0,0,0.31415293,243.73441,77.887976)">
      <rect
         style="fill:#b66b3a;fill-opacity:1;stroke-width:2.64583;stroke-linecap:round;stroke-linejoin:round"
         id="rect116"
         width="50.800049"
         height="16.93335"
         x="-170.5592"
         y="222.18932" />
      <path
         id="path117"
         style="fill:#000000;stroke-width:0.870134;stroke-linecap:round;stroke-linejoin:round"
         d="m -170.55916,179.85573 v 4.23333 h 4.23334 4.23333 4.23333 4.23334 4.23333 4.23333 4.23334 4.23333 4.23333 4.23334 4.23333 4.23333 v -4.23333 h -4.23333 -4.23333 -4.23334 -4.23333 -4.23333 -4.23334 -4.23333 -4.23333 -4.23334 -4.23333 -4.23333 z m 50.8,4.23333 v 4.23334 h 4.23334 v -4.23334 z m 4.23334,4.23334 v 4.23333 4.23333 4.23334 4.23333 4.23333 h -4.23334 v 4.23334 h -4.23333 -4.23333 -4.23334 -4.23333 -4.23333 -4.23334 -4.23333 -4.23333 -4.23334 -4.23333 -4.23333 -4.23334 v -4.23334 h -4.23333 v -4.23333 -4.23333 -4.23334 -4.23333 -4.23333 h -4.23333 v 4.23333 4.23333 4.23334 4.23333 4.23333 4.23334 4.23333 4.23333 4.23334 4.23333 4.23333 h 4.23333 v -4.23333 -4.23333 -4.23334 -4.23333 h 4.23333 4.23334 4.23333 4.23333 4.23334 4.23333 4.23333 4.23334 4.23333 4.23333 4.23334 4.23333 4.23333 4.23334 v 4.23333 4.23334 4.23333 4.23333 h 4.23333 v -4.23333 -4.23333 -4.23334 -4.23333 -4.23333 -4.23334 -4.23333 -4.23333 -4.23334 -4.23333 -4.23333 z m -59.26667,0 h 4.23333 v -4.23334 h -4.23333 z m -4.23333,46.56718 v 4.23334 h 4.23333 v -4.23334 z m 4.23333,4.23334 v 4.23333 h 4.23333 v 4.23282 h 4.23334 4.23333 4.23333 4.23334 4.23333 4.23333 4.23334 4.23333 4.23333 4.23334 4.23333 4.23333 v -4.23282 h 4.23334 v -4.23333 h -4.23334 v 4.23281 h -4.23333 -4.23333 -4.23334 -4.23333 -4.23333 -4.23334 -4.23333 -4.23333 -4.23334 -4.23333 -4.23333 -4.23334 v -4.23281 z m 59.26667,0 h 4.23333 v -4.23334 h -4.23333 z" />
      <path
         id="path118"
         style="fill:#95d836;fill-opacity:1;stroke-width:0.870134;stroke-linecap:round;stroke-linejoin:round"
         d="m -170.55916,184.08906 v 4.23334 h -4.23333 v 4.23333 4.23333 4.23334 h 4.23333 v -4.23334 -4.23333 h 4.23334 v 4.23333 4.23334 h 4.23333 4.23333 4.23334 v -4.23334 -4.23333 -4.23333 h 4.23333 4.23333 4.23334 4.23333 v 4.23333 h 4.23333 v -4.23333 h 4.23334 v 4.23333 h 4.23333 v 4.23333 h 4.23333 v 4.23334 h 4.23334 v -4.23334 -4.23333 -4.23333 h -4.23334 v -4.23334 h -4.23333 -4.23333 -4.23334 -4.23333 -4.23333 -4.23334 -4.23333 -4.23333 -4.23334 -4.23333 -4.23333 z m 21.16667,8.46667 v 4.23333 h 4.23333 v -4.23333 z" />
      <path
         id="path119"
         style="fill:#4dbd27;fill-opacity:1;stroke-width:0.870134;stroke-linecap:round;stroke-linejoin:round"
         d="m -153.62582,188.3224 v 4.23333 4.23333 4.23334 h -4.23334 -4.23333 -4.23333 v -4.23334 -4.23333 h -4.23334 v 4.23333 4.23334 4.23333 h 4.23334 v 4.23333 h 4.23333 4.23333 4.23334 v -4.23333 h 4.23333 v 4.23333 h 4.23333 4.23334 4.23333 4.23333 4.23334 4.23333 v -4.23333 h 4.23333 v -4.23333 -4.23334 h -4.23333 v -4.23333 h -4.23333 v -4.23333 h -4.23334 v 4.23333 h -4.23333 v -4.23333 h -4.23333 -4.23334 -4.23333 z m 4.23333,4.23333 h 4.23333 v 4.23333 h -4.23333 z m 8.46667,4.23333 h 4.23333 4.23333 v 4.23334 4.23333 h -4.23333 -4.23333 v -4.23333 z" />
      <path
         id="path120"
         style="fill:#0a7030;fill-opacity:1;stroke-width:0.870134;stroke-linecap:round;stroke-linejoin:round"
         d="m -140.92581,196.78906 v 4.23334 4.23333 h 4.23333 4.23333 v -4.23333 -4.23334 h -4.23333 z m -33.86667,4.23334 v 4.23333 4.23333 h 4.23333 v 4.23334 h 4.23334 4.23333 4.23333 4.23334 4.23333 4.23333 4.23334 4.23333 4.23333 4.23334 4.23333 4.23333 v -4.23334 h 4.23334 v -4.23333 -4.23333 h -4.23334 v 4.23333 h -4.23333 v 4.23333 h -4.23333 -4.23334 -4.23333 -4.23333 -4.23334 -4.23333 v -4.23333 h -4.23333 v 4.23333 h -4.23334 -4.23333 -4.23333 v -4.23333 h -4.23334 v -4.23333 z" />
      <path
         id="path121"
         style="fill:#b66b3a;fill-opacity:1;stroke-width:0.870134;stroke-linecap:round;stroke-linejoin:round"
         d="m -174.79248,217.95573 v 4.23333 h 4.23333 v -4.23333 z m 55.03333,0 v 4.23333 h 4.23334 v -4.23333 z" />
      <path
         id="path122"
         style="fill:#67332d;fill-opacity:1;stroke-width:0.870134;stroke-linecap:round;stroke-linejoin:round"
         d="m -170.55915,217.95573 v 4.23333 h 4.23334 4.23333 4.23332 4.23334 4.23333 4.23333 4.23334 4.23333 4.23333 4.23334 4.23333 4.23333 v -4.23333 h -4.23333 -4.23333 -4.23334 -4.23333 -4.23333 -4.23334 -4.23333 -4.23333 -4.23334 -4.23332 -4.23333 z m 29.63334,8.46719 v 4.23334 4.23332 h 4.23333 4.23333 v -4.23332 -4.23334 h -4.23333 z m -21.16667,4.23282 v 4.23333 h 4.23332 4.23334 v -4.23333 h -4.23334 z m 33.86667,5.2e-4 v 4.23332 h 4.23332 v -4.23332 z m -46.56668,4.23332 v 4.23334 h 4.23334 v -4.23334 z m 4.23334,4.23334 v 4.23333 h 4.23334 4.23333 4.23332 4.23334 4.23333 4.23333 4.23334 4.23333 4.23333 4.23334 4.23333 4.23333 v -4.23333 h -4.23333 -4.23333 -4.23334 -4.23333 -4.23333 -4.23334 -4.23333 -4.23333 v -4.23334 h -4.23334 -4.23332 v 4.23334 h -4.23333 z m 50.8,0 h 4.23334 v -4.23334 h -4.23334 z" />
      <path
         id="path123"
         style="fill:#d89e58;fill-opacity:1;stroke-width:0.870134;stroke-linecap:round;stroke-linejoin:round"
         d="m -174.79248,222.18906 v 4.23334 4.23333 4.23333 h 4.23333 v -4.23333 -4.23333 -4.23334 z m 8.46667,0 v 4.23334 h 4.23333 v -4.23334 z m 42.33333,0 v 4.23334 h 4.23333 v 4.23333 4.23333 h 4.23334 v -4.23333 -4.23333 -4.23334 h -4.23334 z" />
    </g>
    <g
       id="g130"
       transform="matrix(0.31415293,0,0,0.31415293,158.61993,77.887976)">
      <rect
         style="fill:#b66b3a;fill-opacity:1;stroke-width:2.64583;stroke-linecap:round;stroke-linejoin:round"
         id="rect123"
         width="50.800049"
         height="16.93335"
         x="-170.5592"
         y="222.18932" />
      <path
         id="path124"
         style="fill:#000000;stroke-width:0.870134;stroke-linecap:round;stroke-linejoin:round"
         d="m -170.55916,179.85573 v 4.23333 h 4.23334 4.23333 4.23333 4.23334 4.23333 4.23333 4.23334 4.23333 4.23333 4.23334 4.23333 4.23333 v -4.23333 h -4.23333 -4.23333 -4.23334 -4.23333 -4.23333 -4.23334 -4.23333 -4.23333 -4.23334 -4.23333 -4.23333 z m 50.8,4.23333 v 4.23334 h 4.23334 v -4.23334 z m 4.23334,4.23334 v 4.23333 4.23333 4.23334 4.23333 4.23333 h -4.23334 v 4.23334 h -4.23333 -4.23333 -4.23334 -4.23333 -4.23333 -4.23334 -4.23333 -4.23333 -4.23334 -4.23333 -4.23333 -4.23334 v -4.23334 h -4.23333 v -4.23333 -4.23333 -4.23334 -4.23333 -4.23333 h -4.23333 v 4.23333 4.23333 4.23334 4.23333 4.23333 4.23334 4.23333 4.23333 4.23334 4.23333 4.23333 h 4.23333 v -4.23333 -4.23333 -4.23334 -4.23333 h 4.23333 4.23334 4.23333 4.23333 4.23334 4.23333 4.23333 4.23334 4.23333 4.23333 4.23334 4.23333 4.23333 4.23334 v 4.23333 4.23334 4.23333 4.23333 h 4.23333 v -4.23333 -4.23333 -4.23334 -4.23333 -4.23333 -4.23334 -4.23333 -4.23333 -4.23334 -4.23333 -4.23333 z m -59.26667,0 h 4.23333 v -4.23334 h -4.23333 z m -4.23333,46.56718 v 4.23334 h 4.23333 v -4.23334 z m 4.23333,4.23334 v 4.23333 h 4.23333 v 4.23282 h 4.23334 4.23333 4.23333 4.23334 4.23333 4.23333 4.23334 4.23333 4.23333 4.23334 4.23333 4.23333 v -4.23282 h 4.23334 v -4.23333 h -4.23334 v 4.23281 h -4.23333 -4.23333 -4.23334 -4.23333 -4.23333 -4.23334 -4.23333 -4.23333 -4.23334 -4.23333 -4.23333 -4.23334 v -4.23281 z m 59.26667,0 h 4.23333 v -4.23334 h -4.23333 z" />
      <path
         id="path125"
         style="fill:#95d836;fill-opacity:1;stroke-width:0.870134;stroke-linecap:round;stroke-linejoin:round"
         d="m -170.55916,184.08906 v 4.23334 h -4.23333 v 4.23333 4.23333 4.23334 h 4.23333 v -4.23334 -4.23333 h 4.23334 v 4.23333 4.23334 h 4.23333 4.23333 4.23334 v -4.23334 -4.23333 -4.23333 h 4.23333 4.23333 4.23334 4.23333 v 4.23333 h 4.23333 v -4.23333 h 4.23334 v 4.23333 h 4.23333 v 4.23333 h 4.23333 v 4.23334 h 4.23334 v -4.23334 -4.23333 -4.23333 h -4.23334 v -4.23334 h -4.23333 -4.23333 -4.23334 -4.23333 -4.23333 -4.23334 -4.23333 -4.23333 -4.23334 -4.23333 -4.23333 z m 21.16667,8.46667 v 4.23333 h 4.23333 v -4.23333 z" />
      <path
         id="path126"
         style="fill:#4dbd27;fill-opacity:1;stroke-width:0.870134;stroke-linecap:round;stroke-linejoin:round"
         d="m -153.62582,188.3224 v 4.23333 4.23333 4.23334 h -4.23334 -4.23333 -4.23333 v -4.23334 -4.23333 h -4.23334 v 4.23333 4.23334 4.23333 h 4.23334 v 4.23333 h 4.23333 4.23333 4.23334 v -4.23333 h 4.23333 v 4.23333 h 4.23333 4.23334 4.23333 4.23333 4.23334 4.23333 v -4.23333 h 4.23333 v -4.23333 -4.23334 h -4.23333 v -4.23333 h -4.23333 v -4.23333 h -4.23334 v 4.23333 h -4.23333 v -4.23333 h -4.23333 -4.23334 -4.23333 z m 4.23333,4.23333 h 4.23333 v 4.23333 h -4.23333 z m 8.46667,4.23333 h 4.23333 4.23333 v 4.23334 4.23333 h -4.23333 -4.23333 v -4.23333 z" />
      <path
         id="path127"
         style="fill:#0a7030;fill-opacity:1;stroke-width:0.870134;stroke-linecap:round;stroke-linejoin:round"
         d="m -140.92581,196.78906 v 4.23334 4.23333 h 4.23333 4.23333 v -4.23333 -4.23334 h -4.23333 z m -33.86667,4.23334 v 4.23333 4.23333 h 4.23333 v 4.23334 h 4.23334 4.23333 4.23333 4.23334 4.23333 4.23333 4.23334 4.23333 4.23333 4.23334 4.23333 4.23333 v -4.23334 h 4.23334 v -4.23333 -4.23333 h -4.23334 v 4.23333 h -4.23333 v 4.23333 h -4.23333 -4.23334 -4.23333 -4.23333 -4.23334 -4.23333 v -4.23333 h -4.23333 v 4.23333 h -4.23334 -4.23333 -4.23333 v -4.23333 h -4.23334 v -4.23333 z" />
      <path
         id="path128"
         style="fill:#b66b3a;fill-opacity:1;stroke-width:0.870134;stroke-linecap:round;stroke-linejoin:round"
         d="m -174.79248,217.95573 v 4.23333 h 4.23333 v -4.23333 z m 55.03333,0 v 4.23333 h 4.23334 v -4.23333 z" />
      <path
         id="path129"
         style="fill:#67332d;fill-opacity:1;stroke-width:0.870134;stroke-linecap:round;stroke-linejoin:round"
         d="m -170.55915,217.95573 v 4.23333 h 4.23334 4.23333 4.23332 4.23334 4.23333 4.23333 4.23334 4.23333 4.23333 4.23334 4.23333 4.23333 v -4.23333 h -4.23333 -4.23333 -4.23334 -4.23333 -4.23333 -4.23334 -4.23333 -4.23333 -4.23334 -4.23332 -4.23333 z m 29.63334,8.46719 v 4.23334 4.23332 h 4.23333 4.23333 v -4.23332 -4.23334 h -4.23333 z m -21.16667,4.23282 v 4.23333 h 4.23332 4.23334 v -4.23333 h -4.23334 z m 33.86667,5.2e-4 v 4.23332 h 4.23332 v -4.23332 z m -46.56668,4.23332 v 4.23334 h 4.23334 v -4.23334 z m 4.23334,4.23334 v 4.23333 h 4.23334 4.23333 4.23332 4.23334 4.23333 4.23333 4.23334 4.23333 4.23333 4.23334 4.23333 4.23333 v -4.23333 h -4.23333 -4.23333 -4.23334 -4.23333 -4.23333 -4.23334 -4.23333 -4.23333 v -4.23334 h -4.23334 -4.23332 v 4.23334 h -4.23333 z m 50.8,0 h 4.23334 v -4.23334 h -4.23334 z" />
      <path
         id="path130"
         style="fill:#d89e58;fill-opacity:1;stroke-width:0.870134;stroke-linecap:round;stroke-linejoin:round"
         d="m -174.79248,222.18906 v 4.23334 4.23333 4.23333 h 4.23333 v -4.23333 -4.23333 -4.23334 z m 8.46667,0 v 4.23334 h 4.23333 v -4.23334 z m 42.33333,0 v 4.23334 h 4.23333 v 4.23333 4.23333 h 4.23334 v -4.23333 -4.23333 -4.23334 h -4.23334 z" />
    </g>
    <rect
       style="fill:#bd364a;fill-opacity:1;stroke:none;stroke-width:0.357829;stroke-linecap:round;stroke-linejoin:round"
       id="rect137"
       width="1.2895519"
       height="1.2895519"
       x="130.76593"
       y="-186.58981"
       transform="rotate(89.925149)" />
    <rect
       style="fill:#bd364a;fill-opacity:1;stroke:none;stroke-width:0.357829;stroke-linecap:round;stroke-linejoin:round"
       id="rect138"
       width="1.2895519"
       height="1.2895519"
       x="130.76657"
       y="-184.0107"
       transform="rotate(89.925149)" />
    <rect
       style="fill:#bd364a;fill-opacity:1;stroke:none;stroke-width:0.357829;stroke-linecap:round;stroke-linejoin:round"
       id="rect139"
       width="1.2895519"
       height="1.2895519"
       x="130.76782"
       y="-178.85249"
       transform="rotate(89.925149)" />
  </g>
</svg>
